<svg xmlns="http://www.w3.org/2000/svg" viewBox="0 0 508.56 135.2"><defs><style>.cls-1{fill:red;}</style></defs><g id="Capa_2" data-name="Capa 2"><g id="Capa_1-2" data-name="Capa 1"><path d="M22.26,1.39a2.33,2.33,0,0,0,2.06,0,72.42,72.42,0,0,0,7.89,1,5.59,5.59,0,0,0,5.21,1.11c.32.31.32.63.63,1.1.32-.47.64-.47,1.42-.47.32,0,.64.47,1.11.79.63.31,1.58.31,2.21.63.32,1.42,2.05,1.42,3.16,2.84a2.8,2.8,0,0,0,1.74,1.58c1.1,1.42,2.68,2.05,3.31,3.16,1.11,2.21,2.53,4.42,3.16,6.79a6.07,6.07,0,0,0,1.42,3.95c-.32.47-.32.47-.32.78a38,38,0,0,1,.64,11.06c-.32,1.42.79,2.84,0,4.1a6.09,6.09,0,0,1-.32,2.53c-.32,2.05.32,4.1-.95,5.68a6.5,6.5,0,0,0-1.1,3.64c-.32.31-1.11.63-1.42.94v.79a7.16,7.16,0,0,0-2.53,3.95,8.26,8.26,0,0,1,1.11,1.1c1.1,1.11,1.42,2.37,2.52,3.48A19.57,19.57,0,0,0,58,66.61c.31.78.63,1.73.95,2.52.79,1.58.79,3.32,1.1,5.05a15.92,15.92,0,0,0,.32,3.64c0,1.42.31,3.15.31,4.89-.31,1.9,0,3.79-.31,5.53s0,3.47-.63,5.05c0,.63-.48,1.42-.48,1.74s-.31.31-.31.79c-.32,1.26-1.43,2.37-1.43,4.1-.78,1-1.1,2.37-1.89,3.32a26.1,26.1,0,0,1-2.84,4c-1.42,1.26-2.05,3-3.63,3.94-.32,1.11-1.74,1.42-2.85,2.21-.63,1-2,1-2.84,1.42a7.63,7.63,0,0,1-2.21,1.58c-.63,0-1.1.63-1.74,1-1.42,0-2.84.79-4.26.32a7,7,0,0,1-5.05,0,10.45,10.45,0,0,1-5.05.47l-.79.32a1.15,1.15,0,0,1-.95-.32c-1.11.63-1.74-.47-2.84,0a4.71,4.71,0,0,1-3,.32H11.84c-2.21-.79-3.94,1.1-5.68,1.1L5.68,119a4.57,4.57,0,0,0-2.84-.32c-1.1-.31-1.42-1.42-1.73-2.37A4.16,4.16,0,0,0,1.42,113v-4.27c-.31-.31-.31-.94-.79-1.26,0-.63.48-1.42.48-2a2.4,2.4,0,0,1,0-2.53c0-1.1-1.11-2-.79-3.63.31-3.16-.64-6.79.31-10.11a4.39,4.39,0,0,1-.31-2.05c.31-1.42-.32-3,.31-4.42-.31-1.42,0-2.68-.31-4.1v-.79A1.21,1.21,0,0,0,0,77a11.3,11.3,0,0,0,.32-4.58c.31-2.21-.64-4.74,0-7a19.51,19.51,0,0,0,0-4.26c0-1.74.79-3.16,0-4.58,1.1-1.42,0-3.32.31-5,.48-1.11,0-2.53,0-4,0-1.9.79-3.63.48-5.84,0-.64,0-1.43.31-1.74.32-1.58-.79-2.21-.31-3.63a1.1,1.1,0,0,1-.48-.79,7.65,7.65,0,0,0,.48-4.27,3.62,3.62,0,0,1,0-3.15c0-1.11-.79-2.53-.48-3.95.48-1.58,0-3,0-4.74.48-1.42-.31-2.84,0-4,.79-1.1,0-1.73,0-2.52C.32,12,1.11,11,.32,9.92A63.76,63.76,0,0,0,0,2a4.73,4.73,0,0,1,2.05.31L2.37,2A4,4,0,0,0,5.05,2c2.53.78,4.9-1.27,7.58,0L13,1.71a14.52,14.52,0,0,0,3.95.63l.63-.63c1.1.63,2.21.32,3.31.32C21.63,1.71,22,1.39,22.26,1.39Z"/><path d="M65.21,1.39c1.1.32,1.42,1.42,2.53,1.74s2.52-.32,3.15.32h.63c.79,0,1.11.47,1.9.47a5.2,5.2,0,0,0,2.37-.47,3.38,3.38,0,0,0,2.84-.32h1.11c1.42-.63,3.15-.32,4.57-.32a2.83,2.83,0,0,0,2.37-1.1c.32.47.79.47.79.79.32,0,.32.31.63.63.79-.32.79.79,1.11,1.42-.32,1.11-1.74,1.74-1.74,3.16s-.47,2.84,0,4.26c.32,2.06,0,4.27.63,6.32a14.56,14.56,0,0,0-.31,5.21v1.1a12.65,12.65,0,0,0,.31,3.48,5.31,5.31,0,0,1,0,3.16c0,1.89.79,3.63.32,5.36v6.32a21.91,21.91,0,0,0,0,4.58c-.32,1.74.47,3.47-.32,5.21-.31,1.11.32,2.21.32,2.84.47,1.11,0,2.21,0,3.16a27.54,27.54,0,0,0,.79,4.58c.31,2.21,0,4.26.31,6.32,0,1.73.79,3.15.32,5a12.72,12.72,0,0,0,.47,4.1,9.72,9.72,0,0,0-.47,3.64c0,.94-.32,2.36-.32,3.47a41.54,41.54,0,0,1,0,6.31,43,43,0,0,0,.32,6.64,15.17,15.17,0,0,0-.32,3.63c0,1.74-.31,3.47.32,5.21v5.21A4.33,4.33,0,0,1,91,115.71c0,.79-.32,1.42-.32,2.21,0,1-1.42,1.27-2.53,1.74-1.1.31-1.73-.79-2.84-.79-1.42,0-2.84-.32-3.79,0-.79,0-1.1,0-1.42.32-.79-.32-1.42,0-2,0a12.13,12.13,0,0,1-2.84-1H73c-.64,0-1.74.31-2.37.31a4.5,4.5,0,0,0-1.74-.31c-1.1,0-2.21.31-2.84-.32-.79,0-1.74.32-1.74-.47-.47-1-.47-1.74-1.1-2.84.31-.64.63-1,1.1-1.74a6,6,0,0,0,.32-5.21,3.18,3.18,0,0,1,.31-1.74,5.47,5.47,0,0,0-.63-3.16c.32-1.42-.47-2.52,0-3.94V98.5c0-2,.63-3.79.32-6V90.76c-1.11-2.05,0-4.26-.32-6.31a21.85,21.85,0,0,0,0-4.58c.32-4,.95-8.05.63-12.32.79-.79,0-2,0-2.84,0-.32.32-.63.32-1.1-.32-1.27.47-2.37.47-3.48-.47-1.1,0-2.37-.47-3.47a3.4,3.4,0,0,0,.79-.79,8.54,8.54,0,0,0-.79-2.37,2.4,2.4,0,0,0,0-3.16c.47-1.42-.32-2.84-.32-4.26a9.36,9.36,0,0,1-.63-4.26c0-1.43-.47-2.85-.47-4.11-.63-1.89-.32-3.63-.32-5.68a4.37,4.37,0,0,1,.79-2.85c-1.1-1.73-.47-4.26,0-6.31.32-1.42-.79-2.84-.47-4.27-.63-1.73-.32-3.15-.32-4.89a13.93,13.93,0,0,1,.32-3.47l.47.31a6,6,0,0,1-.47-2.84,9.11,9.11,0,0,0-1.74-1.42,1.69,1.69,0,0,1,0-1.74,2.67,2.67,0,0,1,1.11-2.37C63.47,1.39,64.58,1.39,65.21,1.39Z"/><path d="M125.84,2c.32-.79.63-.48,1.42-.48H129a12.89,12.89,0,0,0,2.05,1.11h.63c1.42.63,3.32.63,4.58,1.73a19.83,19.83,0,0,1,2.84,1.74c2.21.79,2.84,3.63,5.37,4.26a1.12,1.12,0,0,1,.32.64A7.75,7.75,0,0,1,148.26,15c2.84,1.74,2.84,5.21,3.47,8.06a29.46,29.46,0,0,0,.79,5.68,17.94,17.94,0,0,0,.32,5.68c-.32,1,.32,2.37.32,3.48v2.05c-.95,1.42,0,2.84,0,4.26,0,.64.79,1.74,0,2.37A2.64,2.64,0,0,1,151.42,48h-.63c-1.42-.31-2.53-.94-3.95-.63a9.08,9.08,0,0,0-2.84.32h-.32c-.63.79-2.05,0-2.84.31-1,.79-2.37-.31-3.47.79H135c-.48,0-.48-.31-.79-.31a1.13,1.13,0,0,1-.63.31,14.46,14.46,0,0,0-3.64-.31c-1.42.94-2-.79-2.68-1.42.63-2.21,0-4.27.63-6a2.33,2.33,0,0,0,.32-1.42c.31-1.11.31-2.53,1.1-3.48V34.71c.63-1.11,0-2.21,0-3.16-.31-.47-.79-.79-.79-1.1,0-1.42-.94-2.06-1.73-3.16-1-.32-1.74-1.42-3.16-1.42-.63.63-1.42.31-2,.31a14.39,14.39,0,0,0-2.21,2.21c-.64,2.06-.32,4.11-1,6.32-.32.95,0,2.37-.32,3.79-.47,2.21,0,4.26-.47,6a12.47,12.47,0,0,0,0,3.47c-.32,1.42,0,3.16,0,5.06a57.53,57.53,0,0,1-.63,7.26,26.78,26.78,0,0,1-.32,5.05,32,32,0,0,0,0,9.48c0,2.36.32,5.21.32,7.73v.32a2.39,2.39,0,0,0,.31,1.42c-.31,1.42.32,3.16.32,4.58a13.59,13.59,0,0,0,.79,3.47,9.3,9.3,0,0,1,1,1.74c.79.47,1.89.79,2.52,1.11a1.64,1.64,0,0,1,2,0,2.7,2.7,0,0,0,2.22-1.43c1.42-1.1,0-2.84.63-4.26.47-2,.47-4.58.79-6.63V81.45c.94-2.53-.32-4.9-.32-7.42,1-.63,2-1.74,2-2.85a3.67,3.67,0,0,1,1.42-.94,2.35,2.35,0,0,1,2.37.94c1.42-.63,2.84,0,4.27,0,1.73,0,3.15-.31,4.89-.31a1.69,1.69,0,0,1,1.74,0,2.09,2.09,0,0,1,1.42-.32s.47,0,.47.32c.63-.32,1,0,1.74.31.63,0,1-.31,1.74-.63h2a7.23,7.23,0,0,1,1.1,1.11A15.39,15.39,0,0,1,154,74a17.77,17.77,0,0,0-.79,6.31c0,1.11.47,1.9,0,2.84.47,2.53-.95,4.9-.32,7.43,0,1.73-.32,3.15-.32,4.89-.31.32-.31.79-.79,1.11.48,0,.48.31.48.31-.79,2-.79,4.27-2.21,6v2a22.83,22.83,0,0,0-1.74,3.16c-.63.79-1.42,1.42-1.42,2.21-.32.32-.63.32-1,.63a1.1,1.1,0,0,0-.47.79c-.32,0-.32.32-.63.32-.32.32-.79.32-1.42.32v1.1h-.64c-.79.32-1.1,1-1.89,1a11.42,11.42,0,0,1-2.68,1.42c-.48.47-.79.47-1.11.79a6.44,6.44,0,0,1-3.16,1.74c-1.1-.32-1.73.31-2.84.31a6.48,6.48,0,0,1-2.53.32,3.49,3.49,0,0,1-3.47-.32c0,.32-.32.79-.63.79-.79,0-1.74-.47-2.84,0-1.42.32-2.85,0-4,.32a4,4,0,0,0-1.74-.32,10.92,10.92,0,0,1-2.84-.79c-.32,0-.63-.31-1-.63a9.2,9.2,0,0,1-4.89-2.84c-.79-.79-1.11-1.74-1.9-2-.63-.48-.94-1.11-1.42-1.43a5.89,5.89,0,0,1-2.68-2.21,7.1,7.1,0,0,0-1.9-2.36,3.28,3.28,0,0,0-.63-1.74c-.31-1.11-1.42-1.9-1.42-3.16a21.93,21.93,0,0,1-1.74-4,.68.68,0,0,0-.63-.63c.63-2.52-.47-5,0-7.42.32-1.74-1.1-3.63-.79-5.68-.31-1.74.32-3.48-.31-5.21.63-1.11,0-2.22-.32-3.16a3.11,3.11,0,0,0,.32-1.74,4.63,4.63,0,0,1-.32-1.89,4,4,0,0,0,.32-1.74,4.73,4.73,0,0,0,.31-2.05c.32-1.43-.63-2.85.32-4.27,0-1.1,0-1.73-.63-2.37.31-1.42-.32-2.84,0-3.94A5.05,5.05,0,0,0,93,54.76V54a2.31,2.31,0,0,1,0-2,75.85,75.85,0,0,1,0-8.53c.47-.31.79-.63.79-.94V41a15.06,15.06,0,0,0,.63-4,18.09,18.09,0,0,1,.79-8.69c.31-1.1.31-2.52.94-3.63a39.59,39.59,0,0,1,.79-5.52c.32-1.11,1.43-1.74,2.06-2.85.31-1.1.31-2.05,1.42-2.84.79-1.42,1.1-3.16,2.52-4.26a15.88,15.88,0,0,1,1.43-2,1.14,1.14,0,0,0,.94-.32c.79-.32,1.11-.79,1.9-1.11a12,12,0,0,1,3.16-1.73c.31-.32.63-.79.94-.79.32-.32.79-.32,1.11-.63h2c1.42-.32,2.84-1.42,4.26-.63,1.43.31,3.16-.48,4.58-.79A5.36,5.36,0,0,0,125.84,2Z"/><path d="M157.89,1.39c1.1.32,1.42,1.42,2.53,1.74s2.52-.32,3.15.32h.63c.79,0,1.11.47,1.9.47a5.2,5.2,0,0,0,2.37-.47,3.38,3.38,0,0,0,2.84-.32h1.11c1.42-.63,3.15-.32,4.57-.32a2.83,2.83,0,0,0,2.37-1.1c.32.47.79.47.79.79.32,0,.32.31.63.63.79-.32.79.79,1.11,1.42-.32,1.11-1.74,1.74-1.74,3.16s-.47,2.84,0,4.26c.32,2.06,0,4.27.63,6.32a14.56,14.56,0,0,0-.31,5.21v1.1a12.65,12.65,0,0,0,.31,3.48,5.31,5.31,0,0,1,0,3.16c0,1.89.79,3.63.32,5.36v6.32a21.91,21.91,0,0,0,0,4.58c-.32,1.74.47,3.47-.32,5.21-.31,1.11.32,2.21.32,2.84.47,1.11,0,2.21,0,3.16a27.54,27.54,0,0,0,.79,4.58c.31,2.21,0,4.26.31,6.32,0,1.73.79,3.15.32,5a12.72,12.72,0,0,0,.47,4.1,9.72,9.72,0,0,0-.47,3.64c0,.94-.32,2.36-.32,3.47a41.54,41.54,0,0,1,0,6.31,43,43,0,0,0,.32,6.64,15.17,15.17,0,0,0-.32,3.63c0,1.74-.31,3.47.32,5.21v5.21a4.33,4.33,0,0,1,1.11,2.84c0,.79-.32,1.42-.32,2.21,0,1-1.42,1.27-2.53,1.74-1.1.31-1.73-.79-2.84-.79-1.42,0-2.84-.32-3.79,0-.79,0-1.1,0-1.42.32-.79-.32-1.42,0-2,0a12.13,12.13,0,0,1-2.84-1h-2.22c-.63,0-1.73.31-2.36.31a4.5,4.5,0,0,0-1.74-.31c-1.1,0-2.21.31-2.84-.32-.79,0-1.74.32-1.74-.47-.47-1-.47-1.74-1.1-2.84.31-.64.63-1,1.1-1.74a6,6,0,0,0,.32-5.21,3.18,3.18,0,0,1,.31-1.74,5.47,5.47,0,0,0-.63-3.16c.32-1.42-.47-2.52,0-3.94V98.5c0-2,.63-3.79.32-6V90.76c-1.11-2.05,0-4.26-.32-6.31a21.85,21.85,0,0,0,0-4.58c.32-4,.95-8.05.63-12.32.79-.79,0-2,0-2.84,0-.32.32-.63.32-1.1-.32-1.27.47-2.37.47-3.48-.47-1.1,0-2.37-.47-3.47a3.4,3.4,0,0,0,.79-.79,8.54,8.54,0,0,0-.79-2.37,2.4,2.4,0,0,0,0-3.16c.47-1.42-.32-2.84-.32-4.26a9.36,9.36,0,0,1-.63-4.26c0-1.43-.47-2.85-.47-4.11-.63-1.89-.32-3.63-.32-5.68a4.37,4.37,0,0,1,.79-2.85c-1.1-1.73-.47-4.26,0-6.31.32-1.42-.79-2.84-.47-4.27-.63-1.73-.32-3.15-.32-4.89a13.93,13.93,0,0,1,.32-3.47l.47.31a6,6,0,0,1-.47-2.84,9.11,9.11,0,0,0-1.74-1.42,1.69,1.69,0,0,1,0-1.74,2.67,2.67,0,0,1,1.11-2.37C156.15,1.39,157.26,1.39,157.89,1.39Z"/><path d="M192.78,2.5c1.42,0,2.53.31,3.95.31a1.66,1.66,0,0,1,1.74.32c1.73-.63,3.47,1.11,5.21,0,1.42-.32,2.84.32,4.58.32s3.94,1.1,5.68.47c.32,0,.63-.47.63-.47,1.42,1.1,2.85,0,4,.47s2,.63,3.16,0h1.1l.64.63h.78c.32,0,1,.32,1.27.32,1.42.47,3.63.47,5.05,1.1h.63c1.11,1.11,2,2.53,3.16,3.48.32,0,.32.47.79.79a5.7,5.7,0,0,1,1.74,2.36c.63.79.94,1.43,1.42,1.9.94.95,2.05,1.74,2.84,2.68A31.64,31.64,0,0,0,243.15,20a1.13,1.13,0,0,0,.63.31c.48.79.48,1.9,1.11,2.21a18.55,18.55,0,0,1,2.53,7c0,1.42.31,2.84.31,4.26-.31,1.42.32,2.84.32,4.27,0,2.84.31,5.52-.32,8.36a5.51,5.51,0,0,0-.31,2.22c-.48,1.42-.79,2.68-1.43,4.57,0,.64,0,1.43-.78,1.74A9.24,9.24,0,0,1,243.15,59v.47c-.31.63-1.1,1-.79,1.74-.31.63-.94,1.42-1.26,2-.79.79-1.42,1.74-2.21,2.53a14.82,14.82,0,0,1-2.84,2.05h-.63c-1.11.79-2.22,1.1-2.85,2.21a30.62,30.62,0,0,1-5.21,1.26l-.79.79c-.63,0-1.73.32-2.37.32-.47.31-.78.31-1.1.79h-.32c-.79.63-1.73.31-2.84.31-.79.63-1.74.32-2.52.63-.95-.31-2.37,0-3.8,0-.47,0-.78.48-1.1.79,0,1,.32,2.06,0,2.85a22.89,22.89,0,0,0,.32,4.58c0,.63-.32.94-.32,1.73,0,1.42.63,3.16,0,4.58-.32,1.42.32,2.69,0,4.11,0,2.21-.32,3.94,0,5.68a23.62,23.62,0,0,0,.32,6.63c-.32,1.74.78,3.63.31,5.37a2.38,2.38,0,0,0,0,2c-.31,1.11-1,2.06-.63,3.48a5.83,5.83,0,0,1-1.11,3.63A2.13,2.13,0,0,1,210,120c-.94-.31-1.73-.31-2.37-1.1a6.83,6.83,0,0,0-2.52-.32,11,11,0,0,1-4.58,0,8.33,8.33,0,0,1-2.84,0c-.63-.31-1.74,0-2.37,0-.79-.63-1.74-.31-2.84-.63a6.21,6.21,0,0,0-1.42-1.42c0,.32-.32.32-.64.32-1.1,0-1.73-.32-2.84-.32a7.13,7.13,0,0,0-1.1-1.1c0-1.11-.64-2.06-.64-3.16a23.46,23.46,0,0,1,.95-2.53c0-.31.48-.31.48-.31v-1.11a6.29,6.29,0,0,0,1.42-3.47,7.28,7.28,0,0,1-.48-3.16v-2c0-1.74-.31-3.64.48-4.9,0-.79-.48-1.42-.48-1.89a6.66,6.66,0,0,0-.63-2.69,22.6,22.6,0,0,1,0-4.58c0-1.1-.31-2.21-.31-3.15a.85.85,0,0,0-.79-.79,1.13,1.13,0,0,1,.31-.64,2.35,2.35,0,0,1,.48-2.21s-.48-.31-.48-.63V76.4c.79-1.74-.63-3.64,0-5.06,0-.94.79-2,.79-3.47a17.69,17.69,0,0,1-.31-3.79c0-1.11.63-2.21.63-3.16a1.1,1.1,0,0,1,.31-1.42,5.77,5.77,0,0,0-.63-2.21c0-.95.63-2,.63-3.47,0-1.74-.31-3.79-.31-6,.31-1.11.79-2.06.31-3.48-.63-1.1,0-2.05-.31-3.16.31-1.73.79-3.47,0-4.89-.63-1.74,0-3.16,0-4.58-.32-1.42-.32-2.53-.63-3.95V24.92c.31-1-.48-2.05-.48-3.47-.31-.63,0-1.42,0-2.06.48-1.1-.31-2.52.48-3.63a32.38,32.38,0,0,1-.79-3.47c-.32-1.11.31-1.74.79-2.84,0-1.74.94-3.48.94-5.21.48-1.11.48-2.53,1.74-2.53C191.05,2.18,192.47,1.39,192.78,2.5Z"/><path d="M306.94,1.08h1.42a8.47,8.47,0,0,1,2.37,1.42c.79,1.89,1.42,3.63,2.21,5.37V9.6a48.74,48.74,0,0,1-1.42,9.79c-.79,4.27-.32,8.21-.32,12.32a24.94,24.94,0,0,0-.47,7.74c0,1.1-.32,2.52-.32,3.94a43,43,0,0,0,0,6.32V62a3.34,3.34,0,0,0,.32,1.73,44,44,0,0,0-.32,6.64c-.31,2.52.32,5,0,7.42-.63,1.73,0,3.94-.31,5.68a46.83,46.83,0,0,0,0,9.47c-.32,2.06-.32,4.27-1.11,6.32-.63,2-1.1,4.58-2.05,6.32-1.11,1.42-1.42,2.84-2.21,3.94-.63.64-1.74,1.42-2.37,2.06-.79.79-1.74,1.1-2.21,2a8.37,8.37,0,0,1-2.68,2.53,3.14,3.14,0,0,0-2.53,1.1h-1.11c-.94.63-2.36,1.42-3.47,2-.32,0-1.11-.31-1.74-.31-.79,1.1-2.05.63-3.16.31a25.77,25.77,0,0,0-4.89,0s-.47-.31-.47-.63c-.64,0-1.27-.47-1.74-.47-1.74.47-3.16-.32-4.58-.32-.63,0-1.42-.31-2.37-.31a7.91,7.91,0,0,0-1.73-1.42c-1.9-.32-3.16-1.74-5.06-2.06a2.28,2.28,0,0,0-1.26-1.42h-.79c-1.11-1.1-2.53-1.74-3.79-2.84a11,11,0,0,0-2.21-4.26c-.32-1.42-1.42-3.16-.95-4.9-.47-1.74-.47-3.47-1.42-4.89a11.67,11.67,0,0,0,.32-4.58,31.25,31.25,0,0,1-.32-5.69,8.2,8.2,0,0,1-.79-4.26c0-2.37-1.1-4.58-.31-7v-2c0-.79-.32-1.89-.32-2.53a5.93,5.93,0,0,0,.63-2.05V62a16.84,16.84,0,0,1,0-4,19,19,0,0,1-1.1-2.69,22,22,0,0,1-.32-4.57,5.9,5.9,0,0,0-.63-2.21,21.11,21.11,0,0,0,.95-2.37,10.11,10.11,0,0,0-.32-3.16,21.85,21.85,0,0,0,0-4.58,3.68,3.68,0,0,1-.32-2.53c.32-1.1-.63-2-.31-3.15A14.62,14.62,0,0,0,251,27.6a4.35,4.35,0,0,0-.47-3.15,2.34,2.34,0,0,0,.47-2.21h.32a11.75,11.75,0,0,0-.32-3.48c.32-1.42,0-3.16.32-4.58.31-1.73-.79-3.47-.32-5.37.32-1.26.32-3.15,1.27-3.78,1.1-.64,1.42-1.74,2.84-2.06h1.42A18.24,18.24,0,0,0,259.1,5a2.33,2.33,0,0,1,2.36.63,14.1,14.1,0,0,1,3.16-1,5.29,5.29,0,0,0,2.53-1.11,2.41,2.41,0,0,1,2.05-.31C270,3,270.62,3,271.1,2.18h1.26c.79-.31,1.42,0,2.53,0,.31.32.79.79,1.1.79A15.2,15.2,0,0,1,277.41,5a2.05,2.05,0,0,1-.47,2.05,5.31,5.31,0,0,1-.32,2.21,29.25,29.25,0,0,0,0,5.21v4.26a12.83,12.83,0,0,1,.32,3.48c-.32,2.21,0,3.94-.32,6,0,1.1.32,2.05.32,3.15v.32a58,58,0,0,0-.63,7.42c-.63.79-.32,1.74-.32,2.84-.31,1.42.32,2.53,0,3.79,0,1.11-.31,2.21-.31,3.63a6.28,6.28,0,0,1,.31,2.37A2.74,2.74,0,0,0,276,54a14.44,14.44,0,0,0-.31,3.48,35.89,35.89,0,0,0,.31,5.68c-.31,2.37-.79,5.21,0,8.05.32,1.74-.79,3.79,0,6,.32,1.74,0,3.48.32,5.22,1.1,1.73.31,3.94,1.42,5.68.63,1.42.63,3.47,1.42,5.21,1,1.42,2.37,1.42,3.79,1.11a21.46,21.46,0,0,1,2.52-4.58V89c.64-.63.64-2.06,1.11-3.16a46.83,46.83,0,0,0,0-9.47,1.12,1.12,0,0,1,.32-.64c0-1.42.31-2.84.31-3.94a38.28,38.28,0,0,0-.63-8.69,10.45,10.45,0,0,0,0-3.16c-.79-1.1,0-2.21,0-3.63,0-2.05.63-4.58.63-6.63-.31-1.42.32-3.16-.31-4.58a4.6,4.6,0,0,0-.32-2.05c0-.79.63-1.9.32-2.53,0-1.42.63-2.84.31-4.26-.31-.63,0-1.74,0-2.84-1.1-2.37,0-5.21-.63-8.06.32-1.73-.47-3.47,0-5.21,0-.31-.47-.79-.47-.79-.32-1.42,0-2.68-.32-3.79.79-.78.32-2.21.32-3.15-.32-1.74-1-3.64-2.37-4.58a10.45,10.45,0,0,1,0-3.16,5.77,5.77,0,0,1,.63-2.21,5.79,5.79,0,0,1,4.58,0,5.31,5.31,0,0,0,2.21-.32,4.27,4.27,0,0,0,2.05.32c.32,0,.63-.32,1.42-.32l.32-.31H296a2.12,2.12,0,0,1,1.43-.32c1.73,1,3.47-.47,4.89.63.63-.31,1.11,0,1.74,0A4.33,4.33,0,0,0,306.94,1.08Z"/><path d="M318.15.6a6.68,6.68,0,0,1,2.68-.31c.32,1.1.95.63,1.74.63h4.26c.32.47.63.47,1.42.47a9.31,9.31,0,0,0,3.48-.47,2.53,2.53,0,0,0,1.73.79,7.75,7.75,0,0,0,3.63-.79,7.43,7.43,0,0,1,2.53,2.84,10.38,10.38,0,0,0,.63,3.16C341,8,341.36,9.29,342,10.24c0,.79.47,1.1.79,1.73a15,15,0,0,1,.63,1.9c1.11,3.47,3.16,6.63,4.11,10.26.63,1.11,1.1,2.53,2.36,3.16-.31,0-.31.31-.31.79.79,1,.79,2.68,1.42,4.1.32,1.42,1.1,3,1.42,4.11h.32a8.86,8.86,0,0,0,.79-2.69c0-.94-.48-2.05,0-3.15.94-2.85,0-6,.63-8.69-.63-2.68-.63-5.52-1.42-7.89a2,2,0,0,0,.31-.79,24.2,24.2,0,0,1,0-4.74c.48-1.74,0-3.16.48-4.89C353.83,2,355.57,2,356.67,2c.32,0,.64-.32.95-.32a2.17,2.17,0,0,0,2.69-.32c2.84-1.1,6-.47,8.84-.79h3.47c1.58.79,2.21,2.53,4.11,2.06A21,21,0,0,1,378,4.55c0,.63.47,1.74-.32,2.05-.31,1.11-.31,2.21-.63,3.64,0,2.84-1.1,5.68,0,8.52a48.52,48.52,0,0,0,.95,6.48c.47,1.42-.32,2.84-.32,3.79a29.37,29.37,0,0,0-.31,5c0,1.89-1.11,2.84-1.11,4.26.48,1.74-.31,3.63,0,5.37,0,1.42-.31,2.68,0,3.79,1.11,5-.31,10.11,1.11,14.84a25.46,25.46,0,0,0-.32,7c-.79,1.74,0,3.47,0,5.53,0,1.73.63,3.47.32,5.21.31,3.79.63,8.21,1.1,12.47,0,1.42-.47,2.84-.47,3.79a7.05,7.05,0,0,0,.47,3.16c0,.79-.47,1.1-.47,2v2.69c-.32,2.21.79,4.57.79,6.78.32.64.63,1.43,1.11,2.37a4.54,4.54,0,0,1-1.9,3.32,10.54,10.54,0,0,1-2.68,1.1,11.12,11.12,0,0,1-3-.63,33,33,0,0,0-4.58-1.42c-1.74.32-4,1-6,.32h-.63c-.48,0-.79.31-1.27.31a5.31,5.31,0,0,0-2.21.32c-.95-.32-2.05.47-3.16,0a11.66,11.66,0,0,1-.94-1.42,24.26,24.26,0,0,0-.48-2.53,10.21,10.21,0,0,1-2.37-4.89,1.83,1.83,0,0,0-1.1-2.21,22.61,22.61,0,0,1-1.42-3.48c-.95-1.26-1.9-2.21-1.9-3.63,0-2.21-1.42-4-1.73-6a14.55,14.55,0,0,1-.64-3.47V86a10.45,10.45,0,0,0,0-3.16c-1.1-2.84-1.42-5.69-3.63-7.74a43,43,0,0,0,.79,6.63v3.16c-.31,1.11,0,2.53,0,4.11a25.71,25.71,0,0,0,0,4.89c.32,1.11-.31,2-.31,3.48a3,3,0,0,1-.48,2c-.31,2.68.79,5.21-.31,7.26V113a3.78,3.78,0,0,0-.32,2.68c0,1.42,0,2.84-1.1,3.79-.32.32-1.43,1.42-2.06.79a2.59,2.59,0,0,0-2.21-.79h-.31a6.67,6.67,0,0,0-2.53-.31,1.94,1.94,0,0,1-.79.31c-1.42-.31-2.84-.31-4.26-.63a.31.31,0,0,1-.32.32c-1.42-.64-3.16-.64-4.58-1.11a12.23,12.23,0,0,0-4.73-.32c-1.74.32-2.85-1.42-2.85-2.84a26.49,26.49,0,0,1,.79-5c0-.32.32-.32.32-.63V106.4a54.82,54.82,0,0,0,.79-7.27,4,4,0,0,1,.31-3.79,35,35,0,0,0-.31-5.68,10.38,10.38,0,0,1,.31-3c-.31-2,.32-4.11.32-6.63,0-1.42-.32-2.85-.32-4.27.32-.31,0-.94-.31-1.58a2.13,2.13,0,0,0,.31-1.42c-.79-1.42-.31-3.15-.31-4.89.31-1.74,0-3.48.31-5.21-.31-1.9.32-3.32.32-4.74a36.78,36.78,0,0,1-.32-5.68,9.71,9.71,0,0,0-.79-4.74v-.63c-.31-1.11,0-2.53-.31-3.63a16.28,16.28,0,0,1,.31-3.79c-.31,0-.31-.32-.31-.79,0-2.69.79-5.69.31-8.84a17,17,0,0,1,.79-6.32,55,55,0,0,0,0-7.26c-.79-1.11-.31-2.37-.79-3.79.79-1.11.48-2.53,1.11-3.64a3.19,3.19,0,0,0-.32-2.52A5.56,5.56,0,0,0,315,4.55a4.76,4.76,0,0,0,.31-1.89C316.41,2,316.73.6,318.15.6Z"/><path d="M419.83.13c.63-.32,1.73,0,2.68.32,0,.47.48.47.79.79.63-.32.95,0,1.74.31,1.1,0,2-.31,3.16-.31.31.31.63.31,1.26.63a24.91,24.91,0,0,1,4.89,0c1.11.31,2.06.79,3.16.31a1.18,1.18,0,0,0,.32.79h1.1a1.13,1.13,0,0,0,.64-.31,10.84,10.84,0,0,1,5.05-.48c1.1.48,1.89.79,2.21,1.9,0,.63-.32,1.58-.32,2.21-.79.63-1.1,1.42-1.89,1.74,0,.31,0,.78-.32.78a4.55,4.55,0,0,1-1.89,2.37c-1.11,1.11-1.11,2.53-2.06,3.16a22.58,22.58,0,0,1-3.15,6.16c-.79,1.42-1.11,3.16-2.21,4.26-.64,1.42-.95,2.84-1.74,3.79-1.74,3.16-3.16,6.48-5.05,9.63a24.41,24.41,0,0,1-1.74,4.27,11.71,11.71,0,0,1,0,4.73c1.11,3.48,2.37,7.43,3.63,11.21.32,2.06,1.74,3.48,1.74,5.53a8.48,8.48,0,0,1,1.1,1.74A5.16,5.16,0,0,0,434,68.82c.31,2.05,1.42,4.42,2,6.47.32,1.74,1.11,3.16,1.42,5.37,0,1,.63,2.37.63,3.47.48,1.42,1.11,3,1.43,4.42.47,1,0,2.06.47,2.69.95,2.52,1.74,5.37,2.68,7.42a15,15,0,0,1,1.9,4.42,14.1,14.1,0,0,0,.79,2.53,33.47,33.47,0,0,0,1.73,5.21,21.33,21.33,0,0,0,1.74,4.73v1.74c.32,0,.32.32.79.79-.79.63-1.1,1.74-2.21,2-.95.32-1.74-.31-2.84-1.1H444c-1.9,0-3.64.31-5.37-.32a5.46,5.46,0,0,0-2.21-.31,2.45,2.45,0,0,1-2.06-.32h-1.1c-1.74,0-3.16-.47-4.74-.47-.63,0-.94.47-1.42.79a2.15,2.15,0,0,1-1.42.31,5.48,5.48,0,0,1-2.37-.31c-1.1-.79-2.84-2.21-2.21-3.64v-1.42c0-1.1-.31-2.21-.31-3.15-.32-1.11-.95-1.9-.64-2.85-1.1-2.52-.31-5.68-2.21-7.89a22.9,22.9,0,0,1-2.21-5.69c-.31-1.1-.31-2.52-1.1-3.15v-.32a12.12,12.12,0,0,1-.95-4.74c-.79-1.42-.47-3.15-1.11-4.58a10.92,10.92,0,0,0-1.42-3.15,8.21,8.21,0,0,1-1.1,2.36.94.94,0,0,1-1,.48c-.79,1.74,0,3.16.32,4.58,0,2.21-.79,3.94-.32,5.68-.47,2.84-.79,6-1.1,8.84,0,2.69.63,5.37-.32,7.9.32,2.53-.32,5.21.63,7.89.32.64,0,1.42,0,2.06a16.82,16.82,0,0,1-2.05,1.42,8.59,8.59,0,0,1-2.84-.32c-.63,0-1.27.32-1.9.32a4.46,4.46,0,0,0-2.84-.32,7.64,7.64,0,0,1-3.79-.31,21.66,21.66,0,0,1-2.53.94c-1.42-.94-2.84-.31-4.73-.31-.63-.32-1.42.31-2.53.31a6.56,6.56,0,0,1-2-1.73,14.35,14.35,0,0,0-.32-5.06c-.79-1.1-.79-2.84.32-3.47.63-1.74,1.1-3.16.63-4.89-.32-2.53.47-4.74,0-7.27V94.55c0-.79-.32-1.42-.32-2.21a4.6,4.6,0,0,1,.32-2,60.07,60.07,0,0,1-.32-7.58,24.79,24.79,0,0,0,.79-7.74,26.57,26.57,0,0,0,0-5,37.55,37.55,0,0,0,0-6c0-2.05-.79-4.26-1.1-6.47v-4.9a1.94,1.94,0,0,0,.31-.79c-.31-1.1.32-2,0-3.47,0-3,.79-5.53.79-8.21-.47-1.42.32-2.84-.47-4.26a7.43,7.43,0,0,0,.47-3.16,68.53,68.53,0,0,1-.79-9.63,10.42,10.42,0,0,0-.31-3.16c.31,0,.31-.48.63-.79a66,66,0,0,1,.79-7.9,4.6,4.6,0,0,0-.32-2c0-.32.32-1.1.32-1.74a20.28,20.28,0,0,1-1.11-3,8.1,8.1,0,0,0,1.11-1.73c1.1-.79,2.05,0,2.84.31.63,0,.95.63,1.58,1.11,1.42,0,2.37.31,3.47,0H393c1.1-.48,1.89,0,2.84,0a1.64,1.64,0,0,1,1.42-.79c1.1.31,2.21-.32,3.16-.63h3.31a5.46,5.46,0,0,1,2.21.31h2.37c.79,1.42,1.11,2.69,1.74,3.63a23.15,23.15,0,0,1-.63,4.58v6a24.16,24.16,0,0,1,0,4.74c1.42-1.74,1.42-4.42,2.37-6.16a16.8,16.8,0,0,1,1.89-3.16C414.3,10.08,416.51,8,417,5c.31-.64,0-1.43.31-2.06a1.75,1.75,0,0,1,.63-1.42c0-.31.48-.63.48-1.1A2.08,2.08,0,0,1,419.83.13Z"/><path d="M481.88.92c.63,0,1.42.32,1.74.32h.31a19.2,19.2,0,0,1,4.58,1.42,1.21,1.21,0,0,1,.79-.32,1.16,1.16,0,0,0,.95.32,8.37,8.37,0,0,0,2.84,1.73c1.1.79,1.74,1.74,2.84,2.53a6.92,6.92,0,0,0,1.42,2.84c.32.63.63.63,1.11,1,.31.79.63,1.1.63,1.74.63,1.42.63,2.84,1.74,3.94.31.64.31,1.43,1.1,2.06.32.79.63,1.73.95,2.52a10.2,10.2,0,0,0,1.89,2.37,5.41,5.41,0,0,0,1.43,2.84,9,9,0,0,0,.31,2.85,9.87,9.87,0,0,0,0,4.26c.32.63.32,1.42.63,2.05a8.94,8.94,0,0,1-2.37,2.53c-.47.31-1.1,0-1.42,0a2.53,2.53,0,0,1-1.73-.79,9.72,9.72,0,0,0-3.64.47c-1.42,0-2.84.32-4.1.32a2.92,2.92,0,0,1-3.16.31c-.47.32-1.1.32-1.42.64-1.42,0-2.84-.64-3.95-.64-.31,0-.63.32-1.1.64h-1.74a21.82,21.82,0,0,1-1.42-2.69,26,26,0,0,1-.32-5.05,29.28,29.28,0,0,0-.63-5.53c-1.1-1.1-1.42-2.52-2.84-2.21-1.42.48-3.16.79-3.95,1.9a10.67,10.67,0,0,0-2.05,3.47c0,1.11.32,2.05.32,2.84.31,1.74,1.42,3.16,1.73,4.58.48.95.79,2,1.11,2.69,1.42,1.42,2.52,2.84,4,4.26a23.72,23.72,0,0,0,1.73,2.53,17.93,17.93,0,0,1,4.58,5.21,3.87,3.87,0,0,1,1.74,1.42c.63,1.1,1.73,1.73,2.37,2.52.79.63,1.1,1.42,2.21,2.06,1.42,1.73,2.84,3.47,4.58,5.36,1.73,1,2.84,2.69,4.1,4.11a19.87,19.87,0,0,1,3.63,5.37v1a10.3,10.3,0,0,0,.95,1.89c1.9,1,1.9,3.16,2.53,4.9a36.23,36.23,0,0,1,1.73,5.52c-.31,3.63-1.1,6.79-1.42,10.27-.94,1.42-.94,3.15-1.73,4.57-.32,1.43-1.43,2.06-1.74,3.48a6,6,0,0,0-1.42,2.84c-1.42,1.74-3.16,3.16-4.27,4.89-.63.79-1.42,1.11-1.73,1.74-1.42,1.11-2.84,1.42-4.27,2.84-2.05,1.42-4.89,1.74-7.26,2.85-.79.63-1.42.31-2.21.31-.95.32-2.37.32-3.47.79a1,1,0,0,1-.63.32c-1.9-.32-3.32,0-4.58-.32-1.9-.47-3.16.63-4.58,0-.48,0-1.11-.47-1.42-.47-3.16-2.06-6.79-3.48-8.85-6.32a17.79,17.79,0,0,1-1.73-1.74c-.79-.94-2.21-2-2.85-3.47-.31-.79-1.42-1.42-1.73-2.53-.32-.94-1.11-1.73-1.11-2.36-.63-1.74-.94-3.64-1.73-5.37a25.4,25.4,0,0,0-2.53-8.37c0-.32-.32-.79-.32-1.11l.32-.31c-.32,0-.63-.32-.95-.32-1.42-1.42-1.42-3.16-1.1-4.89.79-.48,1.1-1.11,2.05-1.11h1.1a14.58,14.58,0,0,0,3.48.63c2.52-.94,5.37-.31,7.42-1.73a6.09,6.09,0,0,1,2.53-.32,22.19,22.19,0,0,0,4.26-1.42,5,5,0,0,1,2.37-1.42c.31.31,1.1.31,1.73.79a3.76,3.76,0,0,1,.48,4.58c0,.63-.79.94-.48,2.05a16.87,16.87,0,0,0,3.64,8.84c.94.63,2.05,1,3.15,1.74.64.63,1.74,0,2.37-.32v.64c.79-.64,1.42-1.11,2.21-1.74,0-.79.32-1.11.95-1.74,0-1.74.79-3.95-.32-5.68-.63-.63-.31-2.06-1.1-3.16-.63-.63-1.42-2.05-2-2.84-.32-.32-.32-1.11-.63-1.42-1.11-.32-1.43-1.43-2.22-2.06-1.42-.79-1.73-1.73-2.84-2.52a20.52,20.52,0,0,1-3.16-3.16c-.94-1.74-2.84-2.84-3.79-4.58a3.75,3.75,0,0,1-1.42-1,1.72,1.72,0,0,1-.31-1.1c-.79-1.11-1.9-1.74-2.84-2.85-.79-1.1-1.11-2-1.74-2.52-.79-.63-1.11-1.74-1.74-2-.79-.64-1.1-2.06-2.21-2.37-.31-2.21-2.05-3.32-2.84-5.37-.95-.32-1.42-1.42-2.37-2a17.6,17.6,0,0,1-1.1-1.74,7.07,7.07,0,0,1-2.06-3.63,28.88,28.88,0,0,0-.79-5.53V34.71c0-1.11-.63-2.53,0-3.63.32-1.26.79-3.16,1.11-4.9a6.2,6.2,0,0,1,.31-2.36s0-.48.32-.48a7.24,7.24,0,0,0,.79-3.16,12.89,12.89,0,0,1,1.11-2.05c.31-.31.31-1.1.63-1.74.63-1.1,1.1-2.84,2.52-3.15A9.38,9.38,0,0,1,455,10.71c.79-.32,1.42-.63,2.21-1a5.74,5.74,0,0,1,1.42-2.21c1.73.79,2.37-1.74,4.1-1.74C465,5.18,466.09,3,468.46,3c.79.79,1.73-.31,2.84-.63,1.1,0,2.05-1.1,3.16-1.42.31.32,1.1.32,1.42.32C477.93,1.24,479.67.92,481.88.92Z"/><path class="cls-1" d="M44.49,117.76c-.26.63-3.45,3.1-4.53,3.88-3.13,2.29-5.6,3.55-7.32,3.75-2.73.32-3.9-1.27-4.07-2.73a18.47,18.47,0,0,1,1-6.58c-3.05.31-6.92.81-10.84,1.47a72.76,72.76,0,0,1-9,9.78.8.8,0,0,1-1-1.24A62.43,62.43,0,0,0,16.29,118a80.49,80.49,0,0,0-10.51,2.58.8.8,0,0,1-.8-.15.79.79,0,0,1-.26-.76.82.82,0,0,1,.54-.6,89,89,0,0,1,12.59-3c1.41-1.75,2.85-3.57,4.27-5.38C29.84,100.92,34.74,95,37.75,94.61a1,1,0,0,1,.9.38c.38.52.28,1.28-.46,3.26-.5,1.37-1.26,3.15-2.13,5.22-1.4,3.29-3.06,7.23-4.27,10.8a15.42,15.42,0,0,1,4.4,0,.8.8,0,0,1-.62,1.48,25.67,25.67,0,0,0-4.31.17,18.14,18.14,0,0,0-1.1,6.55c.07.59.46,1.54,2.3,1.33,3.21-.37,9.91-6,10.62-6.78a.8.8,0,0,1,1-.31A.81.81,0,0,1,44.49,117.76Zm-14.43-3.33c1.25-3.84,3-8.06,4.52-11.59,1-2.37,2.12-5,2.53-6.34-.94.5-2.48,1.74-5,4.53s-5.59,6.67-8.74,10.66l-3.17,4c1.39-.22,2.65-.4,3.7-.55C24,115.14,27,114.72,30.06,114.43Z"/><path class="cls-1" d="M58.11,115.21a.8.8,0,0,1,1.38.2.83.83,0,0,1-.13.8c-1.22,1.53-5.56,6.58-10.19,7.12-2.33.27-5.23-.41-5.79-5.23C42.84,113.45,46.8,105,48,102.57a61.38,61.38,0,0,1,4.13-7.15c2-2.92,3-3.37,3.55-3.44a1.29,1.29,0,0,1,1.46,1.21c.45,3.87-2.38,9.65-4.11,12.75-2.57,4.61-5.74,8.84-8.07,10.77l-.05,0a7.46,7.46,0,0,0,0,1.16c.43,3.76,2.37,4,4,3.84,4.13-.49,8.33-5.53,9.13-6.54Zm-12.81-1a48.16,48.16,0,0,0,6.36-9c2.65-4.75,4.07-8.87,4-11.41-1,.79-3.39,4-6.25,9.74A49.92,49.92,0,0,0,45.3,114.21Z"/><path class="cls-1" d="M72.79,113.5a.8.8,0,0,1,1.38.2.83.83,0,0,1-.13.8c-1.22,1.53-5.56,6.58-10.19,7.12-2.34.28-5.23-.41-5.79-5.23-.54-4.65,3.42-13.06,4.65-15.53a60,60,0,0,1,4.13-7.15c2-2.91,3-3.37,3.55-3.44a1.29,1.29,0,0,1,1.46,1.21c.45,3.87-2.38,9.65-4.11,12.75-2.57,4.61-5.74,8.84-8.07,10.77l-.06,0a7.37,7.37,0,0,0,0,1.15c.44,3.76,2.38,4,4,3.84,4.13-.48,8.33-5.53,9.13-6.54ZM60,112.5a48.63,48.63,0,0,0,6.36-9c2.65-4.75,4.07-8.87,4-11.41-1,.79-3.4,3.95-6.25,9.74A49.39,49.39,0,0,0,60,112.5Z"/><path class="cls-1" d="M111.33,108.9a.8.8,0,0,1,1,1.25,58.46,58.46,0,0,1-6.14,4.09c-3.75,2.17-6.84,3.41-9.19,3.69a6.83,6.83,0,0,1-6-2A8.73,8.73,0,0,1,88.83,111c-.31-2.59,0-8.11,5.27-15.92,2.78-4.09,6.84-8.38,9.21-8.66a2,2,0,0,1,1.91.83c.79,1.12.69,3.19-.23,5a.8.8,0,0,1-1.44-.71,4.11,4.11,0,0,0,.37-3.42.38.38,0,0,0-.42-.16c-1.22.14-4.69,3-8.07,8-3.66,5.39-5.49,10.8-5,14.84.69,5.88,5.45,5.63,6.4,5.52,5-.59,13.13-6.33,14.52-7.44Z"/><path class="cls-1" d="M136.1,107.31a47.45,47.45,0,0,0-15.27,7.58,71.79,71.79,0,0,1-3.07,8.3c-1.54,3.47-5.49,11.6-9,12a1.75,1.75,0,0,1-1.93-1.72c-.22-1.89,1.16-7.07,5.8-12.89a40.07,40.07,0,0,1,6.76-6.64,20.25,20.25,0,0,0,1-6.77,4.89,4.89,0,0,0-.09-.53c-.81.44-2.8,3-3.89,4.39-2.19,2.8-3,3.78-3.84,3.88s-1.51-.44-1.67-1.8c-.39-3.38,1.43-6.42,2.41-8.06a.8.8,0,0,1,1.39,0,.81.81,0,0,1,0,.81c-1.22,2-2.49,4.43-2.19,7.06a1.57,1.57,0,0,0,0,.23,31.77,31.77,0,0,0,2.61-3.12c2.6-3.32,4-4.9,5.12-5,1.47-.17,1.65,1.39,1.72,2a17.31,17.31,0,0,1-.6,5.47,49.48,49.48,0,0,1,14.17-6.67.79.79,0,0,1,1,.54A.79.79,0,0,1,136.1,107.31Zm-19.81,15.23c.88-2,1.64-3.94,2.28-5.81a38,38,0,0,0-4.64,4.85c-4.46,5.59-5.62,10.38-5.46,11.71,0,.33.13.32.16.31.39,0,1.51-.46,3.47-3.28a48.33,48.33,0,0,0,4.19-7.78Z"/><path class="cls-1" d="M156.9,105c-2.8,2.37-11.19,7.16-17.21,7.86-3,.35-4.91-.83-5.18-3.16a7.87,7.87,0,0,1,1.68-5.16c1.21-1.71,2.65-2.81,3.86-2.95a1.76,1.76,0,0,1,1.73.69,3.56,3.56,0,0,1,.1,3.1.82.82,0,0,1-.65.47.78.78,0,0,1-.73-.34.79.79,0,0,1-.07-.8,2.19,2.19,0,0,0,.06-1.49s-.12-.06-.25,0a5.14,5.14,0,0,0-2.74,2.28,6.38,6.38,0,0,0-1.4,4.06c.2,1.76,2,1.93,3.41,1.76,5.7-.67,13.68-5.24,16.36-7.5a.8.8,0,1,1,1,1.22Z"/><path class="cls-1" d="M170.4,102.14a.81.81,0,0,1,.75-.31.84.84,0,0,1,.63.51.81.81,0,0,1-.13.79c-1.22,1.54-5.56,6.59-10.19,7.13-2.34.27-5.23-.42-5.79-5.24-.54-4.65,3.42-13.06,4.65-15.53a59,59,0,0,1,4.13-7.14c2-2.92,3-3.37,3.55-3.44a1.29,1.29,0,0,1,1.46,1.21c.45,3.86-2.38,9.64-4.11,12.74-2.57,4.61-5.74,8.84-8.07,10.78l-.06,0a6.43,6.43,0,0,0,0,1.16c.43,3.76,2.37,4,4,3.83,4.13-.48,8.33-5.53,9.13-6.53Zm-12.81-1A48.27,48.27,0,0,0,164,92.08c2.65-4.74,4.07-8.86,4-11.4-1,.78-3.4,3.95-6.25,9.74A49.53,49.53,0,0,0,157.59,101.14Z"/><path class="cls-1" d="M188,100.79a.79.79,0,0,1-.27.55c-2.18,2-8.48,6.4-13,6.93a3.63,3.63,0,0,1-3.69-1.42c-1.54-2.23-.58-6.35.26-8a.79.79,0,0,1,1.38-.07.81.81,0,0,1,0,.81c-.72,1.37-1.39,4.82-.36,6.31a2.12,2.12,0,0,0,2.19.74c4.21-.49,10.35-5,12.11-6.53a.8.8,0,0,1,1.13.06A.82.82,0,0,1,188,100.79ZM171.94,96.9a.79.79,0,1,1,.87.69A.79.79,0,0,1,171.94,96.9Z"/><path class="cls-1" d="M207.41,99.19A76.41,76.41,0,0,0,194,104.43c-.49.26-.93.51-1.33.74a3.66,3.66,0,0,1,.16.73,3.2,3.2,0,0,1-1.15,2.68,4.43,4.43,0,0,1-2.36,1.19,1.46,1.46,0,0,1-1.79-1.25c-.13-1.16.85-2.44,3-3.89a10.32,10.32,0,0,0-1.61-1.36c-1.07-.79-2.18-1.6-2.32-2.86a4.55,4.55,0,0,1,1.83-3.89,6.82,6.82,0,0,1,3.3-1.69,2.6,2.6,0,0,1,2.41.87,3.49,3.49,0,0,1,.32,3.35.79.79,0,0,1-.6.53.8.8,0,0,1-.76-.25.79.79,0,0,1-.15-.79,2,2,0,0,0-.06-1.83,1,1,0,0,0-1-.29c-1.16.14-3.95,2-3.74,3.81.07.56.86,1.14,1.69,1.75a10.91,10.91,0,0,1,2,1.79l1.36-.75A78.13,78.13,0,0,1,207,97.66a.8.8,0,0,1,1,.54A.81.81,0,0,1,207.41,99.19Zm-16.2,6.89c-1.62,1.13-2,1.82-2.1,2.1a2.81,2.81,0,0,0,1.33-.67,1.79,1.79,0,0,0,.77-1.42Z"/><path class="cls-1" d="M222.6,97.09a38.38,38.38,0,0,1-4.53,5.74c-3.08,3.27-5.78,5.06-8,5.32s-4-1.28-4.26-3.73c-.53-4.51,2.08-12,4.35-17.48.39-.92.78-1.84,1.17-2.72-2.92.48-5.61,1-6.34,1.21a.8.8,0,0,1-.78-.17.77.77,0,0,1-.24-.77.81.81,0,0,1,.54-.59c.91-.29,4.25-.89,7.62-1.44a66.67,66.67,0,0,1,4-7.81.79.79,0,0,1,.74-.32.8.8,0,0,1,.64.48.82.82,0,0,1-.1.8A65.13,65.13,0,0,0,214,82.16c2.82-.43,5.33-.76,6-.75a.8.8,0,0,1,.78.82A.79.79,0,0,1,220,83c-.67,0-3.65.4-6.79.9-.52,1.15-1.06,2.38-1.58,3.65-3.16,7.61-4.63,13.37-4.24,16.67.22,1.91,1.48,2.45,2.49,2.33,1.83-.21,4.27-1.88,7-4.83a36.94,36.94,0,0,0,4.27-5.39.78.78,0,0,1,.48-.39.77.77,0,0,1,.61.06A.8.8,0,0,1,222.6,97.09Z"/><path class="cls-1" d="M276.92,90.69c-.26.63-3.45,3.1-4.52,3.88-3.14,2.29-5.6,3.55-7.32,3.75-2.73.32-3.9-1.27-4.07-2.73A18.24,18.24,0,0,1,262,89c-3.05.32-6.92.81-10.85,1.48-3.32,4.09-6.49,7.74-9,9.78a.8.8,0,0,1-1-1.25,61.6,61.6,0,0,0,7.61-8.1,79.08,79.08,0,0,0-10.52,2.58.78.78,0,0,1-.79-.15A.8.8,0,0,1,237.7,92a90.22,90.22,0,0,1,12.58-3c1.41-1.75,2.85-3.57,4.28-5.37,7.72-9.78,12.62-15.74,15.62-16.09a1,1,0,0,1,.9.38c.39.51.28,1.27-.45,3.25-.51,1.37-1.26,3.16-2.14,5.22-1.39,3.3-3.06,7.23-4.27,10.81a15,15,0,0,1,4.4,0,.8.8,0,0,1-.61,1.47,25.78,25.78,0,0,0-4.32.17,18.14,18.14,0,0,0-1.09,6.56c.07.59.46,1.54,2.29,1.32,3.21-.37,9.91-6,10.62-6.77a.79.79,0,0,1,1-.31A.79.79,0,0,1,276.92,90.69ZM262.5,87.36c1.24-3.83,3-8.06,4.52-11.58,1-2.38,2.12-5,2.52-6.35a22.45,22.45,0,0,0-5,4.53c-2.62,2.91-5.6,6.68-8.75,10.67l-3.16,4c1.39-.22,2.65-.4,3.69-.54C256.4,88.07,259.44,87.66,262.5,87.36Z"/><path class="cls-1" d="M295.68,88.9c-6.93,2.47-10.32.95-12.14.13a3.47,3.47,0,0,0-1.05-.38c-1.32.16-4,2.94-6.51,7.95a.82.82,0,0,1-1.55-.32A22.17,22.17,0,0,1,275.51,91a37.43,37.43,0,0,1,2.14-5.66.8.8,0,1,1,1.41.75,36.32,36.32,0,0,0-2.13,5.75c1.71-2.52,3.66-4.54,5.38-4.74a3.54,3.54,0,0,1,1.88.5c1.73.78,4.63,2.08,10.95-.17a.83.83,0,0,1,.62,0,.82.82,0,0,1,.41.45A.8.8,0,0,1,295.68,88.9Z"/><path class="cls-1" d="M316.25,86.39c-2.51,2.13-10.15,7-16.5,7.77A4.4,4.4,0,0,1,294.46,90a6.29,6.29,0,0,1,1.35-4.36,5.26,5.26,0,0,1,3.29-2.29A1.74,1.74,0,0,1,301,85a4.27,4.27,0,0,1-2,3.69,3.33,3.33,0,0,1-3,.37,3.22,3.22,0,0,0,0,.76,2.85,2.85,0,0,0,3.53,2.73c5.65-.66,13-5.14,15.65-7.4a.81.81,0,0,1,.58-.18.8.8,0,0,1,.54.28A.78.78,0,0,1,316.25,86.39Zm-19.73,1.16a1.78,1.78,0,0,0,1.66-.18,2.77,2.77,0,0,0,1.25-2.17.58.58,0,0,0-.11-.24h0a3.86,3.86,0,0,0-2.2,1.65A6.25,6.25,0,0,0,296.52,87.55Z"/><path class="cls-1" d="M354.28,77.06c.33,2.78-.91,5.46-3.57,7.75-4,3.5-10.69,5.32-15.12,4.13A.8.8,0,0,1,336,87.4c4,1.06,10-.61,13.67-3.8,1.56-1.35,3.35-3.54,3-6.35a3.94,3.94,0,0,0-1.64-2.8c-1.61-1.15-4.25-1.41-7.42-.73l-.26.08c-.34.12-1,.35-1.35-.24s.16-1.1.33-1.27a43.16,43.16,0,0,0,6.29-7.51c1.67-2.6,2-3.92,2-4.33h0c-2.15.25-6,5.54-8.57,10a92.17,92.17,0,0,0-8.52,19.36.81.81,0,0,1-1.56-.4c1.71-7,4.62-15.44,6.2-19.84,1-2.71,2-5.39,2.81-7.52.36-.92.67-1.68.9-2.22.38-.88.55-1.28,1.13-1.28a.83.83,0,0,1,.72.46.8.8,0,0,1-.11.85c-.39.75-2.78,6.76-5.28,14,.75-1.45,1.53-2.87,2.33-4.24,2.27-3.86,6.55-10.4,9.77-10.77a1.47,1.47,0,0,1,1.64.81c.5,1.06-.17,3-2,5.89a43.23,43.23,0,0,1-5,6.29c2.88-.35,5.26.09,6.94,1.29A5.48,5.48,0,0,1,354.28,77.06ZM343,60.15h0Zm.15,0,.14,0Z"/><path class="cls-1" d="M379.67,79c-2.51,2.12-10.15,7-16.5,7.76a4.4,4.4,0,0,1-5.29-4.13,6.29,6.29,0,0,1,1.35-4.36A5.34,5.34,0,0,1,362.52,76a1.75,1.75,0,0,1,1.91,1.64,4.29,4.29,0,0,1-2,3.7,3.33,3.33,0,0,1-3,.36,3.31,3.31,0,0,0,0,.77A2.85,2.85,0,0,0,363,85.18c5.65-.66,13-5.14,15.65-7.39a.77.77,0,0,1,.58-.19.8.8,0,0,1,.45,1.41Zm-19.73,1.15A1.75,1.75,0,0,0,361.6,80a2.77,2.77,0,0,0,1.25-2.17.53.53,0,0,0-.11-.24h0a3.9,3.9,0,0,0-2.2,1.65A7.48,7.48,0,0,0,359.94,80.16Z"/><path class="cls-1" d="M401.29,76.06a.77.77,0,0,1-.23.57,42,42,0,0,1-4.32,3.78c-2.77,2.11-5.18,3.29-7.15,3.52-2.15.25-3.75-.23-4.76-1.44a5,5,0,0,1-1-2.77c-.27.4-.56.82-.85,1.21-2,2.76-3.05,3.16-3.63,3.23-1.19.14-1.87-.92-2-2-.33-2.8,2.11-7.11,4.81-7.42a2.94,2.94,0,0,1,2.24.77l.11.11a.8.8,0,0,1,.95,0,.81.81,0,0,1,.32.9c-.39,1.24-.75,3.68.31,5,.64.76,1.76,1.06,3.34.88,4.13-.49,9.88-6.2,10.53-6.85a.79.79,0,0,1,.56-.23.77.77,0,0,1,.57.23A.79.79,0,0,1,401.29,76.06Zm-17.71,1a1.58,1.58,0,0,0-1.26-.67c-1.53.17-3.68,3.36-3.42,5.65.05.41.19.55.22.57s.71-.13,2.54-2.61Q382.7,78.54,383.58,77Z"/><path class="cls-1" d="M423.68,73.9l-.06,0c-5,4-9.52,6.38-12.73,6.75a3.7,3.7,0,0,1-3.73-1.37,4.67,4.67,0,0,1-.71-2.94c-1.91,2.81-3.62,4.89-5.06,5.05a1.7,1.7,0,0,1-1.91-1.36,9.88,9.88,0,0,1,.4-4.52,18.28,18.28,0,0,1,.68-2c.39-.91.64-1.18.92-1.31a.8.8,0,0,1,.84,1.34,13.39,13.39,0,0,0-1.12,3.27c-.48,2.17-.19,2.92-.08,3h.09c.12,0,.82-.19,2.52-2.41,1.11-1.44,2.25-3.23,3.09-4.53.51-.81.92-1.45,1.19-1.8a.82.82,0,0,1,1.36.9c-1.37,2.8-1.71,5.26-.9,6.4a2.24,2.24,0,0,0,2.24.7c2.91-.34,7.14-2.61,11.92-6.41l.05,0a.75.75,0,0,1,.59-.17.78.78,0,0,1,.54.3A.81.81,0,0,1,423.68,73.9Z"/><path class="cls-1" d="M438.63,71.93a37.17,37.17,0,0,1-4.53,5.74c-3.08,3.27-5.78,5.07-8,5.33s-4-1.28-4.26-3.74c-.52-4.51,2.08-12,4.35-17.47q.58-1.4,1.17-2.73c-2.92.48-5.61,1-6.34,1.21a.8.8,0,0,1-1-.93.79.79,0,0,1,.54-.59c.91-.29,4.25-.9,7.62-1.44a66.26,66.26,0,0,1,4-7.82.8.8,0,0,1,1.38.17.8.8,0,0,1-.1.79A64.61,64.61,0,0,0,430,57a59.59,59.59,0,0,1,6-.75.8.8,0,0,1,0,1.59c-.67,0-3.65.41-6.79.9-.52,1.16-1.06,2.38-1.58,3.65C424.48,70,423,75.78,423.4,79.08c.22,1.91,1.48,2.45,2.49,2.33,1.83-.21,4.27-1.89,7.05-4.83a37.93,37.93,0,0,0,4.28-5.4.74.74,0,0,1,.47-.39.8.8,0,0,1,.94,1.14Z"/><path class="cls-1" d="M454.87,69.72a.78.78,0,0,1-.26.55c-2.19,2-8.49,6.4-13,6.93a3.63,3.63,0,0,1-3.69-1.42c-1.54-2.24-.57-6.35.26-8a.81.81,0,0,1,.67-.44.83.83,0,0,1,.72.37.82.82,0,0,1,0,.8c-.71,1.38-1.39,4.82-.36,6.32a2.13,2.13,0,0,0,2.19.74c4.21-.49,10.35-5,12.11-6.53a.79.79,0,0,1,1.13.06A.82.82,0,0,1,454.87,69.72Zm-16.09-3.89a.79.79,0,1,1,.87.69A.79.79,0,0,1,438.78,65.83Z"/><path class="cls-1" d="M470.94,68a.84.84,0,0,1-.35.51,36.94,36.94,0,0,1-7.74,3.17A36.5,36.5,0,0,1,457,73c-.49,0-1,.09-1.44.1a16.64,16.64,0,0,1,.84,5.9A31.66,31.66,0,0,1,454.91,88c-.74,2.18-1.57,3.3-2.54,3.41-1.48.17-1.71-1.78-1.81-2.62-.31-2.69-.43-10.71,5.19-26.87a111.61,111.61,0,0,1,4.94-12.08c2.67-5.43,3.75-5.55,4.2-5.6a1.26,1.26,0,0,1,1.32.71c.24.48.47,1.46-.33,4.43a53.9,53.9,0,0,1-2.51,6.89c-2.54,5.85-5.77,11.21-8.63,14.31l-.05,0c-.06.21-.11.43-.17.64l.1.14a23.2,23.2,0,0,0,7.76-1.32,35.89,35.89,0,0,0,7.35-3,.8.8,0,0,1,1.21.84Zm-17,5.49c-1.57,6.34-2.22,11.63-1.81,15.18a6.27,6.27,0,0,0,.2,1c.47-.55,1.31-2.37,1.89-5.55C454.91,80.47,455,76,454,73.46Zm1.94-6.86a63,63,0,0,0,6-10.93c2.35-5.39,3-8.5,2.94-9.59a20.53,20.53,0,0,0-3,5A112.62,112.62,0,0,0,457.1,63C456.67,64.19,456.27,65.41,455.9,66.6Z"/><path class="cls-1" d="M493.35,65.78l-.05,0c-5,4-9.53,6.37-12.73,6.74a3.68,3.68,0,0,1-3.73-1.36,4.64,4.64,0,0,1-.71-2.95c-1.91,2.82-3.62,4.89-5.06,5.06A1.7,1.7,0,0,1,469.16,72a9.86,9.86,0,0,1,.4-4.52,15.32,15.32,0,0,1,.68-2c.39-.92.64-1.18.92-1.32a.81.81,0,0,1,1,.3.79.79,0,0,1-.18,1,13.09,13.09,0,0,0-1.12,3.26c-.48,2.17-.19,2.93-.09,3h.1c.12,0,.82-.2,2.52-2.42,1.11-1.44,2.25-3.22,3.09-4.53.51-.8.92-1.44,1.19-1.79a.81.81,0,0,1,1.09-.18.83.83,0,0,1,.27,1.08c-1.37,2.8-1.71,5.25-.91,6.39a2.26,2.26,0,0,0,2.25.71c2.91-.34,7.14-2.62,11.91-6.41l.06,0a.79.79,0,0,1,1.12.13A.79.79,0,0,1,493.35,65.78Z"/><path class="cls-1" d="M506.88,63a.81.81,0,0,1,.75-.31.84.84,0,0,1,.63.51.81.81,0,0,1-.13.79c-1.22,1.54-5.56,6.59-10.19,7.13-2.34.27-5.23-.42-5.79-5.24-.54-4.65,3.42-13.06,4.65-15.53a59,59,0,0,1,4.13-7.14c2-2.92,2.95-3.37,3.55-3.44a1.29,1.29,0,0,1,1.46,1.21c.45,3.86-2.38,9.64-4.11,12.74-2.57,4.61-5.74,8.84-8.07,10.78l-.06,0a7.49,7.49,0,0,0,0,1.16c.44,3.76,2.38,4,4,3.83,4.13-.48,8.33-5.53,9.13-6.53Zm-12.81-1a49.07,49.07,0,0,0,6.36-9.06c2.65-4.74,4.07-8.86,3.95-11.4-1,.78-3.4,4-6.25,9.74A49,49,0,0,0,494.07,62Z"/></g></g></svg>