<svg xmlns="http://www.w3.org/2000/svg" viewBox="0 0 508.56 135.8"><defs><style>.cls-1{fill:red;}</style></defs><g id="Capa_2" data-name="Capa 2"><g id="Capa_1-2" data-name="Capa 1"><path d="M22.26,1.39a2.33,2.33,0,0,0,2.06,0,72.42,72.42,0,0,0,7.89,1,5.59,5.59,0,0,0,5.21,1.11c.32.31.32.63.63,1.1.32-.47.64-.47,1.42-.47.32,0,.64.47,1.11.79.63.31,1.58.31,2.21.63.32,1.42,2.05,1.42,3.16,2.84a2.8,2.8,0,0,0,1.74,1.58c1.1,1.42,2.68,2.05,3.31,3.16,1.11,2.21,2.53,4.42,3.16,6.79a6.07,6.07,0,0,0,1.42,3.95c-.32.47-.32.47-.32.78a38,38,0,0,1,.64,11.06c-.32,1.42.79,2.84,0,4.1a6.09,6.09,0,0,1-.32,2.53c-.32,2.05.32,4.1-.95,5.68a6.5,6.5,0,0,0-1.1,3.64c-.32.31-1.11.63-1.42.94v.79a7.16,7.16,0,0,0-2.53,3.95,8.26,8.26,0,0,1,1.11,1.1c1.1,1.11,1.42,2.37,2.52,3.48A19.57,19.57,0,0,0,58,66.61c.31.78.63,1.73.95,2.52.79,1.58.79,3.32,1.1,5.05a15.92,15.92,0,0,0,.32,3.64c0,1.42.31,3.15.31,4.89-.31,1.9,0,3.79-.31,5.53s0,3.47-.63,5.05c0,.63-.48,1.42-.48,1.74s-.31.31-.31.79c-.32,1.26-1.43,2.37-1.43,4.1-.78,1-1.1,2.37-1.89,3.32a26.1,26.1,0,0,1-2.84,4c-1.42,1.26-2.05,3-3.63,3.94-.32,1.11-1.74,1.42-2.85,2.21-.63,1-2,1-2.84,1.42a7.63,7.63,0,0,1-2.21,1.58c-.63,0-1.1.63-1.74,1-1.42,0-2.84.79-4.26.32a7,7,0,0,1-5.05,0,10.45,10.45,0,0,1-5.05.47l-.79.32a1.15,1.15,0,0,1-.95-.32c-1.11.63-1.74-.47-2.84,0a4.71,4.71,0,0,1-3,.32H11.84c-2.21-.79-3.94,1.1-5.68,1.1L5.68,119a4.57,4.57,0,0,0-2.84-.32c-1.1-.31-1.42-1.42-1.73-2.37A4.16,4.16,0,0,0,1.42,113v-4.27c-.31-.31-.31-.94-.79-1.26,0-.63.48-1.42.48-2a2.4,2.4,0,0,1,0-2.53c0-1.1-1.11-2-.79-3.63.31-3.16-.64-6.79.31-10.11a4.39,4.39,0,0,1-.31-2.05c.31-1.42-.32-3,.31-4.42-.31-1.42,0-2.68-.31-4.1v-.79A1.21,1.21,0,0,0,0,77a11.3,11.3,0,0,0,.32-4.58c.31-2.21-.64-4.74,0-7a19.51,19.51,0,0,0,0-4.26c0-1.74.79-3.16,0-4.58,1.1-1.42,0-3.32.31-5,.48-1.11,0-2.53,0-4,0-1.9.79-3.63.48-5.84,0-.64,0-1.43.31-1.74.32-1.58-.79-2.21-.31-3.63a1.1,1.1,0,0,1-.48-.79,7.65,7.65,0,0,0,.48-4.27,3.62,3.62,0,0,1,0-3.15c0-1.11-.79-2.53-.48-3.95.48-1.58,0-3,0-4.74.48-1.42-.31-2.84,0-4,.79-1.1,0-1.73,0-2.52C.32,12,1.11,11,.32,9.92A63.76,63.76,0,0,0,0,2a4.73,4.73,0,0,1,2.05.31L2.37,2A4,4,0,0,0,5.05,2c2.53.78,4.9-1.27,7.58,0L13,1.71a14.52,14.52,0,0,0,3.95.63l.63-.63c1.1.63,2.21.32,3.31.32C21.63,1.71,22,1.39,22.26,1.39Z"/><path d="M65.21,1.39c1.1.32,1.42,1.42,2.53,1.74s2.52-.32,3.15.32h.63c.79,0,1.11.47,1.9.47a5.2,5.2,0,0,0,2.37-.47,3.38,3.38,0,0,0,2.84-.32h1.11c1.42-.63,3.15-.32,4.57-.32a2.83,2.83,0,0,0,2.37-1.1c.32.47.79.47.79.79.32,0,.32.31.63.63.79-.32.79.79,1.11,1.42-.32,1.11-1.74,1.74-1.74,3.16s-.47,2.84,0,4.26c.32,2.06,0,4.27.63,6.32a14.56,14.56,0,0,0-.31,5.21v1.1a12.65,12.65,0,0,0,.31,3.48,5.31,5.31,0,0,1,0,3.16c0,1.89.79,3.63.32,5.36v6.32a21.91,21.91,0,0,0,0,4.58c-.32,1.74.47,3.47-.32,5.21-.31,1.11.32,2.21.32,2.84.47,1.11,0,2.21,0,3.16a27.54,27.54,0,0,0,.79,4.58c.31,2.21,0,4.26.31,6.32,0,1.73.79,3.15.32,5a12.72,12.72,0,0,0,.47,4.1,9.72,9.72,0,0,0-.47,3.64c0,.94-.32,2.36-.32,3.47a41.54,41.54,0,0,1,0,6.31,43,43,0,0,0,.32,6.64,15.17,15.17,0,0,0-.32,3.63c0,1.74-.31,3.47.32,5.21v5.21A4.33,4.33,0,0,1,91,115.71c0,.79-.32,1.42-.32,2.21,0,1-1.42,1.27-2.53,1.74-1.1.31-1.73-.79-2.84-.79-1.42,0-2.84-.32-3.79,0-.79,0-1.1,0-1.42.32-.79-.32-1.42,0-2,0a12.13,12.13,0,0,1-2.84-1H73c-.64,0-1.74.31-2.37.31a4.5,4.5,0,0,0-1.74-.31c-1.1,0-2.21.31-2.84-.32-.79,0-1.74.32-1.74-.47-.47-1-.47-1.74-1.1-2.84.31-.64.63-1,1.1-1.74a6,6,0,0,0,.32-5.21,3.18,3.18,0,0,1,.31-1.74,5.47,5.47,0,0,0-.63-3.16c.32-1.42-.47-2.52,0-3.94V98.5c0-2,.63-3.79.32-6V90.76c-1.11-2.05,0-4.26-.32-6.31a21.85,21.85,0,0,0,0-4.58c.32-4,.95-8.05.63-12.32.79-.79,0-2,0-2.84,0-.32.32-.63.32-1.1-.32-1.27.47-2.37.47-3.48-.47-1.1,0-2.37-.47-3.47a3.4,3.4,0,0,0,.79-.79,8.54,8.54,0,0,0-.79-2.37,2.4,2.4,0,0,0,0-3.16c.47-1.42-.32-2.84-.32-4.26a9.36,9.36,0,0,1-.63-4.26c0-1.43-.47-2.85-.47-4.11-.63-1.89-.32-3.63-.32-5.68a4.37,4.37,0,0,1,.79-2.85c-1.1-1.73-.47-4.26,0-6.31.32-1.42-.79-2.84-.47-4.27-.63-1.73-.32-3.15-.32-4.89a13.93,13.93,0,0,1,.32-3.47l.47.31a6,6,0,0,1-.47-2.84,9.11,9.11,0,0,0-1.74-1.42,1.69,1.69,0,0,1,0-1.74,2.67,2.67,0,0,1,1.11-2.37C63.47,1.39,64.58,1.39,65.21,1.39Z"/><path d="M125.84,2c.32-.79.63-.48,1.42-.48H129a12.89,12.89,0,0,0,2.05,1.11h.63c1.42.63,3.32.63,4.58,1.73a19.83,19.83,0,0,1,2.84,1.74c2.21.79,2.84,3.63,5.37,4.26a1.12,1.12,0,0,1,.32.64A7.75,7.75,0,0,1,148.26,15c2.84,1.74,2.84,5.21,3.47,8.06a29.46,29.46,0,0,0,.79,5.68,17.94,17.94,0,0,0,.32,5.68c-.32,1,.32,2.37.32,3.48v2.05c-.95,1.42,0,2.84,0,4.26,0,.64.79,1.74,0,2.37A2.64,2.64,0,0,1,151.42,48h-.63c-1.42-.31-2.53-.94-3.95-.63a9.08,9.08,0,0,0-2.84.32h-.32c-.63.79-2.05,0-2.84.31-1,.79-2.37-.31-3.47.79H135c-.48,0-.48-.31-.79-.31a1.13,1.13,0,0,1-.63.31,14.46,14.46,0,0,0-3.64-.31c-1.42.94-2-.79-2.68-1.42.63-2.21,0-4.27.63-6a2.33,2.33,0,0,0,.32-1.42c.31-1.11.31-2.53,1.1-3.48V34.71c.63-1.11,0-2.21,0-3.16-.31-.47-.79-.79-.79-1.1,0-1.42-.94-2.06-1.73-3.16-1-.32-1.74-1.42-3.16-1.42-.63.63-1.42.31-2,.31a14.39,14.39,0,0,0-2.21,2.21c-.64,2.06-.32,4.11-1,6.32-.32.95,0,2.37-.32,3.79-.47,2.21,0,4.26-.47,6a12.47,12.47,0,0,0,0,3.47c-.32,1.42,0,3.16,0,5.06a57.53,57.53,0,0,1-.63,7.26,26.78,26.78,0,0,1-.32,5.05,32,32,0,0,0,0,9.48c0,2.36.32,5.21.32,7.73v.32a2.39,2.39,0,0,0,.31,1.42c-.31,1.42.32,3.16.32,4.58a13.59,13.59,0,0,0,.79,3.47,9.3,9.3,0,0,1,1,1.74c.79.47,1.89.79,2.52,1.11a1.64,1.64,0,0,1,2,0,2.7,2.7,0,0,0,2.22-1.43c1.42-1.1,0-2.84.63-4.26.47-2,.47-4.58.79-6.63V81.45c.94-2.53-.32-4.9-.32-7.42,1-.63,2-1.74,2-2.85a3.67,3.67,0,0,1,1.42-.94,2.35,2.35,0,0,1,2.37.94c1.42-.63,2.84,0,4.27,0,1.73,0,3.15-.31,4.89-.31a1.69,1.69,0,0,1,1.74,0,2.09,2.09,0,0,1,1.42-.32s.47,0,.47.32c.63-.32,1,0,1.74.31.63,0,1-.31,1.74-.63h2a7.23,7.23,0,0,1,1.1,1.11A15.39,15.39,0,0,1,154,74a17.77,17.77,0,0,0-.79,6.31c0,1.11.47,1.9,0,2.84.47,2.53-.95,4.9-.32,7.43,0,1.73-.32,3.15-.32,4.89-.31.32-.31.79-.79,1.11.48,0,.48.31.48.31-.79,2-.79,4.27-2.21,6v2a22.83,22.83,0,0,0-1.74,3.16c-.63.79-1.42,1.42-1.42,2.21-.32.32-.63.32-1,.63a1.1,1.1,0,0,0-.47.79c-.32,0-.32.32-.63.32-.32.32-.79.32-1.42.32v1.1h-.64c-.79.32-1.1,1-1.89,1a11.42,11.42,0,0,1-2.68,1.42c-.48.47-.79.47-1.11.79a6.44,6.44,0,0,1-3.16,1.74c-1.1-.32-1.73.31-2.84.31a6.48,6.48,0,0,1-2.53.32,3.49,3.49,0,0,1-3.47-.32c0,.32-.32.79-.63.79-.79,0-1.74-.47-2.84,0-1.42.32-2.85,0-4,.32a4,4,0,0,0-1.74-.32,10.92,10.92,0,0,1-2.84-.79c-.32,0-.63-.31-1-.63a9.2,9.2,0,0,1-4.89-2.84c-.79-.79-1.11-1.74-1.9-2-.63-.48-.94-1.11-1.42-1.43a5.89,5.89,0,0,1-2.68-2.21,7.1,7.1,0,0,0-1.9-2.36,3.28,3.28,0,0,0-.63-1.74c-.31-1.11-1.42-1.9-1.42-3.16a21.93,21.93,0,0,1-1.74-4,.68.68,0,0,0-.63-.63c.63-2.52-.47-5,0-7.42.32-1.74-1.1-3.63-.79-5.68-.31-1.74.32-3.48-.31-5.21.63-1.11,0-2.22-.32-3.16a3.11,3.11,0,0,0,.32-1.74,4.63,4.63,0,0,1-.32-1.89,4,4,0,0,0,.32-1.74,4.73,4.73,0,0,0,.31-2.05c.32-1.43-.63-2.85.32-4.27,0-1.1,0-1.73-.63-2.37.31-1.42-.32-2.84,0-3.94A5.05,5.05,0,0,0,93,54.76V54a2.31,2.31,0,0,1,0-2,75.85,75.85,0,0,1,0-8.53c.47-.31.79-.63.79-.94V41a15.06,15.06,0,0,0,.63-4,18.09,18.09,0,0,1,.79-8.69c.31-1.1.31-2.52.94-3.63a39.59,39.59,0,0,1,.79-5.52c.32-1.11,1.43-1.74,2.06-2.85.31-1.1.31-2.05,1.42-2.84.79-1.42,1.1-3.16,2.52-4.26a15.88,15.88,0,0,1,1.43-2,1.14,1.14,0,0,0,.94-.32c.79-.32,1.11-.79,1.9-1.11a12,12,0,0,1,3.16-1.73c.31-.32.63-.79.94-.79.32-.32.79-.32,1.11-.63h2c1.42-.32,2.84-1.42,4.26-.63,1.43.31,3.16-.48,4.58-.79A5.36,5.36,0,0,0,125.84,2Z"/><path d="M157.89,1.39c1.1.32,1.42,1.42,2.53,1.74s2.52-.32,3.15.32h.63c.79,0,1.11.47,1.9.47a5.2,5.2,0,0,0,2.37-.47,3.38,3.38,0,0,0,2.84-.32h1.11c1.42-.63,3.15-.32,4.57-.32a2.83,2.83,0,0,0,2.37-1.1c.32.47.79.47.79.79.32,0,.32.31.63.63.79-.32.79.79,1.11,1.42-.32,1.11-1.74,1.74-1.74,3.16s-.47,2.84,0,4.26c.32,2.06,0,4.27.63,6.32a14.56,14.56,0,0,0-.31,5.21v1.1a12.65,12.65,0,0,0,.31,3.48,5.31,5.31,0,0,1,0,3.16c0,1.89.79,3.63.32,5.36v6.32a21.91,21.91,0,0,0,0,4.58c-.32,1.74.47,3.47-.32,5.21-.31,1.11.32,2.21.32,2.84.47,1.11,0,2.21,0,3.16a27.54,27.54,0,0,0,.79,4.58c.31,2.21,0,4.26.31,6.32,0,1.73.79,3.15.32,5a12.72,12.72,0,0,0,.47,4.1,9.72,9.72,0,0,0-.47,3.64c0,.94-.32,2.36-.32,3.47a41.54,41.54,0,0,1,0,6.31,43,43,0,0,0,.32,6.64,15.17,15.17,0,0,0-.32,3.63c0,1.74-.31,3.47.32,5.21v5.21a4.33,4.33,0,0,1,1.11,2.84c0,.79-.32,1.42-.32,2.21,0,1-1.42,1.27-2.53,1.74-1.1.31-1.73-.79-2.84-.79-1.42,0-2.84-.32-3.79,0-.79,0-1.1,0-1.42.32-.79-.32-1.42,0-2,0a12.13,12.13,0,0,1-2.84-1h-2.22c-.63,0-1.73.31-2.36.31a4.5,4.5,0,0,0-1.74-.31c-1.1,0-2.21.31-2.84-.32-.79,0-1.74.32-1.74-.47-.47-1-.47-1.74-1.1-2.84.31-.64.63-1,1.1-1.74a6,6,0,0,0,.32-5.21,3.18,3.18,0,0,1,.31-1.74,5.47,5.47,0,0,0-.63-3.16c.32-1.42-.47-2.52,0-3.94V98.5c0-2,.63-3.79.32-6V90.76c-1.11-2.05,0-4.26-.32-6.31a21.85,21.85,0,0,0,0-4.58c.32-4,.95-8.05.63-12.32.79-.79,0-2,0-2.84,0-.32.32-.63.32-1.1-.32-1.27.47-2.37.47-3.48-.47-1.1,0-2.37-.47-3.47a3.4,3.4,0,0,0,.79-.79,8.54,8.54,0,0,0-.79-2.37,2.4,2.4,0,0,0,0-3.16c.47-1.42-.32-2.84-.32-4.26a9.36,9.36,0,0,1-.63-4.26c0-1.43-.47-2.85-.47-4.11-.63-1.89-.32-3.63-.32-5.68a4.37,4.37,0,0,1,.79-2.85c-1.1-1.73-.47-4.26,0-6.31.32-1.42-.79-2.84-.47-4.27-.63-1.73-.32-3.15-.32-4.89a13.93,13.93,0,0,1,.32-3.47l.47.31a6,6,0,0,1-.47-2.84,9.11,9.11,0,0,0-1.74-1.42,1.69,1.69,0,0,1,0-1.74,2.67,2.67,0,0,1,1.11-2.37C156.15,1.39,157.26,1.39,157.89,1.39Z"/><path d="M192.78,2.5c1.42,0,2.53.31,3.95.31a1.66,1.66,0,0,1,1.74.32c1.73-.63,3.47,1.11,5.21,0,1.42-.32,2.84.32,4.58.32s3.94,1.1,5.68.47c.32,0,.63-.47.63-.47,1.42,1.1,2.85,0,4,.47s2,.63,3.16,0h1.1l.64.63h.78c.32,0,1,.32,1.27.32,1.42.47,3.63.47,5.05,1.1h.63c1.11,1.11,2,2.53,3.16,3.48.32,0,.32.47.79.79a5.7,5.7,0,0,1,1.74,2.36c.63.79.94,1.43,1.42,1.9.94.95,2.05,1.74,2.84,2.68A31.64,31.64,0,0,0,243.15,20a1.13,1.13,0,0,0,.63.31c.48.79.48,1.9,1.11,2.21a18.55,18.55,0,0,1,2.53,7c0,1.42.31,2.84.31,4.26-.31,1.42.32,2.84.32,4.27,0,2.84.31,5.52-.32,8.36a5.51,5.51,0,0,0-.31,2.22c-.48,1.42-.79,2.68-1.43,4.57,0,.64,0,1.43-.78,1.74A9.24,9.24,0,0,1,243.15,59v.47c-.31.63-1.1,1-.79,1.74-.31.63-.94,1.42-1.26,2-.79.79-1.42,1.74-2.21,2.53a14.82,14.82,0,0,1-2.84,2.05h-.63c-1.11.79-2.22,1.1-2.85,2.21a30.62,30.62,0,0,1-5.21,1.26l-.79.79c-.63,0-1.73.32-2.37.32-.47.31-.78.31-1.1.79h-.32c-.79.63-1.73.31-2.84.31-.79.63-1.74.32-2.52.63-.95-.31-2.37,0-3.8,0-.47,0-.78.48-1.1.79,0,1,.32,2.06,0,2.85a22.89,22.89,0,0,0,.32,4.58c0,.63-.32.94-.32,1.73,0,1.42.63,3.16,0,4.58-.32,1.42.32,2.69,0,4.11,0,2.21-.32,3.94,0,5.68a23.62,23.62,0,0,0,.32,6.63c-.32,1.74.78,3.63.31,5.37a2.38,2.38,0,0,0,0,2c-.31,1.11-1,2.06-.63,3.48a5.83,5.83,0,0,1-1.11,3.63A2.13,2.13,0,0,1,210,120c-.94-.31-1.73-.31-2.37-1.1a6.83,6.83,0,0,0-2.52-.32,11,11,0,0,1-4.58,0,8.33,8.33,0,0,1-2.84,0c-.63-.31-1.74,0-2.37,0-.79-.63-1.74-.31-2.84-.63a6.21,6.21,0,0,0-1.42-1.42c0,.32-.32.32-.64.32-1.1,0-1.73-.32-2.84-.32a7.13,7.13,0,0,0-1.1-1.1c0-1.11-.64-2.06-.64-3.16a23.46,23.46,0,0,1,.95-2.53c0-.31.48-.31.48-.31v-1.11a6.29,6.29,0,0,0,1.42-3.47,7.28,7.28,0,0,1-.48-3.16v-2c0-1.74-.31-3.64.48-4.9,0-.79-.48-1.42-.48-1.89a6.66,6.66,0,0,0-.63-2.69,22.6,22.6,0,0,1,0-4.58c0-1.1-.31-2.21-.31-3.15a.85.85,0,0,0-.79-.79,1.13,1.13,0,0,1,.31-.64,2.35,2.35,0,0,1,.48-2.21s-.48-.31-.48-.63V76.4c.79-1.74-.63-3.64,0-5.06,0-.94.79-2,.79-3.47a17.69,17.69,0,0,1-.31-3.79c0-1.11.63-2.21.63-3.16a1.1,1.1,0,0,1,.31-1.42,5.77,5.77,0,0,0-.63-2.21c0-.95.63-2,.63-3.47,0-1.74-.31-3.79-.31-6,.31-1.11.79-2.06.31-3.48-.63-1.1,0-2.05-.31-3.16.31-1.73.79-3.47,0-4.89-.63-1.74,0-3.16,0-4.58-.32-1.42-.32-2.53-.63-3.95V24.92c.31-1-.48-2.05-.48-3.47-.31-.63,0-1.42,0-2.06.48-1.1-.31-2.52.48-3.63a32.38,32.38,0,0,1-.79-3.47c-.32-1.11.31-1.74.79-2.84,0-1.74.94-3.48.94-5.21.48-1.11.48-2.53,1.74-2.53C191.05,2.18,192.47,1.39,192.78,2.5Z"/><path d="M306.94,1.08h1.42a8.47,8.47,0,0,1,2.37,1.42c.79,1.89,1.42,3.63,2.21,5.37V9.6a48.74,48.74,0,0,1-1.42,9.79c-.79,4.27-.32,8.21-.32,12.32a24.94,24.94,0,0,0-.47,7.74c0,1.1-.32,2.52-.32,3.94a43,43,0,0,0,0,6.32V62a3.34,3.34,0,0,0,.32,1.73,44,44,0,0,0-.32,6.64c-.31,2.52.32,5,0,7.42-.63,1.73,0,3.94-.31,5.68a46.83,46.83,0,0,0,0,9.47c-.32,2.06-.32,4.27-1.11,6.32-.63,2-1.1,4.58-2.05,6.32-1.11,1.42-1.42,2.84-2.21,3.94-.63.64-1.74,1.42-2.37,2.06-.79.79-1.74,1.1-2.21,2a8.37,8.37,0,0,1-2.68,2.53,3.14,3.14,0,0,0-2.53,1.1h-1.11c-.94.63-2.36,1.42-3.47,2-.32,0-1.11-.31-1.74-.31-.79,1.1-2.05.63-3.16.31a25.77,25.77,0,0,0-4.89,0s-.47-.31-.47-.63c-.64,0-1.27-.47-1.74-.47-1.74.47-3.16-.32-4.58-.32-.63,0-1.42-.31-2.37-.31a7.91,7.91,0,0,0-1.73-1.42c-1.9-.32-3.16-1.74-5.06-2.06a2.28,2.28,0,0,0-1.26-1.42h-.79c-1.11-1.1-2.53-1.74-3.79-2.84a11,11,0,0,0-2.21-4.26c-.32-1.42-1.42-3.16-.95-4.9-.47-1.74-.47-3.47-1.42-4.89a11.67,11.67,0,0,0,.32-4.58,31.25,31.25,0,0,1-.32-5.69,8.2,8.2,0,0,1-.79-4.26c0-2.37-1.1-4.58-.31-7v-2c0-.79-.32-1.89-.32-2.53a5.93,5.93,0,0,0,.63-2.05V62a16.84,16.84,0,0,1,0-4,19,19,0,0,1-1.1-2.69,22,22,0,0,1-.32-4.57,5.9,5.9,0,0,0-.63-2.21,21.11,21.11,0,0,0,.95-2.37,10.11,10.11,0,0,0-.32-3.16,21.85,21.85,0,0,0,0-4.58,3.68,3.68,0,0,1-.32-2.53c.32-1.1-.63-2-.31-3.15A14.62,14.62,0,0,0,251,27.6a4.35,4.35,0,0,0-.47-3.15,2.34,2.34,0,0,0,.47-2.21h.32a11.75,11.75,0,0,0-.32-3.48c.32-1.42,0-3.16.32-4.58.31-1.73-.79-3.47-.32-5.37.32-1.26.32-3.15,1.27-3.78,1.1-.64,1.42-1.74,2.84-2.06h1.42A18.24,18.24,0,0,0,259.1,5a2.33,2.33,0,0,1,2.36.63,14.1,14.1,0,0,1,3.16-1,5.29,5.29,0,0,0,2.53-1.11,2.41,2.41,0,0,1,2.05-.31C270,3,270.62,3,271.1,2.18h1.26c.79-.31,1.42,0,2.53,0,.31.32.79.79,1.1.79A15.2,15.2,0,0,1,277.41,5a2.05,2.05,0,0,1-.47,2.05,5.31,5.31,0,0,1-.32,2.21,29.25,29.25,0,0,0,0,5.21v4.26a12.83,12.83,0,0,1,.32,3.48c-.32,2.21,0,3.94-.32,6,0,1.1.32,2.05.32,3.15v.32a58,58,0,0,0-.63,7.42c-.63.79-.32,1.74-.32,2.84-.31,1.42.32,2.53,0,3.79,0,1.11-.31,2.21-.31,3.63a6.28,6.28,0,0,1,.31,2.37A2.74,2.74,0,0,0,276,54a14.44,14.44,0,0,0-.31,3.48,35.89,35.89,0,0,0,.31,5.68c-.31,2.37-.79,5.21,0,8.05.32,1.74-.79,3.79,0,6,.32,1.74,0,3.48.32,5.22,1.1,1.73.31,3.94,1.42,5.68.63,1.42.63,3.47,1.42,5.21,1,1.42,2.37,1.42,3.79,1.11a21.46,21.46,0,0,1,2.52-4.58V89c.64-.63.64-2.06,1.11-3.16a46.83,46.83,0,0,0,0-9.47,1.12,1.12,0,0,1,.32-.64c0-1.42.31-2.84.31-3.94a38.28,38.28,0,0,0-.63-8.69,10.45,10.45,0,0,0,0-3.16c-.79-1.1,0-2.21,0-3.63,0-2.05.63-4.58.63-6.63-.31-1.42.32-3.16-.31-4.58a4.6,4.6,0,0,0-.32-2.05c0-.79.63-1.9.32-2.53,0-1.42.63-2.84.31-4.26-.31-.63,0-1.74,0-2.84-1.1-2.37,0-5.21-.63-8.06.32-1.73-.47-3.47,0-5.21,0-.31-.47-.79-.47-.79-.32-1.42,0-2.68-.32-3.79.79-.78.32-2.21.32-3.15-.32-1.74-1-3.64-2.37-4.58a10.45,10.45,0,0,1,0-3.16,5.77,5.77,0,0,1,.63-2.21,5.79,5.79,0,0,1,4.58,0,5.31,5.31,0,0,0,2.21-.32,4.27,4.27,0,0,0,2.05.32c.32,0,.63-.32,1.42-.32l.32-.31H296a2.12,2.12,0,0,1,1.43-.32c1.73,1,3.47-.47,4.89.63.63-.31,1.11,0,1.74,0A4.33,4.33,0,0,0,306.94,1.08Z"/><path d="M318.15.6a6.68,6.68,0,0,1,2.68-.31c.32,1.1.95.63,1.74.63h4.26c.32.47.63.47,1.42.47a9.31,9.31,0,0,0,3.48-.47,2.53,2.53,0,0,0,1.73.79,7.75,7.75,0,0,0,3.63-.79,7.43,7.43,0,0,1,2.53,2.84,10.38,10.38,0,0,0,.63,3.16C341,8,341.36,9.29,342,10.24c0,.79.47,1.1.79,1.73a15,15,0,0,1,.63,1.9c1.11,3.47,3.16,6.63,4.11,10.26.63,1.11,1.1,2.53,2.36,3.16-.31,0-.31.31-.31.79.79,1,.79,2.68,1.42,4.1.32,1.42,1.1,3,1.42,4.11h.32a8.86,8.86,0,0,0,.79-2.69c0-.94-.48-2.05,0-3.15.94-2.85,0-6,.63-8.69-.63-2.68-.63-5.52-1.42-7.89a2,2,0,0,0,.31-.79,24.2,24.2,0,0,1,0-4.74c.48-1.74,0-3.16.48-4.89C353.83,2,355.57,2,356.67,2c.32,0,.64-.32.95-.32a2.17,2.17,0,0,0,2.69-.32c2.84-1.1,6-.47,8.84-.79h3.47c1.58.79,2.21,2.53,4.11,2.06A21,21,0,0,1,378,4.55c0,.63.47,1.74-.32,2.05-.31,1.11-.31,2.21-.63,3.64,0,2.84-1.1,5.68,0,8.52a48.52,48.52,0,0,0,.95,6.48c.47,1.42-.32,2.84-.32,3.79a29.37,29.37,0,0,0-.31,5c0,1.89-1.11,2.84-1.11,4.26.48,1.74-.31,3.63,0,5.37,0,1.42-.31,2.68,0,3.79,1.11,5-.31,10.11,1.11,14.84a25.46,25.46,0,0,0-.32,7c-.79,1.74,0,3.47,0,5.53,0,1.73.63,3.47.32,5.21.31,3.79.63,8.21,1.1,12.47,0,1.42-.47,2.84-.47,3.79a7.05,7.05,0,0,0,.47,3.16c0,.79-.47,1.1-.47,2v2.69c-.32,2.21.79,4.57.79,6.78.32.64.63,1.43,1.11,2.37a4.54,4.54,0,0,1-1.9,3.32,10.54,10.54,0,0,1-2.68,1.1,11.12,11.12,0,0,1-3-.63,33,33,0,0,0-4.58-1.42c-1.74.32-4,1-6,.32h-.63c-.48,0-.79.31-1.27.31a5.31,5.31,0,0,0-2.21.32c-.95-.32-2.05.47-3.16,0a11.66,11.66,0,0,1-.94-1.42,24.26,24.26,0,0,0-.48-2.53,10.21,10.21,0,0,1-2.37-4.89,1.83,1.83,0,0,0-1.1-2.21,22.61,22.61,0,0,1-1.42-3.48c-.95-1.26-1.9-2.21-1.9-3.63,0-2.21-1.42-4-1.73-6a14.55,14.55,0,0,1-.64-3.47V86a10.45,10.45,0,0,0,0-3.16c-1.1-2.84-1.42-5.69-3.63-7.74a43,43,0,0,0,.79,6.63v3.16c-.31,1.11,0,2.53,0,4.11a25.71,25.71,0,0,0,0,4.89c.32,1.11-.31,2-.31,3.48a3,3,0,0,1-.48,2c-.31,2.68.79,5.21-.31,7.26V113a3.78,3.78,0,0,0-.32,2.68c0,1.42,0,2.84-1.1,3.79-.32.32-1.43,1.42-2.06.79a2.59,2.59,0,0,0-2.21-.79h-.31a6.67,6.67,0,0,0-2.53-.31,1.94,1.94,0,0,1-.79.31c-1.42-.31-2.84-.31-4.26-.63a.31.31,0,0,1-.32.32c-1.42-.64-3.16-.64-4.58-1.11a12.23,12.23,0,0,0-4.73-.32c-1.74.32-2.85-1.42-2.85-2.84a26.49,26.49,0,0,1,.79-5c0-.32.32-.32.32-.63V106.4a54.82,54.82,0,0,0,.79-7.27,4,4,0,0,1,.31-3.79,35,35,0,0,0-.31-5.68,10.38,10.38,0,0,1,.31-3c-.31-2,.32-4.11.32-6.63,0-1.42-.32-2.85-.32-4.27.32-.31,0-.94-.31-1.58a2.13,2.13,0,0,0,.31-1.42c-.79-1.42-.31-3.15-.31-4.89.31-1.74,0-3.48.31-5.21-.31-1.9.32-3.32.32-4.74a36.78,36.78,0,0,1-.32-5.68,9.71,9.71,0,0,0-.79-4.74v-.63c-.31-1.11,0-2.53-.31-3.63a16.28,16.28,0,0,1,.31-3.79c-.31,0-.31-.32-.31-.79,0-2.69.79-5.69.31-8.84a17,17,0,0,1,.79-6.32,55,55,0,0,0,0-7.26c-.79-1.11-.31-2.37-.79-3.79.79-1.11.48-2.53,1.11-3.64a3.19,3.19,0,0,0-.32-2.52A5.56,5.56,0,0,0,315,4.55a4.76,4.76,0,0,0,.31-1.89C316.41,2,316.73.6,318.15.6Z"/><path d="M419.83.13c.63-.32,1.73,0,2.68.32,0,.47.48.47.79.79.63-.32.95,0,1.74.31,1.1,0,2-.31,3.16-.31.31.31.63.31,1.26.63a24.91,24.91,0,0,1,4.89,0c1.11.31,2.06.79,3.16.31a1.18,1.18,0,0,0,.32.79h1.1a1.13,1.13,0,0,0,.64-.31,10.84,10.84,0,0,1,5.05-.48c1.1.48,1.89.79,2.21,1.9,0,.63-.32,1.58-.32,2.21-.79.63-1.1,1.42-1.89,1.74,0,.31,0,.78-.32.78a4.55,4.55,0,0,1-1.89,2.37c-1.11,1.11-1.11,2.53-2.06,3.16a22.58,22.58,0,0,1-3.15,6.16c-.79,1.42-1.11,3.16-2.21,4.26-.64,1.42-.95,2.84-1.74,3.79-1.74,3.16-3.16,6.48-5.05,9.63a24.41,24.41,0,0,1-1.74,4.27,11.71,11.71,0,0,1,0,4.73c1.11,3.48,2.37,7.43,3.63,11.21.32,2.06,1.74,3.48,1.74,5.53a8.48,8.48,0,0,1,1.1,1.74A5.16,5.16,0,0,0,434,68.82c.31,2.05,1.42,4.42,2,6.47.32,1.74,1.11,3.16,1.42,5.37,0,1,.63,2.37.63,3.47.48,1.42,1.11,3,1.43,4.42.47,1,0,2.06.47,2.69.95,2.52,1.74,5.37,2.68,7.42a15,15,0,0,1,1.9,4.42,14.1,14.1,0,0,0,.79,2.53,33.47,33.47,0,0,0,1.73,5.21,21.33,21.33,0,0,0,1.74,4.73v1.74c.32,0,.32.32.79.79-.79.63-1.1,1.74-2.21,2-.95.32-1.74-.31-2.84-1.1H444c-1.9,0-3.64.31-5.37-.32a5.46,5.46,0,0,0-2.21-.31,2.45,2.45,0,0,1-2.06-.32h-1.1c-1.74,0-3.16-.47-4.74-.47-.63,0-.94.47-1.42.79a2.15,2.15,0,0,1-1.42.31,5.48,5.48,0,0,1-2.37-.31c-1.1-.79-2.84-2.21-2.21-3.64v-1.42c0-1.1-.31-2.21-.31-3.15-.32-1.11-.95-1.9-.64-2.85-1.1-2.52-.31-5.68-2.21-7.89a22.9,22.9,0,0,1-2.21-5.69c-.31-1.1-.31-2.52-1.1-3.15v-.32a12.12,12.12,0,0,1-.95-4.74c-.79-1.42-.47-3.15-1.11-4.58a10.92,10.92,0,0,0-1.42-3.15,8.21,8.21,0,0,1-1.1,2.36.94.94,0,0,1-1,.48c-.79,1.74,0,3.16.32,4.58,0,2.21-.79,3.94-.32,5.68-.47,2.84-.79,6-1.1,8.84,0,2.69.63,5.37-.32,7.9.32,2.53-.32,5.21.63,7.89.32.64,0,1.42,0,2.06a16.82,16.82,0,0,1-2.05,1.42,8.59,8.59,0,0,1-2.84-.32c-.63,0-1.27.32-1.9.32a4.46,4.46,0,0,0-2.84-.32,7.64,7.64,0,0,1-3.79-.31,21.66,21.66,0,0,1-2.53.94c-1.42-.94-2.84-.31-4.73-.31-.63-.32-1.42.31-2.53.31a6.56,6.56,0,0,1-2-1.73,14.35,14.35,0,0,0-.32-5.06c-.79-1.1-.79-2.84.32-3.47.63-1.74,1.1-3.16.63-4.89-.32-2.53.47-4.74,0-7.27V94.55c0-.79-.32-1.42-.32-2.21a4.6,4.6,0,0,1,.32-2,60.07,60.07,0,0,1-.32-7.58,24.79,24.79,0,0,0,.79-7.74,26.57,26.57,0,0,0,0-5,37.55,37.55,0,0,0,0-6c0-2.05-.79-4.26-1.1-6.47v-4.9a1.94,1.94,0,0,0,.31-.79c-.31-1.1.32-2,0-3.47,0-3,.79-5.53.79-8.21-.47-1.42.32-2.84-.47-4.26a7.43,7.43,0,0,0,.47-3.16,68.53,68.53,0,0,1-.79-9.63,10.42,10.42,0,0,0-.31-3.16c.31,0,.31-.48.63-.79a66,66,0,0,1,.79-7.9,4.6,4.6,0,0,0-.32-2c0-.32.32-1.1.32-1.74a20.28,20.28,0,0,1-1.11-3,8.1,8.1,0,0,0,1.11-1.73c1.1-.79,2.05,0,2.84.31.63,0,.95.63,1.58,1.11,1.42,0,2.37.31,3.47,0H393c1.1-.48,1.89,0,2.84,0a1.64,1.64,0,0,1,1.42-.79c1.1.31,2.21-.32,3.16-.63h3.31a5.46,5.46,0,0,1,2.21.31h2.37c.79,1.42,1.11,2.69,1.74,3.63a23.15,23.15,0,0,1-.63,4.58v6a24.16,24.16,0,0,1,0,4.74c1.42-1.74,1.42-4.42,2.37-6.16a16.8,16.8,0,0,1,1.89-3.16C414.3,10.08,416.51,8,417,5c.31-.64,0-1.43.31-2.06a1.75,1.75,0,0,1,.63-1.42c0-.31.48-.63.48-1.1A2.08,2.08,0,0,1,419.83.13Z"/><path d="M481.88.92c.63,0,1.42.32,1.74.32h.31a19.2,19.2,0,0,1,4.58,1.42,1.21,1.21,0,0,1,.79-.32,1.16,1.16,0,0,0,.95.32,8.37,8.37,0,0,0,2.84,1.73c1.1.79,1.74,1.74,2.84,2.53a6.92,6.92,0,0,0,1.42,2.84c.32.63.63.63,1.11,1,.31.79.63,1.1.63,1.74.63,1.42.63,2.84,1.74,3.94.31.64.31,1.43,1.1,2.06.32.79.63,1.73.95,2.52a10.2,10.2,0,0,0,1.89,2.37,5.41,5.41,0,0,0,1.43,2.84,9,9,0,0,0,.31,2.85,9.87,9.87,0,0,0,0,4.26c.32.63.32,1.42.63,2.05a8.94,8.94,0,0,1-2.37,2.53c-.47.31-1.1,0-1.42,0a2.53,2.53,0,0,1-1.73-.79,9.72,9.72,0,0,0-3.64.47c-1.42,0-2.84.32-4.1.32a2.92,2.92,0,0,1-3.16.31c-.47.32-1.1.32-1.42.64-1.42,0-2.84-.64-3.95-.64-.31,0-.63.32-1.1.64h-1.74a21.82,21.82,0,0,1-1.42-2.69,26,26,0,0,1-.32-5.05,29.28,29.28,0,0,0-.63-5.53c-1.1-1.1-1.42-2.52-2.84-2.21-1.42.48-3.16.79-3.95,1.9a10.67,10.67,0,0,0-2.05,3.47c0,1.11.32,2.05.32,2.84.31,1.74,1.42,3.16,1.73,4.58.48.95.79,2,1.11,2.69,1.42,1.42,2.52,2.84,4,4.26a23.72,23.72,0,0,0,1.73,2.53,17.93,17.93,0,0,1,4.58,5.21,3.87,3.87,0,0,1,1.74,1.42c.63,1.1,1.73,1.73,2.37,2.52.79.63,1.1,1.42,2.21,2.06,1.42,1.73,2.84,3.47,4.58,5.36,1.73,1,2.84,2.69,4.1,4.11a19.87,19.87,0,0,1,3.63,5.37v1a10.3,10.3,0,0,0,.95,1.89c1.9,1,1.9,3.16,2.53,4.9a36.23,36.23,0,0,1,1.73,5.52c-.31,3.63-1.1,6.79-1.42,10.27-.94,1.42-.94,3.15-1.73,4.57-.32,1.43-1.43,2.06-1.74,3.48a6,6,0,0,0-1.42,2.84c-1.42,1.74-3.16,3.16-4.27,4.89-.63.79-1.42,1.11-1.73,1.74-1.42,1.11-2.84,1.42-4.27,2.84-2.05,1.42-4.89,1.74-7.26,2.85-.79.63-1.42.31-2.21.31-.95.32-2.37.32-3.47.79a1,1,0,0,1-.63.32c-1.9-.32-3.32,0-4.58-.32-1.9-.47-3.16.63-4.58,0-.48,0-1.11-.47-1.42-.47-3.16-2.06-6.79-3.48-8.85-6.32a17.79,17.79,0,0,1-1.73-1.74c-.79-.94-2.21-2-2.85-3.47-.31-.79-1.42-1.42-1.73-2.53-.32-.94-1.11-1.73-1.11-2.36-.63-1.74-.94-3.64-1.73-5.37a25.4,25.4,0,0,0-2.53-8.37c0-.32-.32-.79-.32-1.11l.32-.31c-.32,0-.63-.32-.95-.32-1.42-1.42-1.42-3.16-1.1-4.89.79-.48,1.1-1.11,2.05-1.11h1.1a14.58,14.58,0,0,0,3.48.63c2.52-.94,5.37-.31,7.42-1.73a6.09,6.09,0,0,1,2.53-.32,22.19,22.19,0,0,0,4.26-1.42,5,5,0,0,1,2.37-1.42c.31.31,1.1.31,1.73.79a3.76,3.76,0,0,1,.48,4.58c0,.63-.79.94-.48,2.05a16.87,16.87,0,0,0,3.64,8.84c.94.63,2.05,1,3.15,1.74.64.63,1.74,0,2.37-.32v.64c.79-.64,1.42-1.11,2.21-1.74,0-.79.32-1.11.95-1.74,0-1.74.79-3.95-.32-5.68-.63-.63-.31-2.06-1.1-3.16-.63-.63-1.42-2.05-2-2.84-.32-.32-.32-1.11-.63-1.42-1.11-.32-1.43-1.43-2.22-2.06-1.42-.79-1.73-1.73-2.84-2.52a20.52,20.52,0,0,1-3.16-3.16c-.94-1.74-2.84-2.84-3.79-4.58a3.75,3.75,0,0,1-1.42-1,1.72,1.72,0,0,1-.31-1.1c-.79-1.11-1.9-1.74-2.84-2.85-.79-1.1-1.11-2-1.74-2.52-.79-.63-1.11-1.74-1.74-2-.79-.64-1.1-2.06-2.21-2.37-.31-2.21-2.05-3.32-2.84-5.37-.95-.32-1.42-1.42-2.37-2a17.6,17.6,0,0,1-1.1-1.74,7.07,7.07,0,0,1-2.06-3.63,28.88,28.88,0,0,0-.79-5.53V34.71c0-1.11-.63-2.53,0-3.63.32-1.26.79-3.16,1.11-4.9a6.2,6.2,0,0,1,.31-2.36s0-.48.32-.48a7.24,7.24,0,0,0,.79-3.16,12.89,12.89,0,0,1,1.11-2.05c.31-.31.31-1.1.63-1.74.63-1.1,1.1-2.84,2.52-3.15A9.38,9.38,0,0,1,455,10.71c.79-.32,1.42-.63,2.21-1a5.74,5.74,0,0,1,1.42-2.21c1.73.79,2.37-1.74,4.1-1.74C465,5.18,466.09,3,468.46,3c.79.79,1.73-.31,2.84-.63,1.1,0,2.05-1.1,3.16-1.42.31.32,1.1.32,1.42.32C477.93,1.24,479.67.92,481.88.92Z"/><path class="cls-1" d="M40.57,118.21c-.26.64-3.48,3.13-4.56,3.92-3.17,2.3-5.65,3.57-7.39,3.78-2.75.32-3.93-1.29-4.1-2.76a18.34,18.34,0,0,1,1-6.63c-3.08.31-7,.82-10.94,1.49-3.35,4.12-6.55,7.8-9.1,9.86a.81.81,0,0,1-1.12-.13.82.82,0,0,1,.11-1.13,62.05,62.05,0,0,0,7.67-8.17A80.28,80.28,0,0,0,1.53,121,.81.81,0,1,1,1,119.51a90.38,90.38,0,0,1,12.69-3c1.43-1.76,2.88-3.6,4.31-5.42,7.79-9.86,12.73-15.87,15.76-16.23a1,1,0,0,1,.91.38c.39.52.28,1.29-.46,3.29-.51,1.38-1.27,3.18-2.15,5.26-1.41,3.33-3.09,7.29-4.31,10.9a15.3,15.3,0,0,1,4.44,0,.81.81,0,0,1,.41,1,.8.8,0,0,1-1,.44,25.6,25.6,0,0,0-4.36.18,18.43,18.43,0,0,0-1.1,6.61c.07.59.46,1.55,2.32,1.34,3.24-.38,10-6,10.7-6.84a.81.81,0,0,1,1.43.74ZM26,114.85c1.25-3.86,3.06-8.13,4.56-11.68,1-2.39,2.14-5,2.55-6.4-1,.51-2.5,1.76-5,4.57s-5.64,6.73-8.82,10.76c-1.06,1.34-2.13,2.7-3.19,4,1.4-.22,2.67-.4,3.72-.54C19.87,115.57,22.94,115.15,26,114.85Z"/><path class="cls-1" d="M54.31,115.64a.79.79,0,0,1,.75-.3.77.77,0,0,1,.63.51.8.8,0,0,1-.12.8c-1.23,1.55-5.61,6.64-10.28,7.18-2.35.28-5.27-.42-5.84-5.27-.55-4.69,3.45-13.18,4.69-15.67a62.85,62.85,0,0,1,4.16-7.2c2-2.94,3-3.4,3.59-3.47a1.3,1.3,0,0,1,1.47,1.22c.45,3.9-2.4,9.73-4.15,12.85-2.59,4.65-5.78,8.92-8.13,10.87l-.06,0a7.62,7.62,0,0,0,0,1.17c.44,3.79,2.4,4.06,4.05,3.86,4.17-.48,8.4-5.57,9.21-6.58Zm-12.92-1a49.63,49.63,0,0,0,6.42-9.13c2.66-4.79,4.1-8.94,4-11.51-1,.8-3.42,4-6.3,9.83A50.18,50.18,0,0,0,41.39,114.64Z"/><path class="cls-1" d="M69.11,113.92a.81.81,0,0,1,1.39.2.82.82,0,0,1-.13.8c-1.23,1.55-5.61,6.65-10.28,7.19-2.35.27-5.27-.42-5.84-5.28-.54-4.69,3.46-13.17,4.69-15.66A62.4,62.4,0,0,1,63.11,94c2-2.94,3-3.4,3.58-3.47a1.3,1.3,0,0,1,1.47,1.23c.45,3.9-2.4,9.72-4.14,12.85-2.59,4.65-5.79,8.92-8.14,10.86l-.06,0a7.62,7.62,0,0,0,0,1.17c.44,3.79,2.4,4,4,3.86,4.17-.48,8.4-5.57,9.21-6.59Zm-12.92-1a49.15,49.15,0,0,0,6.42-9.13c2.67-4.78,4.1-8.94,4-11.5-1,.79-3.43,4-6.31,9.82A50.38,50.38,0,0,0,56.19,112.91Z"/><path class="cls-1" d="M108,109.28a.82.82,0,0,1,1.13.13.81.81,0,0,1-.12,1.13,59.52,59.52,0,0,1-6.2,4.12c-3.78,2.19-6.9,3.45-9.26,3.72a6.86,6.86,0,0,1-6.06-2,8.81,8.81,0,0,1-2.18-5c-.3-2.62,0-8.18,5.32-16.05,2.81-4.13,6.89-8.46,9.29-8.74a2,2,0,0,1,1.93.84c.79,1.12.69,3.21-.24,5.09a.8.8,0,0,1-1.08.36.81.81,0,0,1-.37-1.08c.69-1.39.75-2.9.37-3.44a.4.4,0,0,0-.43-.17c-1.22.15-4.72,3-8.13,8-3.69,5.44-5.53,10.89-5.06,15,.69,5.94,5.5,5.68,6.45,5.57,5.1-.59,13.25-6.38,14.64-7.5Z"/><path class="cls-1" d="M133,107.68a47.9,47.9,0,0,0-15.41,7.64,71.14,71.14,0,0,1-3.09,8.37c-1.55,3.5-5.53,11.69-9,12.1a1.76,1.76,0,0,1-2-1.73c-.22-1.91,1.17-7.13,5.85-13a40.79,40.79,0,0,1,6.82-6.7,20.56,20.56,0,0,0,1-6.83,4.89,4.89,0,0,0-.09-.53c-.82.44-2.82,3-3.93,4.43-2.2,2.82-3,3.81-3.86,3.91s-1.52-.44-1.68-1.81c-.4-3.42,1.43-6.48,2.42-8.13a.81.81,0,1,1,1.38.83c-1.23,2-2.51,4.46-2.2,7.11a2,2,0,0,0,0,.24,34,34,0,0,0,2.63-3.15c2.62-3.35,4-5,5.16-5.08,1.48-.18,1.66,1.4,1.73,2a17.6,17.6,0,0,1-.6,5.52,50.19,50.19,0,0,1,14.29-6.73.81.81,0,0,1,.61.07.78.78,0,0,1,.39.48A.81.81,0,0,1,133,107.68ZM113,123c.88-2,1.65-4,2.29-5.86a37.88,37.88,0,0,0-4.67,4.89c-4.5,5.63-5.67,10.46-5.51,11.8,0,.33.13.32.16.32.4-.05,1.53-.46,3.5-3.31A49.06,49.06,0,0,0,113,123Z"/><path class="cls-1" d="M153.93,105.29c-2.83,2.4-11.28,7.23-17.35,7.94-3,.35-5-.85-5.23-3.19a7.93,7.93,0,0,1,1.7-5.21c1.21-1.72,2.67-2.83,3.89-3a1.78,1.78,0,0,1,1.75.7,3.64,3.64,0,0,1,.1,3.12.8.8,0,0,1-.67.47.8.8,0,0,1-.79-1.15,2.28,2.28,0,0,0,0-1.5s-.12,0-.25,0a5.22,5.22,0,0,0-2.77,2.3,6.51,6.51,0,0,0-1.41,4.09c.21,1.78,2,2,3.44,1.78,5.75-.67,13.8-5.28,16.5-7.57a.82.82,0,0,1,1.14.1A.8.8,0,0,1,153.93,105.29Z"/><path class="cls-1" d="M167.54,102.46a.8.8,0,0,1,1.39.2.8.8,0,0,1-.12.8c-1.23,1.55-5.61,6.65-10.29,7.19-2.35.27-5.27-.42-5.83-5.28-.55-4.69,3.45-13.17,4.69-15.66a61,61,0,0,1,4.16-7.21c2-2.94,3-3.4,3.59-3.47a1.29,1.29,0,0,1,1.46,1.23c.46,3.89-2.4,9.72-4.14,12.85-2.59,4.65-5.78,8.91-8.14,10.86,0,0,0,0-.05,0a7.49,7.49,0,0,0,0,1.16c.44,3.8,2.39,4.06,4.05,3.87,4.16-.49,8.4-5.58,9.2-6.59Zm-12.92-1A48.69,48.69,0,0,0,161,92.32c2.67-4.79,4.1-8.94,4-11.5-1,.79-3.42,4-6.3,9.82A50.29,50.29,0,0,0,154.62,101.45Z"/><path class="cls-1" d="M185.32,101.1a.79.79,0,0,1-.27.56c-2.2,2-8.55,6.45-13.1,7a3.63,3.63,0,0,1-3.72-1.43c-1.55-2.25-.58-6.4.26-8a.81.81,0,0,1,1.4-.07.81.81,0,0,1,0,.81c-.72,1.39-1.4,4.86-.36,6.36a2.14,2.14,0,0,0,2.21.75c4.24-.49,10.44-5,12.21-6.58a.81.81,0,0,1,1.14.06A.78.78,0,0,1,185.32,101.1ZM169.1,97.18a.79.79,0,0,1,.69-.87.79.79,0,1,1,.18,1.57A.79.79,0,0,1,169.1,97.18Z"/><path class="cls-1" d="M204.86,99.49a76.55,76.55,0,0,0-13.55,5.29c-.49.26-.94.51-1.33.74a4.64,4.64,0,0,1,.16.74A3.24,3.24,0,0,1,189,109a4.49,4.49,0,0,1-2.38,1.21,1.47,1.47,0,0,1-1.8-1.27c-.14-1.16.86-2.45,3-3.92a11.13,11.13,0,0,0-1.63-1.37c-1.08-.79-2.2-1.61-2.34-2.88a4.61,4.61,0,0,1,1.84-3.93,7.09,7.09,0,0,1,3.34-1.7,2.62,2.62,0,0,1,2.42.88,3.52,3.52,0,0,1,.33,3.38.81.81,0,0,1-1.53-.52,2.1,2.1,0,0,0-.05-1.85,1.06,1.06,0,0,0-1-.29c-1.17.14-4,2-3.76,3.84.06.57.86,1.16,1.7,1.78a11,11,0,0,1,2.05,1.8c.42-.25.88-.5,1.37-.76a79.65,79.65,0,0,1,13.85-5.41.81.81,0,1,1,.45,1.55Zm-16.33,6.94c-1.64,1.14-2,1.84-2.11,2.13a3,3,0,0,0,1.33-.68,1.79,1.79,0,0,0,.78-1.44Z"/><path class="cls-1" d="M220.18,97.37a37.9,37.9,0,0,1-4.56,5.79c-3.11,3.3-5.84,5.1-8.1,5.37s-4-1.29-4.3-3.77c-.53-4.55,2.1-12.09,4.39-17.62.39-.94.79-1.86,1.18-2.75-2.94.48-5.66,1-6.39,1.22a.81.81,0,1,1-.49-1.54c.92-.29,4.29-.9,7.68-1.45a70.15,70.15,0,0,1,4.08-7.88.81.81,0,0,1,1.39.16.84.84,0,0,1-.1.81,63.92,63.92,0,0,0-3.45,6.61c2.85-.44,5.38-.78,6.06-.76a.81.81,0,1,1,0,1.61c-.67,0-3.67.41-6.84.91-.53,1.16-1.07,2.39-1.6,3.68-3.19,7.67-4.66,13.48-4.28,16.81.23,1.93,1.5,2.47,2.52,2.35,1.84-.21,4.3-1.9,7.1-4.87a37.11,37.11,0,0,0,4.32-5.44.79.79,0,0,1,.47-.39.83.83,0,0,1,.62.06A.8.8,0,0,1,220.18,97.37Z"/><path class="cls-1" d="M275,90.92c-.26.63-3.48,3.13-4.56,3.91-3.16,2.31-5.64,3.58-7.38,3.78-2.75.32-3.93-1.28-4.1-2.75a18.52,18.52,0,0,1,1-6.63c-3.07.31-7,.81-10.93,1.48-3.35,4.13-6.55,7.81-9.1,9.86a.8.8,0,0,1-1-1.25,62.05,62.05,0,0,0,7.67-8.17,80.28,80.28,0,0,0-10.6,2.6.8.8,0,0,1-1.06-.92.78.78,0,0,1,.54-.61,90.05,90.05,0,0,1,12.69-3c1.42-1.76,2.88-3.6,4.31-5.42,7.79-9.86,12.73-15.87,15.76-16.22a1,1,0,0,1,.91.38c.39.52.28,1.29-.46,3.28-.51,1.39-1.27,3.18-2.16,5.27-1.4,3.32-3.08,7.29-4.3,10.89a15.69,15.69,0,0,1,4.44,0,.81.81,0,0,1-.63,1.49,26.15,26.15,0,0,0-4.35.17,18.26,18.26,0,0,0-1.1,6.62c.07.59.46,1.55,2.32,1.33,3.23-.38,10-6,10.7-6.83a.8.8,0,0,1,1.42.74Zm-14.54-3.36c1.25-3.87,3.06-8.13,4.56-11.68,1-2.4,2.14-5,2.54-6.4-.94.51-2.49,1.76-5,4.57s-5.65,6.73-8.82,10.75c-1.06,1.35-2.13,2.7-3.2,4,1.41-.22,2.68-.4,3.73-.55C254.27,88.27,257.33,87.86,260.42,87.56Z"/><path class="cls-1" d="M293.88,89.11c-7,2.49-10.41,1-12.24.13a3.6,3.6,0,0,0-1.06-.38c-1.33.16-4,3-6.56,8a.83.83,0,0,1-1.57-.32,22,22,0,0,1,1.09-5.36,36.61,36.61,0,0,1,2.16-5.71.81.81,0,1,1,1.42.76A36.78,36.78,0,0,0,275,92c1.73-2.54,3.69-4.58,5.43-4.78a3.75,3.75,0,0,1,1.9.51c1.74.78,4.67,2.1,11-.17a.75.75,0,0,1,.62,0,.79.79,0,0,1,.41.45A.81.81,0,0,1,293.88,89.11Z"/><path class="cls-1" d="M314.62,86.58c-2.53,2.14-10.23,7.09-16.63,7.83a4.44,4.44,0,0,1-5.34-4.16,6.33,6.33,0,0,1,1.36-4.4,5.36,5.36,0,0,1,3.32-2.31,1.76,1.76,0,0,1,1.93,1.66,4.32,4.32,0,0,1-2,3.72,3.36,3.36,0,0,1-3,.37,3.3,3.3,0,0,0,0,.77,2.87,2.87,0,0,0,3.55,2.75c5.71-.66,13.09-5.18,15.78-7.46a.85.85,0,0,1,.59-.18.8.8,0,0,1,.45,1.41Zm-19.89,1.17a1.8,1.8,0,0,0,1.67-.18,2.77,2.77,0,0,0,1.26-2.19.44.44,0,0,0-.11-.24h0a4,4,0,0,0-2.21,1.67A6.1,6.1,0,0,0,294.73,87.75Z"/><path class="cls-1" d="M353,77.17c.33,2.8-.92,5.5-3.6,7.82-4.09,3.53-10.79,5.36-15.26,4.16a.8.8,0,0,1-.56-1,.79.79,0,0,1,1-.57c4,1.07,10.06-.61,13.79-3.83,1.57-1.36,3.38-3.58,3.05-6.41a4,4,0,0,0-1.65-2.82c-1.63-1.16-4.28-1.43-7.48-.74l-.26.08c-.35.13-1,.36-1.37-.24a1,1,0,0,1,.33-1.27,43.46,43.46,0,0,0,6.35-7.58c1.69-2.63,2-4,2-4.37h0c-2.17.25-6,5.58-8.64,10.07A93,93,0,0,0,332,90a.81.81,0,0,1-1.57-.41c1.73-7.06,4.65-15.56,6.25-20,1-2.73,2-5.42,2.83-7.58.37-.92.68-1.69.92-2.24.38-.88.55-1.29,1.13-1.28a.8.8,0,0,1,.62,1.32c-.4.76-2.81,6.81-5.33,14.14q1.14-2.2,2.36-4.28c2.28-3.9,6.59-10.49,9.84-10.87a1.51,1.51,0,0,1,1.66.82c.5,1.08-.17,3.08-2,6a44.47,44.47,0,0,1-5,6.34c2.9-.36,5.3.09,7,1.3A5.51,5.51,0,0,1,353,77.17ZM341.55,60.12h0Zm.15,0,.14,0Z"/><path class="cls-1" d="M378.58,79.14c-2.53,2.14-10.24,7.08-16.64,7.82a4.44,4.44,0,0,1-5.34-4.16A6.41,6.41,0,0,1,358,78.4a5.37,5.37,0,0,1,3.32-2.31,1.78,1.78,0,0,1,1.93,1.66,4.35,4.35,0,0,1-2,3.73,3.34,3.34,0,0,1-3,.36,3.39,3.39,0,0,0,0,.78,2.87,2.87,0,0,0,3.56,2.74c5.7-.66,13.09-5.18,15.78-7.45a.78.78,0,0,1,.59-.19.8.8,0,0,1,.54.28A.81.81,0,0,1,378.58,79.14ZM358.69,80.3a1.75,1.75,0,0,0,1.67-.18,2.73,2.73,0,0,0,1.25-2.18.55.55,0,0,0-.1-.25h0a3.9,3.9,0,0,0-2.21,1.66A6,6,0,0,0,358.69,80.3Z"/><path class="cls-1" d="M400.39,76.16a.79.79,0,0,1-.23.57,43.82,43.82,0,0,1-4.36,3.82c-2.8,2.13-5.23,3.32-7.22,3.55-2.17.26-3.78-.23-4.79-1.45a4.91,4.91,0,0,1-1.05-2.8c-.28.41-.57.83-.87,1.23-2,2.77-3.06,3.19-3.65,3.25-1.21.14-1.89-.93-2-2-.33-2.82,2.12-7.16,4.85-7.48a3,3,0,0,1,2.26.78l.12.11a.78.78,0,0,1,.95,0,.82.82,0,0,1,.32.9c-.39,1.25-.76,3.71.32,5,.64.77,1.77,1.07,3.36.88,4.17-.48,10-6.24,10.62-6.9a.82.82,0,0,1,.57-.24.78.78,0,0,1,.57.24A.8.8,0,0,1,400.39,76.16Zm-17.86,1a1.61,1.61,0,0,0-1.28-.69c-1.54.18-3.71,3.39-3.44,5.7.05.41.19.56.22.57s.72-.12,2.56-2.63C381.29,79.15,381.93,78.16,382.53,77.15Z"/><path class="cls-1" d="M423,74l-.06,0c-5,4-9.6,6.42-12.83,6.8a3.72,3.72,0,0,1-3.77-1.38,4.69,4.69,0,0,1-.71-3c-1.93,2.84-3.65,4.93-5.1,5.1a1.71,1.71,0,0,1-1.93-1.37,10,10,0,0,1,.4-4.56,18,18,0,0,1,.69-2c.39-.92.64-1.19.93-1.32a.8.8,0,0,1,.84,1.35A13.46,13.46,0,0,0,400.3,77c-.49,2.19-.2,3-.09,3h.09c.12,0,.83-.2,2.55-2.44C404,76.09,405.12,74.29,406,73c.52-.81.93-1.45,1.2-1.81a.82.82,0,0,1,1.1-.17.81.81,0,0,1,.27,1.08c-1.38,2.83-1.73,5.3-.91,6.45a2.25,2.25,0,0,0,2.26.71c2.94-.34,7.21-2.64,12-6.46l.06,0a.8.8,0,0,1,1.13.13A.8.8,0,0,1,423,74Z"/><path class="cls-1" d="M438,72a38.23,38.23,0,0,1-4.57,5.79c-3.11,3.3-5.83,5.1-8.09,5.37s-4-1.29-4.3-3.77c-.53-4.55,2.09-12.09,4.38-17.62.39-.94.79-1.86,1.19-2.75-2.95.49-5.66,1-6.4,1.22a.8.8,0,0,1-1-.94.81.81,0,0,1,.55-.6c.92-.29,4.28-.9,7.68-1.45a66.72,66.72,0,0,1,4.08-7.88.81.81,0,0,1,1.39.17.8.8,0,0,1-.11.8A67.19,67.19,0,0,0,429.37,57c2.85-.44,5.38-.77,6.06-.76a.81.81,0,1,1,0,1.61c-.67,0-3.67.41-6.84.91-.52,1.16-1.07,2.4-1.6,3.68-3.18,7.67-4.66,13.49-4.27,16.81.22,1.93,1.49,2.48,2.51,2.36,1.85-.22,4.31-1.9,7.11-4.88a37.51,37.51,0,0,0,4.31-5.44.78.78,0,0,1,.48-.39A.81.81,0,0,1,438,72Z"/><path class="cls-1" d="M454.42,69.77a.79.79,0,0,1-.27.55c-2.2,2-8.56,6.46-13.1,7a3.67,3.67,0,0,1-3.72-1.43c-1.56-2.25-.58-6.41.25-8a.84.84,0,0,1,.68-.44.81.81,0,0,1,.76,1.18c-.72,1.39-1.41,4.86-.37,6.37a2.15,2.15,0,0,0,2.21.75c4.25-.5,10.44-5,12.22-6.59a.81.81,0,0,1,1.14.07A.82.82,0,0,1,454.42,69.77Zm-16.23-3.92a.79.79,0,1,1,.88.69A.79.79,0,0,1,438.19,65.85Z"/><path class="cls-1" d="M470.62,68a.84.84,0,0,1-.35.51,37.22,37.22,0,0,1-7.81,3.19A35.84,35.84,0,0,1,456.51,73a12,12,0,0,1-1.44.1,17,17,0,0,1,.84,6,31.53,31.53,0,0,1-1.46,9.14c-.74,2.2-1.58,3.32-2.56,3.43-1.49.18-1.72-1.8-1.82-2.64-.31-2.72-.44-10.8,5.24-27.1a113.6,113.6,0,0,1,5-12.18c2.7-5.47,3.78-5.6,4.25-5.65a1.28,1.28,0,0,1,1.32.72c.24.48.48,1.47-.33,4.47a53.83,53.83,0,0,1-2.53,7c-2.57,5.9-5.82,11.3-8.71,14.43l0,0-.18.65.11.13A23.12,23.12,0,0,0,462,70.17a36.86,36.86,0,0,0,7.41-3,.81.81,0,0,1,1.11.24A.77.77,0,0,1,470.62,68ZM453.5,73.54c-1.59,6.4-2.24,11.73-1.83,15.3a7.76,7.76,0,0,0,.2,1.07c.48-.56,1.32-2.39,1.91-5.6C454.46,80.61,454.57,76.1,453.5,73.54Zm1.95-6.92a63.68,63.68,0,0,0,6.06-11c2.36-5.43,3-8.57,3-9.67a20.85,20.85,0,0,0-3,5,114.42,114.42,0,0,0-4.83,12C456.23,64.2,455.83,65.42,455.45,66.62Z"/><path class="cls-1" d="M493.23,65.8l-.06,0c-5.05,4-9.61,6.42-12.84,6.8a3.71,3.71,0,0,1-3.76-1.38,4.77,4.77,0,0,1-.72-3c-1.92,2.84-3.64,4.93-5.1,5.1A1.73,1.73,0,0,1,468.82,72a9.9,9.9,0,0,1,.41-4.56,18,18,0,0,1,.69-2c.38-.92.64-1.19.92-1.33a.81.81,0,0,1,1,.31.79.79,0,0,1-.18,1,13.81,13.81,0,0,0-1.13,3.29c-.48,2.19-.19,3-.09,3h.1c.12,0,.83-.2,2.54-2.44,1.12-1.45,2.27-3.25,3.11-4.57.52-.81.93-1.46,1.2-1.81a.83.83,0,0,1,1.38.91c-1.38,2.83-1.73,5.3-.91,6.45a2.27,2.27,0,0,0,2.26.71c2.93-.35,7.2-2.64,12-6.47l.05,0a.82.82,0,0,1,.6-.17.81.81,0,0,1,.41,1.43Z"/><path class="cls-1" d="M506.86,63a.8.8,0,0,1,1.39.2.8.8,0,0,1-.12.8c-1.23,1.55-5.61,6.64-10.28,7.19-2.36.27-5.28-.42-5.84-5.28-.55-4.69,3.45-13.17,4.69-15.66A62.44,62.44,0,0,1,500.86,43c2-2.94,3-3.4,3.59-3.47a1.28,1.28,0,0,1,1.46,1.22c.46,3.9-2.4,9.73-4.14,12.86-2.59,4.65-5.78,8.91-8.14,10.86a.1.1,0,0,1-.05,0,7.62,7.62,0,0,0,0,1.17c.44,3.79,2.4,4.06,4.05,3.87,4.16-.49,8.4-5.58,9.2-6.59Zm-12.92-1a48.69,48.69,0,0,0,6.42-9.13c2.67-4.79,4.1-8.94,4-11.5-1,.79-3.42,4-6.3,9.82A50.29,50.29,0,0,0,493.94,61.94Z"/></g></g></svg>