<svg xmlns="http://www.w3.org/2000/svg" viewBox="0 0 508.6 188.14"><g id="Capa_2" data-name="Capa 2"><g id="Capa_1-2" data-name="Capa 1"><path d="M22.26,1.39a2.33,2.33,0,0,0,2.06,0,72.42,72.42,0,0,0,7.89,1,5.59,5.59,0,0,0,5.21,1.11c.32.31.32.63.63,1.1.32-.47.64-.47,1.42-.47.32,0,.64.47,1.11.79.63.31,1.58.31,2.21.63.32,1.42,2.05,1.42,3.16,2.84a2.8,2.8,0,0,0,1.74,1.58c1.1,1.42,2.68,2.05,3.31,3.16,1.11,2.21,2.53,4.42,3.16,6.79a6.07,6.07,0,0,0,1.42,3.95c-.32.47-.32.47-.32.78a38,38,0,0,1,.64,11.06c-.32,1.42.79,2.84,0,4.1a6.09,6.09,0,0,1-.32,2.53c-.32,2.05.32,4.1-.95,5.68a6.5,6.5,0,0,0-1.1,3.64c-.32.31-1.11.63-1.42.94v.79a7.16,7.16,0,0,0-2.53,3.95,8.26,8.26,0,0,1,1.11,1.1c1.1,1.11,1.42,2.37,2.52,3.48A19.57,19.57,0,0,0,58,66.61c.31.78.63,1.73.95,2.52.79,1.58.79,3.32,1.1,5.05a15.92,15.92,0,0,0,.32,3.64c0,1.42.31,3.15.31,4.89-.31,1.9,0,3.79-.31,5.53s0,3.47-.63,5.05c0,.63-.48,1.42-.48,1.74s-.31.31-.31.79c-.32,1.26-1.43,2.37-1.43,4.1-.78,1-1.1,2.37-1.89,3.32a26.1,26.1,0,0,1-2.84,4c-1.42,1.26-2.05,3-3.63,3.94-.32,1.11-1.74,1.42-2.85,2.21-.63,1-2,1-2.84,1.42a7.63,7.63,0,0,1-2.21,1.58c-.63,0-1.1.63-1.74,1-1.42,0-2.84.79-4.26.32a7,7,0,0,1-5.05,0,10.45,10.45,0,0,1-5.05.47l-.79.32a1.15,1.15,0,0,1-.95-.32c-1.11.63-1.74-.47-2.84,0a4.71,4.71,0,0,1-3,.32H11.84c-2.21-.79-3.94,1.1-5.68,1.1L5.68,119a4.57,4.57,0,0,0-2.84-.32c-1.1-.31-1.42-1.42-1.73-2.37A4.16,4.16,0,0,0,1.42,113v-4.27c-.31-.31-.31-.94-.79-1.26,0-.63.48-1.42.48-2a2.4,2.4,0,0,1,0-2.53c0-1.1-1.11-2-.79-3.63.31-3.16-.64-6.79.31-10.11a4.39,4.39,0,0,1-.31-2.05c.31-1.42-.32-3,.31-4.42-.31-1.42,0-2.68-.31-4.1v-.79A1.21,1.21,0,0,0,0,77a11.3,11.3,0,0,0,.32-4.58c.31-2.21-.64-4.74,0-7a19.51,19.51,0,0,0,0-4.26c0-1.74.79-3.16,0-4.58,1.1-1.42,0-3.32.31-5,.48-1.11,0-2.53,0-4,0-1.9.79-3.63.48-5.84,0-.64,0-1.43.31-1.74.32-1.58-.79-2.21-.31-3.63a1.1,1.1,0,0,1-.48-.79,7.65,7.65,0,0,0,.48-4.27,3.62,3.62,0,0,1,0-3.15c0-1.11-.79-2.53-.48-3.95.48-1.58,0-3,0-4.74.48-1.42-.31-2.84,0-4,.79-1.1,0-1.73,0-2.52C.32,12,1.11,11,.32,9.92A63.76,63.76,0,0,0,0,2a4.73,4.73,0,0,1,2.05.31L2.37,2A4,4,0,0,0,5.05,2c2.53.78,4.9-1.27,7.58,0L13,1.71a14.52,14.52,0,0,0,3.95.63l.63-.63c1.1.63,2.21.32,3.31.32C21.63,1.71,22,1.39,22.26,1.39Z"/><path d="M65.21,1.39c1.1.32,1.42,1.42,2.53,1.74s2.52-.32,3.15.32h.63c.79,0,1.11.47,1.9.47a5.2,5.2,0,0,0,2.37-.47,3.38,3.38,0,0,0,2.84-.32h1.11c1.42-.63,3.15-.32,4.57-.32a2.83,2.83,0,0,0,2.37-1.1c.32.47.79.47.79.79.32,0,.32.31.63.63.79-.32.79.79,1.11,1.42-.32,1.11-1.74,1.74-1.74,3.16s-.47,2.84,0,4.26c.32,2.06,0,4.27.63,6.32a14.56,14.56,0,0,0-.31,5.21v1.1a12.65,12.65,0,0,0,.31,3.48,5.31,5.31,0,0,1,0,3.16c0,1.89.79,3.63.32,5.36v6.32a21.91,21.91,0,0,0,0,4.58c-.32,1.74.47,3.47-.32,5.21-.31,1.11.32,2.21.32,2.84.47,1.11,0,2.21,0,3.16a27.54,27.54,0,0,0,.79,4.58c.31,2.21,0,4.26.31,6.32,0,1.73.79,3.15.32,5a12.72,12.72,0,0,0,.47,4.1,9.72,9.72,0,0,0-.47,3.64c0,.94-.32,2.36-.32,3.47a41.54,41.54,0,0,1,0,6.31,43,43,0,0,0,.32,6.64,15.17,15.17,0,0,0-.32,3.63c0,1.74-.31,3.47.32,5.21v5.21A4.33,4.33,0,0,1,91,115.71c0,.79-.32,1.42-.32,2.21,0,1-1.42,1.27-2.53,1.74-1.1.31-1.73-.79-2.84-.79-1.42,0-2.84-.32-3.79,0-.79,0-1.1,0-1.42.32-.79-.32-1.42,0-2,0a12.13,12.13,0,0,1-2.84-1H73c-.64,0-1.74.31-2.37.31a4.5,4.5,0,0,0-1.74-.31c-1.1,0-2.21.31-2.84-.32-.79,0-1.74.32-1.74-.47-.47-1-.47-1.74-1.1-2.84.31-.64.63-1,1.1-1.74a6,6,0,0,0,.32-5.21,3.18,3.18,0,0,1,.31-1.74,5.47,5.47,0,0,0-.63-3.16c.32-1.42-.47-2.52,0-3.94V98.5c0-2,.63-3.79.32-6V90.76c-1.11-2.05,0-4.26-.32-6.31a21.85,21.85,0,0,0,0-4.58c.32-4,.95-8.05.63-12.32.79-.79,0-2,0-2.84,0-.32.32-.63.32-1.1-.32-1.27.47-2.37.47-3.48-.47-1.1,0-2.37-.47-3.47a3.4,3.4,0,0,0,.79-.79,8.54,8.54,0,0,0-.79-2.37,2.4,2.4,0,0,0,0-3.16c.47-1.42-.32-2.84-.32-4.26a9.36,9.36,0,0,1-.63-4.26c0-1.43-.47-2.85-.47-4.11-.63-1.89-.32-3.63-.32-5.68a4.37,4.37,0,0,1,.79-2.85c-1.1-1.73-.47-4.26,0-6.31.32-1.42-.79-2.84-.47-4.27-.63-1.73-.32-3.15-.32-4.89a13.93,13.93,0,0,1,.32-3.47l.47.31a6,6,0,0,1-.47-2.84,9.11,9.11,0,0,0-1.74-1.42,1.69,1.69,0,0,1,0-1.74,2.67,2.67,0,0,1,1.11-2.37C63.47,1.39,64.58,1.39,65.21,1.39Z"/><path d="M125.84,2c.32-.79.63-.48,1.42-.48H129a12.89,12.89,0,0,0,2.05,1.11h.63c1.42.63,3.32.63,4.58,1.73a19.83,19.83,0,0,1,2.84,1.74c2.21.79,2.84,3.63,5.37,4.26a1.12,1.12,0,0,1,.32.64A7.75,7.75,0,0,1,148.26,15c2.84,1.74,2.84,5.21,3.47,8.06a29.46,29.46,0,0,0,.79,5.68,17.94,17.94,0,0,0,.32,5.68c-.32,1,.32,2.37.32,3.48v2.05c-.95,1.42,0,2.84,0,4.26,0,.64.79,1.74,0,2.37A2.64,2.64,0,0,1,151.42,48h-.63c-1.42-.31-2.53-.94-3.95-.63a9.08,9.08,0,0,0-2.84.32h-.32c-.63.79-2.05,0-2.84.31-1,.79-2.37-.31-3.47.79H135c-.48,0-.48-.31-.79-.31a1.13,1.13,0,0,1-.63.31,14.46,14.46,0,0,0-3.64-.31c-1.42.94-2-.79-2.68-1.42.63-2.21,0-4.27.63-6a2.33,2.33,0,0,0,.32-1.42c.31-1.11.31-2.53,1.1-3.48V34.71c.63-1.11,0-2.21,0-3.16-.31-.47-.79-.79-.79-1.1,0-1.42-.94-2.06-1.73-3.16-1-.32-1.74-1.42-3.16-1.42-.63.63-1.42.31-2,.31a14.39,14.39,0,0,0-2.21,2.21c-.64,2.06-.32,4.11-1,6.32-.32.95,0,2.37-.32,3.79-.47,2.21,0,4.26-.47,6a12.47,12.47,0,0,0,0,3.47c-.32,1.42,0,3.16,0,5.06a57.53,57.53,0,0,1-.63,7.26,26.78,26.78,0,0,1-.32,5.05,32,32,0,0,0,0,9.48c0,2.36.32,5.21.32,7.73v.32a2.39,2.39,0,0,0,.31,1.42c-.31,1.42.32,3.16.32,4.58a13.59,13.59,0,0,0,.79,3.47,9.3,9.3,0,0,1,1,1.74c.79.47,1.89.79,2.52,1.11a1.64,1.64,0,0,1,2,0,2.7,2.7,0,0,0,2.22-1.43c1.42-1.1,0-2.84.63-4.26.47-2,.47-4.58.79-6.63V81.45c.94-2.53-.32-4.9-.32-7.42,1-.63,2-1.74,2-2.85a3.67,3.67,0,0,1,1.42-.94,2.35,2.35,0,0,1,2.37.94c1.42-.63,2.84,0,4.27,0,1.73,0,3.15-.31,4.89-.31a1.69,1.69,0,0,1,1.74,0,2.09,2.09,0,0,1,1.42-.32s.47,0,.47.32c.63-.32,1,0,1.74.31.63,0,1-.31,1.74-.63h2a7.23,7.23,0,0,1,1.1,1.11A15.39,15.39,0,0,1,154,74a17.77,17.77,0,0,0-.79,6.31c0,1.11.47,1.9,0,2.84.47,2.53-.95,4.9-.32,7.43,0,1.73-.32,3.15-.32,4.89-.31.32-.31.79-.79,1.11.48,0,.48.31.48.31-.79,2-.79,4.27-2.21,6v2a22.83,22.83,0,0,0-1.74,3.16c-.63.79-1.42,1.42-1.42,2.21-.32.32-.63.32-1,.63a1.1,1.1,0,0,0-.47.79c-.32,0-.32.32-.63.32-.32.32-.79.32-1.42.32v1.1h-.64c-.79.32-1.1,1-1.89,1a11.42,11.42,0,0,1-2.68,1.42c-.48.47-.79.47-1.11.79a6.44,6.44,0,0,1-3.16,1.74c-1.1-.32-1.73.31-2.84.31a6.48,6.48,0,0,1-2.53.32,3.49,3.49,0,0,1-3.47-.32c0,.32-.32.79-.63.79-.79,0-1.74-.47-2.84,0-1.42.32-2.85,0-4,.32a4,4,0,0,0-1.74-.32,10.92,10.92,0,0,1-2.84-.79c-.32,0-.63-.31-1-.63a9.2,9.2,0,0,1-4.89-2.84c-.79-.79-1.11-1.74-1.9-2-.63-.48-.94-1.11-1.42-1.43a5.89,5.89,0,0,1-2.68-2.21,7.1,7.1,0,0,0-1.9-2.36,3.28,3.28,0,0,0-.63-1.74c-.31-1.11-1.42-1.9-1.42-3.16a21.93,21.93,0,0,1-1.74-4,.68.68,0,0,0-.63-.63c.63-2.52-.47-5,0-7.42.32-1.74-1.1-3.63-.79-5.68-.31-1.74.32-3.48-.31-5.21.63-1.11,0-2.22-.32-3.16a3.11,3.11,0,0,0,.32-1.74,4.63,4.63,0,0,1-.32-1.89,4,4,0,0,0,.32-1.74,4.73,4.73,0,0,0,.31-2.05c.32-1.43-.63-2.85.32-4.27,0-1.1,0-1.73-.63-2.37.31-1.42-.32-2.84,0-3.94A5.05,5.05,0,0,0,93,54.76V54a2.31,2.31,0,0,1,0-2,75.85,75.85,0,0,1,0-8.53c.47-.31.79-.63.79-.94V41a15.06,15.06,0,0,0,.63-4,18.09,18.09,0,0,1,.79-8.69c.31-1.1.31-2.52.94-3.63a39.59,39.59,0,0,1,.79-5.52c.32-1.11,1.43-1.74,2.06-2.85.31-1.1.31-2.05,1.42-2.84.79-1.42,1.1-3.16,2.52-4.26a15.88,15.88,0,0,1,1.43-2,1.14,1.14,0,0,0,.94-.32c.79-.32,1.11-.79,1.9-1.11a12,12,0,0,1,3.16-1.73c.31-.32.63-.79.94-.79.32-.32.79-.32,1.11-.63h2c1.42-.32,2.84-1.42,4.26-.63,1.43.31,3.16-.48,4.58-.79A5.36,5.36,0,0,0,125.84,2Z"/><path d="M157.89,1.39c1.1.32,1.42,1.42,2.53,1.74s2.52-.32,3.15.32h.63c.79,0,1.11.47,1.9.47a5.2,5.2,0,0,0,2.37-.47,3.38,3.38,0,0,0,2.84-.32h1.11c1.42-.63,3.15-.32,4.57-.32a2.83,2.83,0,0,0,2.37-1.1c.32.47.79.47.79.79.32,0,.32.31.63.63.79-.32.79.79,1.11,1.42-.32,1.11-1.74,1.74-1.74,3.16s-.47,2.84,0,4.26c.32,2.06,0,4.27.63,6.32a14.56,14.56,0,0,0-.31,5.21v1.1a12.65,12.65,0,0,0,.31,3.48,5.31,5.31,0,0,1,0,3.16c0,1.89.79,3.63.32,5.36v6.32a21.91,21.91,0,0,0,0,4.58c-.32,1.74.47,3.47-.32,5.21-.31,1.11.32,2.21.32,2.84.47,1.11,0,2.21,0,3.16a27.54,27.54,0,0,0,.79,4.58c.31,2.21,0,4.26.31,6.32,0,1.73.79,3.15.32,5a12.72,12.72,0,0,0,.47,4.1,9.72,9.72,0,0,0-.47,3.64c0,.94-.32,2.36-.32,3.47a41.54,41.54,0,0,1,0,6.31,43,43,0,0,0,.32,6.64,15.17,15.17,0,0,0-.32,3.63c0,1.74-.31,3.47.32,5.21v5.21a4.33,4.33,0,0,1,1.11,2.84c0,.79-.32,1.42-.32,2.21,0,1-1.42,1.27-2.53,1.74-1.1.31-1.73-.79-2.84-.79-1.42,0-2.84-.32-3.79,0-.79,0-1.1,0-1.42.32-.79-.32-1.42,0-2,0a12.13,12.13,0,0,1-2.84-1h-2.22c-.63,0-1.73.31-2.36.31a4.5,4.5,0,0,0-1.74-.31c-1.1,0-2.21.31-2.84-.32-.79,0-1.74.32-1.74-.47-.47-1-.47-1.74-1.1-2.84.31-.64.63-1,1.1-1.74a6,6,0,0,0,.32-5.21,3.18,3.18,0,0,1,.31-1.74,5.47,5.47,0,0,0-.63-3.16c.32-1.42-.47-2.52,0-3.94V98.5c0-2,.63-3.79.32-6V90.76c-1.11-2.05,0-4.26-.32-6.31a21.85,21.85,0,0,0,0-4.58c.32-4,.95-8.05.63-12.32.79-.79,0-2,0-2.84,0-.32.32-.63.32-1.1-.32-1.27.47-2.37.47-3.48-.47-1.1,0-2.37-.47-3.47a3.4,3.4,0,0,0,.79-.79,8.54,8.54,0,0,0-.79-2.37,2.4,2.4,0,0,0,0-3.16c.47-1.42-.32-2.84-.32-4.26a9.36,9.36,0,0,1-.63-4.26c0-1.43-.47-2.85-.47-4.11-.63-1.89-.32-3.63-.32-5.68a4.37,4.37,0,0,1,.79-2.85c-1.1-1.73-.47-4.26,0-6.31.32-1.42-.79-2.84-.47-4.27-.63-1.73-.32-3.15-.32-4.89a13.93,13.93,0,0,1,.32-3.47l.47.31a6,6,0,0,1-.47-2.84,9.11,9.11,0,0,0-1.74-1.42,1.69,1.69,0,0,1,0-1.74,2.67,2.67,0,0,1,1.11-2.37C156.15,1.39,157.26,1.39,157.89,1.39Z"/><path d="M192.78,2.5c1.42,0,2.53.31,3.95.31a1.66,1.66,0,0,1,1.74.32c1.73-.63,3.47,1.11,5.21,0,1.42-.32,2.84.32,4.58.32s3.94,1.1,5.68.47c.32,0,.63-.47.63-.47,1.42,1.1,2.85,0,4,.47s2,.63,3.16,0h1.1l.64.63h.78c.32,0,1,.32,1.27.32,1.42.47,3.63.47,5.05,1.1h.63c1.11,1.11,2,2.53,3.16,3.48.32,0,.32.47.79.79a5.7,5.7,0,0,1,1.74,2.36c.63.79.94,1.43,1.42,1.9.94.95,2.05,1.74,2.84,2.68A31.64,31.64,0,0,0,243.15,20a1.13,1.13,0,0,0,.63.31c.48.79.48,1.9,1.11,2.21a18.55,18.55,0,0,1,2.53,7c0,1.42.31,2.84.31,4.26-.31,1.42.32,2.84.32,4.27,0,2.84.31,5.52-.32,8.36a5.51,5.51,0,0,0-.31,2.22c-.48,1.42-.79,2.68-1.43,4.57,0,.64,0,1.43-.78,1.74A9.24,9.24,0,0,1,243.15,59v.47c-.31.63-1.1,1-.79,1.74-.31.63-.94,1.42-1.26,2-.79.79-1.42,1.74-2.21,2.53a14.82,14.82,0,0,1-2.84,2.05h-.63c-1.11.79-2.22,1.1-2.85,2.21a30.62,30.62,0,0,1-5.21,1.26l-.79.79c-.63,0-1.73.32-2.37.32-.47.31-.78.31-1.1.79h-.32c-.79.63-1.73.31-2.84.31-.79.63-1.74.32-2.52.63-.95-.31-2.37,0-3.8,0-.47,0-.78.48-1.1.79,0,1,.32,2.06,0,2.85a22.89,22.89,0,0,0,.32,4.58c0,.63-.32.94-.32,1.73,0,1.42.63,3.16,0,4.58-.32,1.42.32,2.69,0,4.11,0,2.21-.32,3.94,0,5.68a23.62,23.62,0,0,0,.32,6.63c-.32,1.74.78,3.63.31,5.37a2.38,2.38,0,0,0,0,2c-.31,1.11-1,2.06-.63,3.48a5.83,5.83,0,0,1-1.11,3.63A2.13,2.13,0,0,1,210,120c-.94-.31-1.73-.31-2.37-1.1a6.83,6.83,0,0,0-2.52-.32,11,11,0,0,1-4.58,0,8.33,8.33,0,0,1-2.84,0c-.63-.31-1.74,0-2.37,0-.79-.63-1.74-.31-2.84-.63a6.21,6.21,0,0,0-1.42-1.42c0,.32-.32.32-.64.32-1.1,0-1.73-.32-2.84-.32a7.13,7.13,0,0,0-1.1-1.1c0-1.11-.64-2.06-.64-3.16a23.46,23.46,0,0,1,.95-2.53c0-.31.48-.31.48-.31v-1.11a6.29,6.29,0,0,0,1.42-3.47,7.28,7.28,0,0,1-.48-3.16v-2c0-1.74-.31-3.64.48-4.9,0-.79-.48-1.42-.48-1.89a6.66,6.66,0,0,0-.63-2.69,22.6,22.6,0,0,1,0-4.58c0-1.1-.31-2.21-.31-3.15a.85.85,0,0,0-.79-.79,1.13,1.13,0,0,1,.31-.64,2.35,2.35,0,0,1,.48-2.21s-.48-.31-.48-.63V76.4c.79-1.74-.63-3.64,0-5.06,0-.94.79-2,.79-3.47a17.69,17.69,0,0,1-.31-3.79c0-1.11.63-2.21.63-3.16a1.1,1.1,0,0,1,.31-1.42,5.77,5.77,0,0,0-.63-2.21c0-.95.63-2,.63-3.47,0-1.74-.31-3.79-.31-6,.31-1.11.79-2.06.31-3.48-.63-1.1,0-2.05-.31-3.16.31-1.73.79-3.47,0-4.89-.63-1.74,0-3.16,0-4.58-.32-1.42-.32-2.53-.63-3.95V24.92c.31-1-.48-2.05-.48-3.47-.31-.63,0-1.42,0-2.06.48-1.1-.31-2.52.48-3.63a32.38,32.38,0,0,1-.79-3.47c-.32-1.11.31-1.74.79-2.84,0-1.74.94-3.48.94-5.21.48-1.11.48-2.53,1.74-2.53C191.05,2.18,192.47,1.39,192.78,2.5Z"/><path d="M306.94,1.08h1.42a8.47,8.47,0,0,1,2.37,1.42c.79,1.89,1.42,3.63,2.21,5.37V9.6a48.74,48.74,0,0,1-1.42,9.79c-.79,4.27-.32,8.21-.32,12.32a24.94,24.94,0,0,0-.47,7.74c0,1.1-.32,2.52-.32,3.94a43,43,0,0,0,0,6.32V62a3.34,3.34,0,0,0,.32,1.73,44,44,0,0,0-.32,6.64c-.31,2.52.32,5,0,7.42-.63,1.73,0,3.94-.31,5.68a46.83,46.83,0,0,0,0,9.47c-.32,2.06-.32,4.27-1.11,6.32-.63,2-1.1,4.58-2.05,6.32-1.11,1.42-1.42,2.84-2.21,3.94-.63.64-1.74,1.42-2.37,2.06-.79.79-1.74,1.1-2.21,2a8.37,8.37,0,0,1-2.68,2.53,3.14,3.14,0,0,0-2.53,1.1h-1.11c-.94.63-2.36,1.42-3.47,2-.32,0-1.11-.31-1.74-.31-.79,1.1-2.05.63-3.16.31a25.77,25.77,0,0,0-4.89,0s-.47-.31-.47-.63c-.64,0-1.27-.47-1.74-.47-1.74.47-3.16-.32-4.58-.32-.63,0-1.42-.31-2.37-.31a7.91,7.91,0,0,0-1.73-1.42c-1.9-.32-3.16-1.74-5.06-2.06a2.28,2.28,0,0,0-1.26-1.42h-.79c-1.11-1.1-2.53-1.74-3.79-2.84a11,11,0,0,0-2.21-4.26c-.32-1.42-1.42-3.16-.95-4.9-.47-1.74-.47-3.47-1.42-4.89a11.67,11.67,0,0,0,.32-4.58,31.25,31.25,0,0,1-.32-5.69,8.2,8.2,0,0,1-.79-4.26c0-2.37-1.1-4.58-.31-7v-2c0-.79-.32-1.89-.32-2.53a5.93,5.93,0,0,0,.63-2.05V62a16.84,16.84,0,0,1,0-4,19,19,0,0,1-1.1-2.69,22,22,0,0,1-.32-4.57,5.9,5.9,0,0,0-.63-2.21,21.11,21.11,0,0,0,.95-2.37,10.11,10.11,0,0,0-.32-3.16,21.85,21.85,0,0,0,0-4.58,3.68,3.68,0,0,1-.32-2.53c.32-1.1-.63-2-.31-3.15A14.62,14.62,0,0,0,251,27.6a4.35,4.35,0,0,0-.47-3.15,2.34,2.34,0,0,0,.47-2.21h.32a11.75,11.75,0,0,0-.32-3.48c.32-1.42,0-3.16.32-4.58.31-1.73-.79-3.47-.32-5.37.32-1.26.32-3.15,1.27-3.78,1.1-.64,1.42-1.74,2.84-2.06h1.42A18.24,18.24,0,0,0,259.1,5a2.33,2.33,0,0,1,2.36.63,14.1,14.1,0,0,1,3.16-1,5.29,5.29,0,0,0,2.53-1.11,2.41,2.41,0,0,1,2.05-.31C270,3,270.62,3,271.1,2.18h1.26c.79-.31,1.42,0,2.53,0,.31.32.79.79,1.1.79A15.2,15.2,0,0,1,277.41,5a2.05,2.05,0,0,1-.47,2.05,5.31,5.31,0,0,1-.32,2.21,29.25,29.25,0,0,0,0,5.21v4.26a12.83,12.83,0,0,1,.32,3.48c-.32,2.21,0,3.94-.32,6,0,1.1.32,2.05.32,3.15v.32a58,58,0,0,0-.63,7.42c-.63.79-.32,1.74-.32,2.84-.31,1.42.32,2.53,0,3.79,0,1.11-.31,2.21-.31,3.63a6.28,6.28,0,0,1,.31,2.37A2.74,2.74,0,0,0,276,54a14.44,14.44,0,0,0-.31,3.48,35.89,35.89,0,0,0,.31,5.68c-.31,2.37-.79,5.21,0,8.05.32,1.74-.79,3.79,0,6,.32,1.74,0,3.48.32,5.22,1.1,1.73.31,3.94,1.42,5.68.63,1.42.63,3.47,1.42,5.21,1,1.42,2.37,1.42,3.79,1.11a21.46,21.46,0,0,1,2.52-4.58V89c.64-.63.64-2.06,1.11-3.16a46.83,46.83,0,0,0,0-9.47,1.12,1.12,0,0,1,.32-.64c0-1.42.31-2.84.31-3.94a38.28,38.28,0,0,0-.63-8.69,10.45,10.45,0,0,0,0-3.16c-.79-1.1,0-2.21,0-3.63,0-2.05.63-4.58.63-6.63-.31-1.42.32-3.16-.31-4.58a4.6,4.6,0,0,0-.32-2.05c0-.79.63-1.9.32-2.53,0-1.42.63-2.84.31-4.26-.31-.63,0-1.74,0-2.84-1.1-2.37,0-5.21-.63-8.06.32-1.73-.47-3.47,0-5.21,0-.31-.47-.79-.47-.79-.32-1.42,0-2.68-.32-3.79.79-.78.32-2.21.32-3.15-.32-1.74-1-3.64-2.37-4.58a10.45,10.45,0,0,1,0-3.16,5.77,5.77,0,0,1,.63-2.21,5.79,5.79,0,0,1,4.58,0,5.31,5.31,0,0,0,2.21-.32,4.27,4.27,0,0,0,2.05.32c.32,0,.63-.32,1.42-.32l.32-.31H296a2.12,2.12,0,0,1,1.43-.32c1.73,1,3.47-.47,4.89.63.63-.31,1.11,0,1.74,0A4.33,4.33,0,0,0,306.94,1.08Z"/><path d="M318.15.6a6.68,6.68,0,0,1,2.68-.31c.32,1.1.95.63,1.74.63h4.26c.32.47.63.47,1.42.47a9.31,9.31,0,0,0,3.48-.47,2.53,2.53,0,0,0,1.73.79,7.75,7.75,0,0,0,3.63-.79,7.43,7.43,0,0,1,2.53,2.84,10.38,10.38,0,0,0,.63,3.16C341,8,341.36,9.29,342,10.24c0,.79.47,1.1.79,1.73a15,15,0,0,1,.63,1.9c1.11,3.47,3.16,6.63,4.11,10.26.63,1.11,1.1,2.53,2.36,3.16-.31,0-.31.31-.31.79.79,1,.79,2.68,1.42,4.1.32,1.42,1.1,3,1.42,4.11h.32a8.86,8.86,0,0,0,.79-2.69c0-.94-.48-2.05,0-3.15.94-2.85,0-6,.63-8.69-.63-2.68-.63-5.52-1.42-7.89a2,2,0,0,0,.31-.79,24.2,24.2,0,0,1,0-4.74c.48-1.74,0-3.16.48-4.89C353.83,2,355.57,2,356.67,2c.32,0,.64-.32.95-.32a2.17,2.17,0,0,0,2.69-.32c2.84-1.1,6-.47,8.84-.79h3.47c1.58.79,2.21,2.53,4.11,2.06A21,21,0,0,1,378,4.55c0,.63.47,1.74-.32,2.05-.31,1.11-.31,2.21-.63,3.64,0,2.84-1.1,5.68,0,8.52a48.52,48.52,0,0,0,.95,6.48c.47,1.42-.32,2.84-.32,3.79a29.37,29.37,0,0,0-.31,5c0,1.89-1.11,2.84-1.11,4.26.48,1.74-.31,3.63,0,5.37,0,1.42-.31,2.68,0,3.79,1.11,5-.31,10.11,1.11,14.84a25.46,25.46,0,0,0-.32,7c-.79,1.74,0,3.47,0,5.53,0,1.73.63,3.47.32,5.21.31,3.79.63,8.21,1.1,12.47,0,1.42-.47,2.84-.47,3.79a7.05,7.05,0,0,0,.47,3.16c0,.79-.47,1.1-.47,2v2.69c-.32,2.21.79,4.57.79,6.78.32.64.63,1.43,1.11,2.37a4.54,4.54,0,0,1-1.9,3.32,10.54,10.54,0,0,1-2.68,1.1,11.12,11.12,0,0,1-3-.63,33,33,0,0,0-4.58-1.42c-1.74.32-4,1-6,.32h-.63c-.48,0-.79.31-1.27.31a5.31,5.31,0,0,0-2.21.32c-.95-.32-2.05.47-3.16,0a11.66,11.66,0,0,1-.94-1.42,24.26,24.26,0,0,0-.48-2.53,10.21,10.21,0,0,1-2.37-4.89,1.83,1.83,0,0,0-1.1-2.21,22.61,22.61,0,0,1-1.42-3.48c-.95-1.26-1.9-2.21-1.9-3.63,0-2.21-1.42-4-1.73-6a14.55,14.55,0,0,1-.64-3.47V86a10.45,10.45,0,0,0,0-3.16c-1.1-2.84-1.42-5.69-3.63-7.74a43,43,0,0,0,.79,6.63v3.16c-.31,1.11,0,2.53,0,4.11a25.71,25.71,0,0,0,0,4.89c.32,1.11-.31,2-.31,3.48a3,3,0,0,1-.48,2c-.31,2.68.79,5.21-.31,7.26V113a3.78,3.78,0,0,0-.32,2.68c0,1.42,0,2.84-1.1,3.79-.32.32-1.43,1.42-2.06.79a2.59,2.59,0,0,0-2.21-.79h-.31a6.67,6.67,0,0,0-2.53-.31,1.94,1.94,0,0,1-.79.31c-1.42-.31-2.84-.31-4.26-.63a.31.31,0,0,1-.32.32c-1.42-.64-3.16-.64-4.58-1.11a12.23,12.23,0,0,0-4.73-.32c-1.74.32-2.85-1.42-2.85-2.84a26.49,26.49,0,0,1,.79-5c0-.32.32-.32.32-.63V106.4a54.82,54.82,0,0,0,.79-7.27,4,4,0,0,1,.31-3.79,35,35,0,0,0-.31-5.68,10.38,10.38,0,0,1,.31-3c-.31-2,.32-4.11.32-6.63,0-1.42-.32-2.85-.32-4.27.32-.31,0-.94-.31-1.58a2.13,2.13,0,0,0,.31-1.42c-.79-1.42-.31-3.15-.31-4.89.31-1.74,0-3.48.31-5.21-.31-1.9.32-3.32.32-4.74a36.78,36.78,0,0,1-.32-5.68,9.71,9.71,0,0,0-.79-4.74v-.63c-.31-1.11,0-2.53-.31-3.63a16.28,16.28,0,0,1,.31-3.79c-.31,0-.31-.32-.31-.79,0-2.69.79-5.69.31-8.84a17,17,0,0,1,.79-6.32,55,55,0,0,0,0-7.26c-.79-1.11-.31-2.37-.79-3.79.79-1.11.48-2.53,1.11-3.64a3.19,3.19,0,0,0-.32-2.52A5.56,5.56,0,0,0,315,4.55a4.76,4.76,0,0,0,.31-1.89C316.41,2,316.73.6,318.15.6Z"/><path d="M419.83.13c.63-.32,1.73,0,2.68.32,0,.47.48.47.79.79.63-.32.95,0,1.74.31,1.1,0,2-.31,3.16-.31.31.31.63.31,1.26.63a24.91,24.91,0,0,1,4.89,0c1.11.31,2.06.79,3.16.31a1.18,1.18,0,0,0,.32.79h1.1a1.13,1.13,0,0,0,.64-.31,10.84,10.84,0,0,1,5.05-.48c1.1.48,1.89.79,2.21,1.9,0,.63-.32,1.58-.32,2.21-.79.63-1.1,1.42-1.89,1.74,0,.31,0,.78-.32.78a4.55,4.55,0,0,1-1.89,2.37c-1.11,1.11-1.11,2.53-2.06,3.16a22.58,22.58,0,0,1-3.15,6.16c-.79,1.42-1.11,3.16-2.21,4.26-.64,1.42-.95,2.84-1.74,3.79-1.74,3.16-3.16,6.48-5.05,9.63a24.41,24.41,0,0,1-1.74,4.27,11.71,11.71,0,0,1,0,4.73c1.11,3.48,2.37,7.43,3.63,11.21.32,2.06,1.74,3.48,1.74,5.53a8.48,8.48,0,0,1,1.1,1.74A5.16,5.16,0,0,0,434,68.82c.31,2.05,1.42,4.42,2,6.47.32,1.74,1.11,3.16,1.42,5.37,0,1,.63,2.37.63,3.47.48,1.42,1.11,3,1.43,4.42.47,1,0,2.06.47,2.69.95,2.52,1.74,5.37,2.68,7.42a15,15,0,0,1,1.9,4.42,14.1,14.1,0,0,0,.79,2.53,33.47,33.47,0,0,0,1.73,5.21,21.33,21.33,0,0,0,1.74,4.73v1.74c.32,0,.32.32.79.79-.79.63-1.1,1.74-2.21,2-.95.32-1.74-.31-2.84-1.1H444c-1.9,0-3.64.31-5.37-.32a5.46,5.46,0,0,0-2.21-.31,2.45,2.45,0,0,1-2.06-.32h-1.1c-1.74,0-3.16-.47-4.74-.47-.63,0-.94.47-1.42.79a2.15,2.15,0,0,1-1.42.31,5.48,5.48,0,0,1-2.37-.31c-1.1-.79-2.84-2.21-2.21-3.64v-1.42c0-1.1-.31-2.21-.31-3.15-.32-1.11-.95-1.9-.64-2.85-1.1-2.52-.31-5.68-2.21-7.89a22.9,22.9,0,0,1-2.21-5.69c-.31-1.1-.31-2.52-1.1-3.15v-.32a12.12,12.12,0,0,1-.95-4.74c-.79-1.42-.47-3.15-1.11-4.58a10.92,10.92,0,0,0-1.42-3.15,8.21,8.21,0,0,1-1.1,2.36.94.94,0,0,1-1,.48c-.79,1.74,0,3.16.32,4.58,0,2.21-.79,3.94-.32,5.68-.47,2.84-.79,6-1.1,8.84,0,2.69.63,5.37-.32,7.9.32,2.53-.32,5.21.63,7.89.32.64,0,1.42,0,2.06a16.82,16.82,0,0,1-2.05,1.42,8.59,8.59,0,0,1-2.84-.32c-.63,0-1.27.32-1.9.32a4.46,4.46,0,0,0-2.84-.32,7.64,7.64,0,0,1-3.79-.31,21.66,21.66,0,0,1-2.53.94c-1.42-.94-2.84-.31-4.73-.31-.63-.32-1.42.31-2.53.31a6.56,6.56,0,0,1-2-1.73,14.35,14.35,0,0,0-.32-5.06c-.79-1.1-.79-2.84.32-3.47.63-1.74,1.1-3.16.63-4.89-.32-2.53.47-4.74,0-7.27V94.55c0-.79-.32-1.42-.32-2.21a4.6,4.6,0,0,1,.32-2,60.07,60.07,0,0,1-.32-7.58,24.79,24.79,0,0,0,.79-7.74,26.57,26.57,0,0,0,0-5,37.55,37.55,0,0,0,0-6c0-2.05-.79-4.26-1.1-6.47v-4.9a1.94,1.94,0,0,0,.31-.79c-.31-1.1.32-2,0-3.47,0-3,.79-5.53.79-8.21-.47-1.42.32-2.84-.47-4.26a7.43,7.43,0,0,0,.47-3.16,68.53,68.53,0,0,1-.79-9.63,10.42,10.42,0,0,0-.31-3.16c.31,0,.31-.48.63-.79a66,66,0,0,1,.79-7.9,4.6,4.6,0,0,0-.32-2c0-.32.32-1.1.32-1.74a20.28,20.28,0,0,1-1.11-3,8.1,8.1,0,0,0,1.11-1.73c1.1-.79,2.05,0,2.84.31.63,0,.95.63,1.58,1.11,1.42,0,2.37.31,3.47,0H393c1.1-.48,1.89,0,2.84,0a1.64,1.64,0,0,1,1.42-.79c1.1.31,2.21-.32,3.16-.63h3.31a5.46,5.46,0,0,1,2.21.31h2.37c.79,1.42,1.11,2.69,1.74,3.63a23.15,23.15,0,0,1-.63,4.58v6a24.16,24.16,0,0,1,0,4.74c1.42-1.74,1.42-4.42,2.37-6.16a16.8,16.8,0,0,1,1.89-3.16C414.3,10.08,416.51,8,417,5c.31-.64,0-1.43.31-2.06a1.75,1.75,0,0,1,.63-1.42c0-.31.48-.63.48-1.1A2.08,2.08,0,0,1,419.83.13Z"/><path d="M481.88.92c.63,0,1.42.32,1.74.32h.31a19.2,19.2,0,0,1,4.58,1.42,1.21,1.21,0,0,1,.79-.32,1.16,1.16,0,0,0,.95.32,8.37,8.37,0,0,0,2.84,1.73c1.1.79,1.74,1.74,2.84,2.53a6.92,6.92,0,0,0,1.42,2.84c.32.63.63.63,1.11,1,.31.79.63,1.1.63,1.74.63,1.42.63,2.84,1.74,3.94.31.64.31,1.43,1.1,2.06.32.79.63,1.73.95,2.52a10.2,10.2,0,0,0,1.89,2.37,5.41,5.41,0,0,0,1.43,2.84,9,9,0,0,0,.31,2.85,9.87,9.87,0,0,0,0,4.26c.32.63.32,1.42.63,2.05a8.94,8.94,0,0,1-2.37,2.53c-.47.31-1.1,0-1.42,0a2.53,2.53,0,0,1-1.73-.79,9.72,9.72,0,0,0-3.64.47c-1.42,0-2.84.32-4.1.32a2.92,2.92,0,0,1-3.16.31c-.47.32-1.1.32-1.42.64-1.42,0-2.84-.64-3.95-.64-.31,0-.63.32-1.1.64h-1.74a21.82,21.82,0,0,1-1.42-2.69,26,26,0,0,1-.32-5.05,29.28,29.28,0,0,0-.63-5.53c-1.1-1.1-1.42-2.52-2.84-2.21-1.42.48-3.16.79-3.95,1.9a10.67,10.67,0,0,0-2.05,3.47c0,1.11.32,2.05.32,2.84.31,1.74,1.42,3.16,1.73,4.58.48.95.79,2,1.11,2.69,1.42,1.42,2.52,2.84,4,4.26a23.72,23.72,0,0,0,1.73,2.53,17.93,17.93,0,0,1,4.58,5.21,3.87,3.87,0,0,1,1.74,1.42c.63,1.1,1.73,1.73,2.37,2.52.79.63,1.1,1.42,2.21,2.06,1.42,1.73,2.84,3.47,4.58,5.36,1.73,1,2.84,2.69,4.1,4.11a19.87,19.87,0,0,1,3.63,5.37v1a10.3,10.3,0,0,0,.95,1.89c1.9,1,1.9,3.16,2.53,4.9a36.23,36.23,0,0,1,1.73,5.52c-.31,3.63-1.1,6.79-1.42,10.27-.94,1.42-.94,3.15-1.73,4.57-.32,1.43-1.43,2.06-1.74,3.48a6,6,0,0,0-1.42,2.84c-1.42,1.74-3.16,3.16-4.27,4.89-.63.79-1.42,1.11-1.73,1.74-1.42,1.11-2.84,1.42-4.27,2.84-2.05,1.42-4.89,1.74-7.26,2.85-.79.63-1.42.31-2.21.31-.95.32-2.37.32-3.47.79a1,1,0,0,1-.63.32c-1.9-.32-3.32,0-4.58-.32-1.9-.47-3.16.63-4.58,0-.48,0-1.11-.47-1.42-.47-3.16-2.06-6.79-3.48-8.85-6.32a17.79,17.79,0,0,1-1.73-1.74c-.79-.94-2.21-2-2.85-3.47-.31-.79-1.42-1.42-1.73-2.53-.32-.94-1.11-1.73-1.11-2.36-.63-1.74-.94-3.64-1.73-5.37a25.4,25.4,0,0,0-2.53-8.37c0-.32-.32-.79-.32-1.11l.32-.31c-.32,0-.63-.32-.95-.32-1.42-1.42-1.42-3.16-1.1-4.89.79-.48,1.1-1.11,2.05-1.11h1.1a14.58,14.58,0,0,0,3.48.63c2.52-.94,5.37-.31,7.42-1.73a6.09,6.09,0,0,1,2.53-.32,22.19,22.19,0,0,0,4.26-1.42,5,5,0,0,1,2.37-1.42c.31.31,1.1.31,1.73.79a3.76,3.76,0,0,1,.48,4.58c0,.63-.79.94-.48,2.05a16.87,16.87,0,0,0,3.64,8.84c.94.63,2.05,1,3.15,1.74.64.63,1.74,0,2.37-.32v.64c.79-.64,1.42-1.11,2.21-1.74,0-.79.32-1.11.95-1.74,0-1.74.79-3.95-.32-5.68-.63-.63-.31-2.06-1.1-3.16-.63-.63-1.42-2.05-2-2.84-.32-.32-.32-1.11-.63-1.42-1.11-.32-1.43-1.43-2.22-2.06-1.42-.79-1.73-1.73-2.84-2.52a20.52,20.52,0,0,1-3.16-3.16c-.94-1.74-2.84-2.84-3.79-4.58a3.75,3.75,0,0,1-1.42-1,1.72,1.72,0,0,1-.31-1.1c-.79-1.11-1.9-1.74-2.84-2.85-.79-1.1-1.11-2-1.74-2.52-.79-.63-1.11-1.74-1.74-2-.79-.64-1.1-2.06-2.21-2.37-.31-2.21-2.05-3.32-2.84-5.37-.95-.32-1.42-1.42-2.37-2a17.6,17.6,0,0,1-1.1-1.74,7.07,7.07,0,0,1-2.06-3.63,28.88,28.88,0,0,0-.79-5.53V34.71c0-1.11-.63-2.53,0-3.63.32-1.26.79-3.16,1.11-4.9a6.2,6.2,0,0,1,.31-2.36s0-.48.32-.48a7.24,7.24,0,0,0,.79-3.16,12.89,12.89,0,0,1,1.11-2.05c.31-.31.31-1.1.63-1.74.63-1.1,1.1-2.84,2.52-3.15A9.38,9.38,0,0,1,455,10.71c.79-.32,1.42-.63,2.21-1a5.74,5.74,0,0,1,1.42-2.21c1.73.79,2.37-1.74,4.1-1.74C465,5.18,466.09,3,468.46,3c.79.79,1.73-.31,2.84-.63,1.1,0,2.05-1.1,3.16-1.42.31.32,1.1.32,1.42.32C477.93,1.24,479.67.92,481.88.92Z"/><path d="M41.88,163.41c-.33.59-3.78,2.68-4.93,3.33-3.38,1.9-6,2.87-7.7,2.87-2.75,0-3.72-1.71-3.72-3.18A18.37,18.37,0,0,1,27.26,160c-3.06,0-7,0-10.93.21-3.77,3.67-7.34,6.93-10.08,8.66a.8.8,0,0,1-1.09-.26.79.79,0,0,1,.24-1.09,62.61,62.61,0,0,0,8.48-7.16,79.22,79.22,0,0,0-10.73,1.34.8.8,0,1,1-.33-1.56,89.55,89.55,0,0,1,12.82-1.5c1.61-1.57,3.25-3.21,4.87-4.83,8.79-8.81,14.34-14.16,17.36-14.16a1,1,0,0,1,.85.48c.32.55.13,1.3-.83,3.18-.66,1.3-1.61,3-2.72,4.93-1.77,3.11-3.87,6.82-5.48,10.22a15.41,15.41,0,0,1,4.36.51.8.8,0,0,1,.28,1.08.8.8,0,0,1-1.06.31,25.32,25.32,0,0,0-4.3-.32,18.17,18.17,0,0,0-1.84,6.37c0,.59.27,1.58,2.12,1.58,3.23,0,10.52-4.77,11.32-5.49a.79.79,0,0,1,1.31.89Zm-13.93-5c1.68-3.66,3.95-7.65,5.83-11,1.28-2.24,2.68-4.72,3.24-6-1,.39-2.66,1.45-5.47,3.92s-6.33,6-9.91,9.57l-3.6,3.6c1.4-.06,2.67-.09,3.73-.11C21.82,158.44,24.89,158.38,28,158.44Z"/><path d="M55.7,162.46a.79.79,0,0,1,.77-.22.82.82,0,0,1,.57.57.81.81,0,0,1-.22.78c-1.38,1.38-6.27,5.89-10.94,5.89-2.34,0-5.13-1-5.13-5.86,0-4.68,4.9-12.57,6.41-14.87a60,60,0,0,1,4.92-6.62c2.33-2.66,3.32-3,3.92-3a1.27,1.27,0,0,1,1.3,1.37c0,3.89-3.47,9.3-5.54,12.17-3.08,4.28-6.72,8.11-9.25,9.76l-.07,0a8.77,8.77,0,0,0-.1,1.15c0,3.78,1.89,4.27,3.54,4.27,4.16,0,8.91-4.53,9.82-5.43ZM43.1,160a48.75,48.75,0,0,0,7.36-8.25c3.17-4.41,5.06-8.33,5.23-10.86-1,.66-3.82,3.53-7.33,8.94A49.7,49.7,0,0,0,43.1,160Z"/><path d="M70.46,162.46a.79.79,0,0,1,.77-.22.82.82,0,0,1,.57.57.81.81,0,0,1-.22.78c-1.38,1.38-6.27,5.89-10.94,5.89-2.34,0-5.13-1-5.13-5.86,0-4.68,4.9-12.57,6.41-14.87a60,60,0,0,1,4.92-6.62c2.33-2.66,3.32-3,3.92-3a1.27,1.27,0,0,1,1.3,1.37c0,3.89-3.47,9.3-5.54,12.17-3.08,4.28-6.72,8.11-9.25,9.76l-.06,0a7.34,7.34,0,0,0-.11,1.15c0,3.78,1.9,4.27,3.54,4.27,4.16,0,8.91-4.53,9.82-5.43ZM57.86,160a48.75,48.75,0,0,0,7.36-8.25c3.17-4.41,5.06-8.33,5.23-10.86-1,.66-3.82,3.53-7.32,8.94A49.31,49.31,0,0,0,57.86,160Z"/><path d="M109.22,162.35a.8.8,0,1,1,.85,1.35A57.9,57.9,0,0,1,103.5,167c-4,1.73-7.18,2.6-9.54,2.6A6.83,6.83,0,0,1,88.23,167a8.78,8.78,0,0,1-1.57-5.15c0-2.61.92-8.05,7.07-15.19,3.23-3.74,7.75-7.52,10.14-7.52a2,2,0,0,1,1.8,1c.65,1.2.31,3.24-.82,5a.8.8,0,0,1-1.34-.87c.84-1.29,1.07-2.77.76-3.35a.4.4,0,0,0-.4-.21c-1.22,0-5,2.43-8.93,7-4.25,4.92-6.69,10.08-6.69,14.14,0,5.92,4.76,6.22,5.71,6.22,5.08,0,13.77-4.77,15.26-5.7Z"/><path d="M134,163.63a47.37,47.37,0,0,0-16,5.75,70.27,70.27,0,0,1-4,7.88c-1.92,3.27-6.78,10.88-10.26,10.88a1.76,1.76,0,0,1-1.72-1.93c0-1.91,2-6.88,7.25-12.12a40.47,40.47,0,0,1,7.47-5.81,20.29,20.29,0,0,0,1.83-6.6,4.71,4.71,0,0,0,0-.53c-.86.34-3.12,2.63-4.37,3.9-2.49,2.53-3.44,3.41-4.26,3.41s-1.44-.61-1.44-2c0-3.41,2.15-6.22,3.31-7.72a.78.78,0,0,1,.74-.32.79.79,0,0,1,.65.49.82.82,0,0,1-.12.8c-1.44,1.88-3,4.1-3,6.75a1.64,1.64,0,0,0,0,.23,32.7,32.7,0,0,0,3-2.79c3-3,4.48-4.41,5.66-4.41,1.47,0,1.47,1.57,1.47,2.16a17.37,17.37,0,0,1-1.22,5.35,49.75,49.75,0,0,1,14.82-5,.79.79,0,0,1,.6.13.83.83,0,0,1,.33.52A.81.81,0,0,1,134,163.63Zm-21.41,12.82c1.09-1.85,2.08-3.72,2.92-5.5a37.7,37.7,0,0,0-5.16,4.28c-5.06,5-6.77,9.64-6.77,11,0,.33.09.33.12.33.4,0,1.56-.28,3.83-2.86a50.28,50.28,0,0,0,5.06-7.23Z"/><path d="M154.9,163.69c-3.06,2-11.93,5.81-18,5.81-3,0-4.78-1.39-4.78-3.73a7.89,7.89,0,0,1,2.26-4.93c1.4-1.55,3-2.48,4.18-2.48a1.75,1.75,0,0,1,1.63.89,3.55,3.55,0,0,1-.26,3.08.77.77,0,0,1-.7.39.79.79,0,0,1-.68-.42.77.77,0,0,1,0-.8,2.26,2.26,0,0,0,.22-1.48s-.11-.06-.24-.06a5.16,5.16,0,0,0-3,1.95,6.36,6.36,0,0,0-1.85,3.86c0,1.77,1.73,2.14,3.18,2.14,5.73,0,14.18-3.62,17.1-5.55a.79.79,0,0,1,1.11.22A.81.81,0,0,1,154.9,163.69Z"/><path d="M168.62,162.46a.79.79,0,0,1,.77-.22.82.82,0,0,1,.57.57.81.81,0,0,1-.22.78c-1.38,1.38-6.27,5.89-10.93,5.89-2.35,0-5.14-1-5.14-5.86,0-4.68,4.9-12.57,6.41-14.87a60,60,0,0,1,4.92-6.62c2.33-2.66,3.32-3,3.92-3a1.28,1.28,0,0,1,1.31,1.37c0,3.89-3.48,9.3-5.55,12.17-3.08,4.28-6.71,8.11-9.25,9.76l-.06,0a7.34,7.34,0,0,0-.11,1.15c0,3.78,1.9,4.27,3.55,4.27,4.15,0,8.9-4.53,9.81-5.43ZM156,160a48.75,48.75,0,0,0,7.36-8.25c3.18-4.41,5.06-8.33,5.24-10.86-1.06.66-3.83,3.53-7.33,8.94A49.81,49.81,0,0,0,156,160Z"/><path d="M186.27,163.16a.86.86,0,0,1-.33.52c-2.39,1.68-9.16,5.37-13.69,5.37a3.61,3.61,0,0,1-3.5-1.84c-1.27-2.39.16-6.37,1.17-7.86a.8.8,0,0,1,1.39.09.82.82,0,0,1-.06.8c-.87,1.28-1.94,4.62-1.09,6.22a2.12,2.12,0,0,0,2.09,1c4.23,0,10.84-3.72,12.77-5.08a.8.8,0,0,1,1.11.19A.86.86,0,0,1,186.27,163.16Zm-15.52-5.72a.79.79,0,0,1,1.57,0,.79.79,0,1,1-1.57,0Z"/><path d="M205.68,163.81a76.11,76.11,0,0,0-13.94,3.65c-.52.2-1,.39-1.4.58a3.64,3.64,0,0,1,.07.74A3.19,3.19,0,0,1,189,171.3a4.42,4.42,0,0,1-2.48.92,1.46,1.46,0,0,1-1.62-1.46c0-1.16,1.12-2.32,3.42-3.51a10.91,10.91,0,0,0-1.45-1.53c-1-.91-2-1.85-2-3.11a4.58,4.58,0,0,1,2.26-3.65,6.94,6.94,0,0,1,3.48-1.29,2.55,2.55,0,0,1,2.28,1.14,3.48,3.48,0,0,1-.06,3.36.79.79,0,0,1-.66.46.8.8,0,0,1-.72-.34.77.77,0,0,1-.06-.8,2.07,2.07,0,0,0,.15-1.83,1,1,0,0,0-.93-.39c-1.17,0-4.15,1.48-4.15,3.34,0,.57.72,1.24,1.47,1.94a10.36,10.36,0,0,1,1.81,2l1.44-.59a78,78,0,0,1,14.24-3.73.8.8,0,0,1,.93.65A.81.81,0,0,1,205.68,163.81Zm-16.87,5c-1.74.94-2.2,1.58-2.32,1.85a2.81,2.81,0,0,0,1.39-.52,1.79,1.79,0,0,0,.93-1.32Z"/><path d="M221,163.48a37.43,37.43,0,0,1-5.15,5.17c-3.44,2.89-6.33,4.36-8.58,4.36s-3.8-1.73-3.8-4.2c0-4.54,3.44-11.66,6.33-16.84.49-.87,1-1.74,1.48-2.57-3,.14-5.68.33-6.43.47a.8.8,0,0,1-.91-1,.82.82,0,0,1,.61-.53c.94-.18,4.32-.4,7.72-.55a67.08,67.08,0,0,1,4.92-7.28.8.8,0,0,1,1.35.32.8.8,0,0,1-.2.78,65.34,65.34,0,0,0-4.15,6.11c2.86-.11,5.38-.15,6-.06a.82.82,0,0,1,.69.91.81.81,0,0,1-.9.68c-.66-.09-3.66,0-6.84.11-.65,1.08-1.32,2.23-2,3.43-4,7.19-6.14,12.74-6.14,16.06,0,1.92,1.19,2.6,2.21,2.6,1.84,0,4.45-1.38,7.55-4a36.91,36.91,0,0,0,4.87-4.86.77.77,0,0,1,.51-.33.8.8,0,0,1,.8,1.24Z"/><path d="M275.63,163.41c-.33.59-3.78,2.68-4.94,3.33-3.37,1.9-6,2.87-7.69,2.87-2.75,0-3.73-1.71-3.73-3.18A18.37,18.37,0,0,1,261,160c-3.06,0-6.95,0-10.93.21-3.76,3.67-7.33,6.93-10.08,8.66a.8.8,0,0,1-.85-1.35,62.6,62.6,0,0,0,8.49-7.16,78.82,78.82,0,0,0-10.73,1.34.8.8,0,1,1-.34-1.56,89.86,89.86,0,0,1,12.83-1.5c1.6-1.57,3.24-3.21,4.87-4.83,8.78-8.81,14.34-14.16,17.36-14.16a1,1,0,0,1,.85.48c.32.55.13,1.3-.83,3.18-.66,1.3-1.62,3-2.72,4.93-1.77,3.11-3.87,6.82-5.49,10.22a15.56,15.56,0,0,1,4.37.51.8.8,0,0,1,.28,1.08.8.8,0,0,1-1.06.31,25.49,25.49,0,0,0-4.31-.32,18.17,18.17,0,0,0-1.84,6.37c0,.59.28,1.58,2.13,1.58,3.23,0,10.52-4.77,11.31-5.49a.8.8,0,0,1,1.32.89Zm-13.93-5c1.68-3.66,3.94-7.65,5.83-11,1.27-2.24,2.68-4.72,3.24-6-1,.39-2.66,1.45-5.48,3.92s-6.32,6-9.9,9.57c-1.2,1.2-2.41,2.42-3.61,3.6,1.41-.06,2.68-.09,3.73-.11C255.57,158.44,258.63,158.38,261.7,158.44Z"/><path d="M294.45,163.8c-7.16,1.65-10.35-.26-12.06-1.28a3.64,3.64,0,0,0-1-.49c-1.33,0-4.29,2.45-7.37,7.14a.82.82,0,0,1-.94.31.81.81,0,0,1-.57-.81,21.51,21.51,0,0,1,1.69-5.14,35.62,35.62,0,0,1,2.78-5.38.8.8,0,1,1,1.31.91,36.76,36.76,0,0,0-2.78,5.46c2-2.31,4.15-4.09,5.88-4.09a3.66,3.66,0,0,1,1.81.72c1.63,1,4.36,2.6,10.89,1.1a.75.75,0,0,1,.6.1.79.79,0,0,1-.24,1.45Z"/><path d="M315.15,163.69c-2.74,1.81-10.89,5.79-17.27,5.79a4.4,4.4,0,0,1-4.78-4.7A6.35,6.35,0,0,1,295,160.6a5.3,5.3,0,0,1,3.53-1.89,1.76,1.76,0,0,1,1.71,1.85,4.28,4.28,0,0,1-2.38,3.44,3.35,3.35,0,0,1-3,0,3.22,3.22,0,0,0-.09.76,2.84,2.84,0,0,0,3.18,3.11c5.69,0,13.48-3.6,16.38-5.53a.8.8,0,0,1,.6-.12.82.82,0,0,1,.51.34A.81.81,0,0,1,315.15,163.69Zm-19.71-1.14a1.77,1.77,0,0,0,1.67,0,2.72,2.72,0,0,0,1.48-2,.55.55,0,0,0-.07-.25h0a3.87,3.87,0,0,0-2.37,1.39A6.11,6.11,0,0,0,295.44,162.55Z"/><path d="M354,158.82c0,2.79-1.53,5.31-4.44,7.28-4.42,3-11.22,4-15.48,2.35a.8.8,0,0,1-.45-1,.81.81,0,0,1,1-.45c3.81,1.51,10,.55,14-2.19,1.7-1.16,3.73-3.13,3.73-6a3.85,3.85,0,0,0-1.3-3c-1.46-1.33-4.05-1.89-7.27-1.59l-.27.06c-.35.08-1,.23-1.31-.4s.28-1.07.47-1.21a43.63,43.63,0,0,0,7.11-6.73c2-2.39,2.41-3.67,2.44-4.07h0c-2.16,0-6.55,4.81-9.66,8.92a92.05,92.05,0,0,0-10.69,18.23.81.81,0,0,1-1,.43.79.79,0,0,1-.47-1c2.5-6.75,6.36-14.78,8.44-19,1.27-2.58,2.57-5.11,3.66-7.14.46-.86.86-1.59,1.15-2.09.48-.83.69-1.21,1.27-1.14a.82.82,0,0,1,.66.54.83.83,0,0,1-.21.83c-.48.7-3.54,6.38-6.86,13.3.92-1.35,1.85-2.68,2.81-3.94,2.69-3.57,7.69-9.56,10.93-9.56a1.48,1.48,0,0,1,1.54,1c.37,1.12-.53,3-2.66,5.62a42.19,42.19,0,0,1-5.68,5.66c2.9,0,5.21.7,6.74,2.09A5.44,5.44,0,0,1,354,158.82Zm-9.29-18.08h0Zm.15,0,.14,0Z"/><path d="M378.92,163.69c-2.73,1.81-10.88,5.79-17.26,5.79a4.4,4.4,0,0,1-4.78-4.7,6.31,6.31,0,0,1,1.85-4.18,5.3,5.3,0,0,1,3.53-1.89,1.76,1.76,0,0,1,1.71,1.85,4.28,4.28,0,0,1-2.38,3.44,3.35,3.35,0,0,1-3,0,3.22,3.22,0,0,0-.09.76,2.84,2.84,0,0,0,3.18,3.11c5.69,0,13.47-3.6,16.38-5.53a.8.8,0,0,1,.6-.12.82.82,0,0,1,.51.34A.81.81,0,0,1,378.92,163.69Zm-19.7-1.14a1.75,1.75,0,0,0,1.66,0,2.73,2.73,0,0,0,1.49-2,.46.46,0,0,0-.08-.25h0a3.87,3.87,0,0,0-2.37,1.39A6.11,6.11,0,0,0,359.22,162.55Z"/><path d="M400.72,163.26a.83.83,0,0,1-.29.54,44,44,0,0,1-4.73,3.25c-3,1.77-5.52,2.67-7.51,2.67-2.16,0-3.69-.67-4.54-2a4.87,4.87,0,0,1-.72-2.87c-.32.37-.65.74-1,1.1-2.33,2.5-3.38,2.79-4,2.79-1.2,0-1.75-1.13-1.75-2.19,0-2.81,2.92-6.8,5.64-6.8a3,3,0,0,1,2.13,1l.1.12a.78.78,0,0,1,.94.07.8.8,0,0,1,.21.93c-.52,1.18-1.17,3.56-.26,5,.55.83,1.63,1.25,3.21,1.25,4.15,0,10.53-5,11.24-5.57a.83.83,0,0,1,.59-.17.78.78,0,0,1,.53.29A.84.84,0,0,1,400.72,163.26ZM383,162.18a1.62,1.62,0,0,0-1.18-.82c-1.54,0-4,2.91-4,5.21,0,.42.12.58.15.59s.72,0,2.82-2.29A32,32,0,0,0,383,162.18Z"/><path d="M423.18,163.7l-.06,0c-5.43,3.37-10.19,5.22-13.41,5.22a3.66,3.66,0,0,1-3.54-1.79,4.57,4.57,0,0,1-.37-3c-2.22,2.58-4.15,4.43-5.6,4.43a1.72,1.72,0,0,1-1.75-1.57,9.91,9.91,0,0,1,.93-4.44,14.54,14.54,0,0,1,.91-1.91c.48-.87.76-1.1,1.06-1.2a.8.8,0,0,1,.68,1.43,12.81,12.81,0,0,0-1.49,3.11c-.73,2.1-.53,2.88-.43,3h.09c.12,0,.84-.11,2.78-2.11,1.27-1.3,2.61-2.94,3.59-4.14.6-.74,1.08-1.33,1.38-1.65a.82.82,0,0,1,1.25,1.06c-1.68,2.62-2.3,5-1.63,6.24a2.23,2.23,0,0,0,2.14,1c2.93,0,7.39-1.76,12.56-5l.07,0a.78.78,0,0,1,.6-.09.75.75,0,0,1,.5.35A.8.8,0,0,1,423.18,163.7Z"/><path d="M438.24,163.48a37.43,37.43,0,0,1-5.15,5.17c-3.44,2.89-6.33,4.36-8.58,4.36s-3.8-1.73-3.8-4.2c0-4.54,3.44-11.66,6.33-16.84.49-.87,1-1.74,1.48-2.57-2.95.14-5.68.33-6.43.47a.79.79,0,0,1-.76-.26.77.77,0,0,1-.15-.78.82.82,0,0,1,.61-.53c.94-.18,4.32-.4,7.72-.55a65.55,65.55,0,0,1,4.92-7.28.78.78,0,0,1,.76-.23.79.79,0,0,1,.59.55.8.8,0,0,1-.2.78,65.34,65.34,0,0,0-4.15,6.11c2.86-.11,5.38-.15,6.05-.06a.82.82,0,0,1,.69.91.81.81,0,0,1-.9.68c-.67-.09-3.66,0-6.84.11-.65,1.08-1.32,2.23-2,3.43-4,7.19-6.14,12.74-6.14,16.06,0,1.92,1.19,2.6,2.21,2.6,1.84,0,4.45-1.38,7.55-4a36.91,36.91,0,0,0,4.87-4.86.77.77,0,0,1,.51-.33.8.8,0,0,1,.8,1.24Z"/><path d="M454.61,163.16a.8.8,0,0,1-.32.52c-2.4,1.68-9.16,5.37-13.69,5.37a3.61,3.61,0,0,1-3.5-1.84c-1.27-2.39.16-6.37,1.17-7.86A.8.8,0,0,1,439,159a.78.78,0,0,1,.66.45.77.77,0,0,1-.06.8c-.86,1.28-1.93,4.62-1.08,6.22a2.11,2.11,0,0,0,2.09,1c4.23,0,10.84-3.72,12.77-5.08a.79.79,0,0,1,1.24.79Zm-15.51-5.72a.78.78,0,0,1,1.56,0,.78.78,0,1,1-1.56,0Z"/><path d="M470.76,163.28a.81.81,0,0,1-.41.46A36.28,36.28,0,0,1,462.3,166a35.45,35.45,0,0,1-6,.63q-.75,0-1.44-.06a16.57,16.57,0,0,1,.16,5.95,31.44,31.44,0,0,1-2.49,8.82c-1,2.08-1.94,3.09-2.91,3.09-1.49,0-1.49-2-1.49-2.81,0-2.71.8-10.67,8.26-26.06a109.92,109.92,0,0,1,6.29-11.41c3.28-5.08,4.36-5.08,4.82-5.08a1.27,1.27,0,0,1,1.22.86c.18.5.3,1.51-.84,4.36a54.62,54.62,0,0,1-3.28,6.55c-3.21,5.51-7,10.45-10.22,13.2l-.05,0c-.09.21-.17.41-.25.62l.09.15a23.07,23.07,0,0,0,7.85-.42,35.5,35.5,0,0,0,7.63-2.11.8.8,0,0,1,1.07.36A.86.86,0,0,1,470.76,163.28Zm-17.49,3.49c-2.29,6.11-3.54,11.28-3.54,14.84a5.45,5.45,0,0,0,.07,1.07c.53-.49,1.57-2.2,2.52-5.29C453.41,173.83,454,169.41,453.27,166.77Zm2.72-6.59A62.16,62.16,0,0,0,463.21,150c3-5.07,3.92-8.09,4-9.17a20.51,20.51,0,0,0-3.52,4.6,114.88,114.88,0,0,0-6.12,11.25C457,157.88,456.5,159,456,160.18Z"/><path d="M493.25,163.7l-.06,0C487.76,167.11,483,169,479.78,169a3.66,3.66,0,0,1-3.54-1.79,4.64,4.64,0,0,1-.37-3c-2.22,2.58-4.15,4.43-5.6,4.43a1.7,1.7,0,0,1-1.74-1.57,9.9,9.9,0,0,1,.92-4.44,15.94,15.94,0,0,1,.91-1.91c.48-.87.77-1.1,1.06-1.2a.8.8,0,0,1,.68,1.43,13.22,13.22,0,0,0-1.49,3.11c-.73,2.1-.53,2.88-.43,3h.09c.12,0,.84-.11,2.78-2.11,1.27-1.3,2.61-2.94,3.59-4.14.6-.74,1.08-1.33,1.39-1.65a.82.82,0,0,1,1.24,1.06c-1.68,2.62-2.3,5-1.63,6.24a2.24,2.24,0,0,0,2.14,1c2.93,0,7.39-1.76,12.57-5l.06,0a.79.79,0,0,1,.6-.09.75.75,0,0,1,.5.35A.8.8,0,0,1,493.25,163.7Z"/><path d="M507,162.46a.8.8,0,1,1,1.13,1.13c-1.39,1.38-6.28,5.89-10.94,5.89-2.34,0-5.14-1-5.14-5.86,0-4.68,4.91-12.57,6.41-14.87a62.64,62.64,0,0,1,4.92-6.62c2.34-2.66,3.33-3,3.93-3a1.27,1.27,0,0,1,1.3,1.37c0,3.89-3.47,9.3-5.54,12.17-3.09,4.28-6.72,8.11-9.26,9.76l-.06,0a7.34,7.34,0,0,0-.1,1.15c0,3.78,1.89,4.27,3.54,4.27,4.16,0,8.9-4.53,9.81-5.43ZM494.4,160a49.18,49.18,0,0,0,7.36-8.25c3.17-4.41,5.06-8.33,5.23-10.86-1.06.66-3.82,3.53-7.33,8.94A49.7,49.7,0,0,0,494.4,160Z"/></g></g></svg>